OT Chekharda.ufo
<glyph name="exclam" format="2">
	<advance width="303"/>
	<unicode hex="0021"/>
	<outline>
		<contour>
			<point x="229" y="175" type="curve"/>
			<point x="243" y="351"/>
			<point x="265" y="491"/>
			<point x="308" y="678" type="curve"/>
			<point x="272" y="701"/>
			<point x="153" y="725"/>
			<point x="95" y="728" type="curve"/>
			<point x="63" y="531"/>
			<point x="57" y="385"/>
			<point x="56" y="215" type="curve"/>
			<point x="95" y="187"/>
			<point x="183" y="170"/>
		</contour>
		<component base="period" xOffset="20"/>
	</outline>
</glyph>
<glyph name="quotedbl" format="2">
	<advance width="442"/>
	<unicode hex="0022"/>
	<outline>
		<contour>
			<point x="207" y="448" type="curve"/>
			<point x="213" y="531"/>
			<point x="229" y="632"/>
			<point x="249" y="716" type="curve"/>
			<point x="212" y="730"/>
			<point x="151" y="740"/>
			<point x="101" y="742" type="curve"/>
			<point x="81" y="656"/>
			<point x="69" y="558"/>
			<point x="69" y="474" type="curve"/>
			<point x="104" y="456"/>
			<point x="164" y="447"/>
		</contour>
		<contour>
			<point x="395" y="452" type="curve"/>
			<point x="400" y="536"/>
			<point x="418" y="632"/>
			<point x="445" y="712" type="curve"/>
			<point x="408" y="730"/>
			<point x="343" y="738"/>
			<point x="292" y="740" type="curve"/>
			<point x="273" y="654"/>
			<point x="259" y="561"/>
			<point x="260" y="477" type="curve"/>
			<point x="295" y="459"/>
			<point x="353" y="451"/>
		</contour>
	</outline>
</glyph>
<glyph name="numbersign" format="2">
	<advance width="676"/>
	<unicode hex="0023"/>
	<outline>
		<contour>
			<point x="271" y="12" type="curve"/>
			<point x="274" y="197"/>
			<point x="303" y="419"/>
			<point x="343" y="584" type="curve"/>
			<point x="324" y="603"/>
			<point x="238" y="620"/>
			<point x="204" y="619" type="curve"/>
			<point x="170" y="467"/>
			<point x="135" y="212"/>
			<point x="133" y="50" type="curve"/>
			<point x="152" y="32"/>
			<point x="249" y="6"/>
		</contour>
		<contour>
			<point x="492" y="4" type="curve"/>
			<point x="496" y="188"/>
			<point x="524" y="411"/>
			<point x="565" y="576" type="curve"/>
			<point x="546" y="595"/>
			<point x="459" y="611"/>
			<point x="425" y="610" type="curve"/>
			<point x="392" y="459"/>
			<point x="356" y="203"/>
			<point x="354" y="42" type="curve"/>
			<point x="374" y="23"/>
			<point x="470" y="-2"/>
		</contour>
		<contour>
			<point x="58" y="328" type="curve"/>
			<point x="240" y="346"/>
			<point x="465" y="345"/>
			<point x="634" y="324" type="curve"/>
			<point x="650" y="346"/>
			<point x="656" y="433"/>
			<point x="651" y="467" type="curve"/>
			<point x="497" y="483"/>
			<point x="239" y="487"/>
			<point x="79" y="469" type="curve"/>
			<point x="63" y="448"/>
			<point x="49" y="349"/>
		</contour>
		<contour>
			<point x="31" y="113" type="curve"/>
			<point x="214" y="132"/>
			<point x="439" y="130"/>
			<point x="607" y="110" type="curve"/>
			<point x="624" y="132"/>
			<point x="630" y="219"/>
			<point x="625" y="253" type="curve"/>
			<point x="470" y="268"/>
			<point x="212" y="272"/>
			<point x="53" y="254" type="curve"/>
			<point x="37" y="233"/>
			<point x="23" y="134"/>
		</contour>
	</outline>
</glyph>
<glyph name="dollar" format="2">
	<advance width="691"/>
	<unicode hex="0024"/>
	<outline>
		<contour>
			<point x="25" y="106" type="curve"/>
			<point x="89" y="19"/>
			<point x="209" y="-20"/>
			<point x="326" y="-20" type="curve" smooth="yes"/>
			<point x="486" y="-20"/>
			<point x="640" y="52"/>
			<point x="640" y="171" type="curve" smooth="yes"/>
			<point x="640" y="355"/>
			<point x="351" y="381"/>
			<point x="351" y="493" type="curve" smooth="yes"/>
			<point x="351" y="532"/>
			<point x="380" y="559"/>
			<point x="425" y="559" type="curve" smooth="yes"/>
			<point x="469" y="559"/>
			<point x="486" y="529"/>
			<point x="492" y="477" type="curve" smooth="yes"/>
			<point x="497" y="440"/>
			<point x="528" y="415"/>
			<point x="583" y="415" type="curve" smooth="yes"/>
			<point x="639" y="415"/>
			<point x="677" y="446"/>
			<point x="677" y="499" type="curve" smooth="yes"/>
			<point x="677" y="654"/>
			<point x="553" y="721"/>
			<point x="421" y="721" type="curve" smooth="yes"/>
			<point x="274" y="721"/>
			<point x="118" y="636"/>
			<point x="118" y="493" type="curve" smooth="yes"/>
			<point x="118" y="277"/>
			<point x="396" y="299"/>
			<point x="396" y="185" type="curve" smooth="yes"/>
			<point x="396" y="159"/>
			<point x="366" y="146"/>
			<point x="323" y="146" type="curve" smooth="yes"/>
			<point x="256" y="146"/>
			<point x="156" y="178"/>
			<point x="95" y="240" type="curve"/>
			<point x="61" y="196"/>
			<point x="38" y="149"/>
		</contour>
		<contour>
			<point x="370" y="-136" type="curve"/>
			<point x="385" y="-90"/>
			<point x="402" y="39"/>
			<point x="403" y="94" type="curve"/>
			<point x="358" y="111"/>
			<point x="307" y="120"/>
			<point x="245" y="117" type="curve"/>
			<point x="227" y="79"/>
			<point x="210" y="-58"/>
			<point x="213" y="-121" type="curve"/>
			<point x="257" y="-129"/>
			<point x="319" y="-133"/>
		</contour>
		<contour>
			<point x="465" y="569" type="curve"/>
			<point x="481" y="614"/>
			<point x="497" y="744"/>
			<point x="499" y="799" type="curve"/>
			<point x="454" y="816"/>
			<point x="402" y="824"/>
			<point x="340" y="822" type="curve"/>
			<point x="322" y="783"/>
			<point x="305" y="646"/>
			<point x="308" y="584" type="curve"/>
			<point x="352" y="575"/>
			<point x="415" y="572"/>
		</contour>
	</outline>
</glyph>
<glyph name="percent" format="2">
	<advance width="1016"/>
	<unicode hex="0025"/>
	<outline>
		<contour>
			<point x="434" y="-33" type="curve"/>
			<point x="500" y="148"/>
			<point x="680" y="469"/>
			<point x="796" y="632" type="curve"/>
			<point x="766" y="671"/>
			<point x="668" y="727"/>
			<point x="621" y="742" type="curve"/>
			<point x="491" y="574"/>
			<point x="323" y="262"/>
			<point x="261" y="81" type="curve"/>
			<point x="279" y="47"/>
			<point x="387" y="-22"/>
		</contour>
		<contour>
			<point x="237" y="369" type="curve" smooth="yes"/>
			<point x="485" y="369"/>
			<point x="504" y="801"/>
			<point x="264" y="801" type="curve" smooth="yes"/>
			<point x="43" y="801"/>
			<point x="-10" y="369"/>
		</contour>
		<contour>
			<point x="244" y="484" type="curve" smooth="yes"/>
			<point x="194" y="484"/>
			<point x="228" y="686"/>
			<point x="267" y="686" type="curve" smooth="yes"/>
			<point x="310" y="686"/>
			<point x="281" y="484"/>
		</contour>
		<contour>
			<point x="772" y="-35" type="curve" smooth="yes"/>
			<point x="1020" y="-35"/>
			<point x="1040" y="397"/>
			<point x="799" y="397" type="curve" smooth="yes"/>
			<point x="579" y="397"/>
			<point x="526" y="-35"/>
		</contour>
		<contour>
			<point x="794" y="67" type="curve"/>
			<point x="742" y="67"/>
			<point x="770" y="269"/>
			<point x="817" y="269" type="curve" smooth="yes"/>
			<point x="859" y="269"/>
			<point x="830" y="67"/>
		</contour>
	</outline>
</glyph>
<glyph name="ampersand" format="2">
	<advance width="702"/>
	<unicode hex="0026"/>
	<outline>
		<contour>
			<point x="577" y="-33" type="curve"/>
			<point x="605" y="-5"/>
			<point x="623" y="16"/>
			<point x="642" y="59" type="curve"/>
			<point x="477" y="133"/>
			<point x="293" y="470"/>
			<point x="293" y="583" type="curve" smooth="yes"/>
			<point x="293" y="637"/>
			<point x="330" y="664"/>
			<point x="366" y="664" type="curve" smooth="yes"/>
			<point x="398" y="664"/>
			<point x="428" y="642"/>
			<point x="428" y="600" type="curve" smooth="yes"/>
			<point x="428" y="495"/>
			<point x="31" y="423"/>
			<point x="31" y="185" type="curve" smooth="yes"/>
			<point x="31" y="37"/>
			<point x="157" y="-35"/>
			<point x="297" y="-35" type="curve" smooth="yes"/>
			<point x="430" y="-35"/>
			<point x="578" y="31"/>
			<point x="642" y="157" type="curve"/>
			<point x="623" y="199"/>
			<point x="570" y="241"/>
			<point x="510" y="270" type="curve"/>
			<point x="450" y="161"/>
			<point x="369" y="119"/>
			<point x="311" y="119" type="curve" smooth="yes"/>
			<point x="270" y="119"/>
			<point x="241" y="140"/>
			<point x="241" y="175" type="curve" smooth="yes"/>
			<point x="241" y="307"/>
			<point x="611" y="306"/>
			<point x="611" y="594" type="curve" smooth="yes"/>
			<point x="611" y="705"/>
			<point x="501" y="763"/>
			<point x="385" y="763" type="curve" smooth="yes"/>
			<point x="260" y="763"/>
			<point x="128" y="694"/>
			<point x="128" y="553" type="curve" smooth="yes"/>
			<point x="128" y="366"/>
			<point x="387" y="52"/>
		</contour>
	</outline>
</glyph>
<glyph name="quotesingle" format="2">
	<advance width="248"/>
	<unicode hex="0027"/>
	<outline>
		<contour>
			<point x="207" y="448" type="curve"/>
			<point x="213" y="531"/>
			<point x="231" y="632"/>
			<point x="257" y="713" type="curve"/>
			<point x="220" y="732"/>
			<point x="151" y="740"/>
			<point x="101" y="742" type="curve"/>
			<point x="81" y="656"/>
			<point x="69" y="558"/>
			<point x="69" y="474" type="curve"/>
			<point x="104" y="456"/>
			<point x="164" y="447"/>
		</contour>
	</outline>
</glyph>
<glyph name="parenleft" format="2">
	<advance width="402"/>
	<unicode hex="0028"/>
	<outline>
		<contour>
			<point x="163" y="-173" type="curve"/>
			<point x="227" y="-146"/>
			<point x="280" y="-111"/>
			<point x="328" y="-77" type="curve"/>
			<point x="200" y="191"/>
			<point x="239" y="536"/>
			<point x="413" y="737" type="curve"/>
			<point x="365" y="781"/>
			<point x="312" y="827"/>
			<point x="253" y="874" type="curve"/>
			<point x="34" y="649"/>
			<point x="-27" y="151"/>
		</contour>
	</outline>
</glyph>
<glyph name="parenright" format="2">
	<advance width="406"/>
	<unicode hex="0029"/>
	<outline>
		<contour>
			<point x="174" y="-220" type="curve"/>
			<point x="308" y="-70"/>
			<point x="376" y="175"/>
			<point x="376" y="412" type="curve" smooth="yes"/>
			<point x="376" y="566"/>
			<point x="347" y="716"/>
			<point x="289" y="835" type="curve"/>
			<point x="218" y="811"/>
			<point x="148" y="773"/>
			<point x="92" y="740" type="curve"/>
			<point x="135" y="636"/>
			<point x="156" y="517"/>
			<point x="156" y="397" type="curve" smooth="yes"/>
			<point x="156" y="229"/>
			<point x="114" y="61"/>
			<point x="32" y="-66" type="curve"/>
			<point x="82" y="-127"/>
			<point x="127" y="-181"/>
		</contour>
	</outline>
</glyph>
<glyph name="asterisk" format="2">
	<advance width="480"/>
	<unicode hex="002A"/>
	<outline>
		<contour>
			<point x="399" y="417" type="curve"/>
			<point x="418" y="424"/>
			<point x="457" y="475"/>
			<point x="466" y="497" type="curve"/>
			<point x="406" y="546"/>
			<point x="224" y="664"/>
			<point x="147" y="700" type="curve"/>
			<point x="129" y="694"/>
			<point x="82" y="639"/>
			<point x="79" y="623" type="curve"/>
			<point x="164" y="577"/>
			<point x="323" y="476"/>
		</contour>
		<contour>
			<point x="308" y="359" type="curve"/>
			<point x="311" y="456"/>
			<point x="331" y="643"/>
			<point x="349" y="738" type="curve"/>
			<point x="335" y="752"/>
			<point x="273" y="763"/>
			<point x="249" y="763" type="curve"/>
			<point x="231" y="687"/>
			<point x="206" y="471"/>
			<point x="207" y="386" type="curve"/>
			<point x="222" y="373"/>
			<point x="291" y="355"/>
		</contour>
		<contour>
			<point x="140" y="415" type="curve"/>
			<point x="219" y="471"/>
			<point x="380" y="569"/>
			<point x="466" y="611" type="curve"/>
			<point x="469" y="631"/>
			<point x="440" y="688"/>
			<point x="425" y="707" type="curve"/>
			<point x="354" y="675"/>
			<point x="167" y="563"/>
			<point x="102" y="511" type="curve"/>
			<point x="99" y="491"/>
			<point x="127" y="425"/>
		</contour>
	</outline>
</glyph>
<glyph name="plus" format="2">
	<advance width="706"/>
	<unicode hex="002B"/>
	<outline>
		<contour>
			<point x="433" y="-18" type="curve"/>
			<point x="438" y="199"/>
			<point x="452" y="377"/>
			<point x="490" y="581" type="curve"/>
			<point x="449" y="612"/>
			<point x="351" y="632"/>
			<point x="304" y="630" type="curve"/>
			<point x="279" y="487"/>
			<point x="266" y="341"/>
			<point x="266" y="178" type="curve" smooth="yes"/>
			<point x="266" y="132"/>
			<point x="267" y="84"/>
			<point x="269" y="35" type="curve"/>
			<point x="300" y="5"/>
			<point x="376" y="-20"/>
		</contour>
		<contour>
			<point x="82" y="203" type="curve"/>
			<point x="205" y="215"/>
			<point x="378" y="223"/>
			<point x="522" y="223" type="curve" smooth="yes"/>
			<point x="574" y="223"/>
			<point x="622" y="222"/>
			<point x="663" y="220" type="curve"/>
			<point x="664" y="234"/>
			<point x="665" y="249"/>
			<point x="665" y="265" type="curve" smooth="yes"/>
			<point x="665" y="297"/>
			<point x="662" y="331"/>
			<point x="656" y="364" type="curve"/>
			<point x="516" y="377"/>
			<point x="363" y="383"/>
			<point x="240" y="383" type="curve" smooth="yes"/>
			<point x="162" y="383"/>
			<point x="97" y="381"/>
			<point x="53" y="376" type="curve"/>
			<point x="52" y="370"/>
			<point x="52" y="363"/>
			<point x="52" y="355" type="curve" smooth="yes"/>
			<point x="52" y="309"/>
			<point x="66" y="241"/>
		</contour>
	</outline>
</glyph>
<glyph name="comma" format="2">
	<advance width="275"/>
	<unicode hex="002C"/>
	<outline>
		<contour>
			<point x="124" y="161" type="curve" smooth="yes"/>
			<point x="55" y="161"/>
			<point x="21" y="108"/>
			<point x="21" y="59" type="curve" smooth="yes"/>
			<point x="21" y="11"/>
			<point x="46" y="-19"/>
			<point x="84" y="-19" type="curve" smooth="yes"/>
			<point x="88" y="-19"/>
			<point x="91" y="-22"/>
			<point x="91" y="-27" type="curve" smooth="yes"/>
			<point x="91" y="-40"/>
			<point x="83" y="-65"/>
			<point x="67" y="-79" type="curve"/>
			<point x="85" y="-97"/>
			<point x="116" y="-114"/>
			<point x="134" y="-120" type="curve"/>
			<point x="185" y="-75"/>
			<point x="213" y="-5"/>
			<point x="213" y="54" type="curve" smooth="yes"/>
			<point x="213" y="113"/>
			<point x="185" y="161"/>
		</contour>
	</outline>
</glyph>
<glyph name="hyphen" format="2">
	<advance width="380"/>
	<unicode hex="002D"/>
	<outline>
		<contour>
			<point x="331" y="192" type="curve"/>
			<point x="337" y="236"/>
			<point x="340" y="302"/>
			<point x="340" y="353" type="curve"/>
			<point x="293" y="365"/>
			<point x="115" y="377"/>
			<point x="60" y="375" type="curve"/>
			<point x="46" y="329"/>
			<point x="37" y="274"/>
			<point x="43" y="212" type="curve"/>
			<point x="83" y="197"/>
			<point x="269" y="185"/>
		</contour>
	</outline>
</glyph>
<glyph name="period" format="2">
	<advance width="269"/>
	<unicode hex="002E"/>
	<outline>
		<contour>
			<point x="104" y="-19" type="curve" smooth="yes"/>
			<point x="171" y="-19"/>
			<point x="209" y="23"/>
			<point x="209" y="67" type="curve" smooth="yes"/>
			<point x="209" y="122"/>
			<point x="184" y="182"/>
			<point x="132" y="182" type="curve" smooth="yes"/>
			<point x="80" y="182"/>
			<point x="24" y="150"/>
			<point x="24" y="94" type="curve" smooth="yes"/>
			<point x="24" y="37"/>
			<point x="52" y="-19"/>
		</contour>
	</outline>
</glyph>
<glyph name="slash" format="2">
	<advance width="514"/>
	<unicode hex="002F"/>
	<outline>
		<contour>
			<point x="186" y="-154" type="curve"/>
			<point x="248" y="69"/>
			<point x="406" y="457"/>
			<point x="518" y="666" type="curve"/>
			<point x="476" y="707"/>
			<point x="368" y="750"/>
			<point x="311" y="760" type="curve"/>
			<point x="193" y="525"/>
			<point x="52" y="149"/>
			<point x="6" y="-73" type="curve"/>
			<point x="44" y="-118"/>
			<point x="129" y="-150"/>
		</contour>
	</outline>
</glyph>
<glyph name="zero" format="2">
	<advance width="686"/>
	<unicode hex="0030"/>
	<outline>
		<contour>
			<point x="322" y="-18" type="curve" smooth="yes"/>
			<point x="543" y="-18"/>
			<point x="657" y="187"/>
			<point x="657" y="382" type="curve" smooth="yes"/>
			<point x="657" y="557"/>
			<point x="564" y="723"/>
			<point x="372" y="723" type="curve" smooth="yes"/>
			<point x="169" y="723"/>
			<point x="48" y="503"/>
			<point x="48" y="302" type="curve" smooth="yes"/>
			<point x="48" y="135"/>
			<point x="132" y="-18"/>
		</contour>
		<contour>
			<point x="330" y="120" type="curve" smooth="yes"/>
			<point x="292" y="120"/>
			<point x="276" y="179"/>
			<point x="276" y="253" type="curve" smooth="yes"/>
			<point x="276" y="381"/>
			<point x="322" y="557"/>
			<point x="375" y="557" type="curve" smooth="yes"/>
			<point x="410" y="557"/>
			<point x="424" y="493"/>
			<point x="424" y="413" type="curve" smooth="yes"/>
			<point x="424" y="286"/>
			<point x="386" y="120"/>
		</contour>
	</outline>
</glyph>
<glyph name="one" format="2">
	<advance width="527"/>
	<unicode hex="0031"/>
	<outline>
		<contour>
			<point x="456" y="-18" type="curve"/>
			<point x="465" y="211"/>
			<point x="486" y="438"/>
			<point x="530" y="662" type="curve"/>
			<point x="497" y="695"/>
			<point x="349" y="724"/>
			<point x="291" y="723" type="curve"/>
			<point x="251" y="554"/>
			<point x="220" y="279"/>
			<point x="220" y="80" type="curve" smooth="yes"/>
			<point x="220" y="46" type="line"/>
			<point x="250" y="17"/>
			<point x="386" y="-20"/>
			<point x="441" y="-20" type="curve" smooth="yes"/>
			<point x="447" y="-20"/>
			<point x="452" y="-19"/>
		</contour>
		<contour>
			<point x="150" y="414" type="curve"/>
			<point x="227" y="464"/>
			<point x="298" y="533"/>
			<point x="357" y="623" type="curve"/>
			<point x="337" y="662"/>
			<point x="312" y="697"/>
			<point x="291" y="723" type="curve"/>
			<point x="221" y="663"/>
			<point x="160" y="619"/>
			<point x="74" y="574" type="curve"/>
			<point x="100" y="513"/>
			<point x="128" y="452"/>
		</contour>
	</outline>
</glyph>
<glyph name="two" format="2">
	<advance width="615"/>
	<unicode hex="0032"/>
	<outline>
		<contour>
			<point x="95" y="80" type="curve"/>
			<point x="121" y="45"/>
			<point x="137" y="32"/>
			<point x="151" y="32" type="curve" smooth="yes"/>
			<point x="180" y="32"/>
			<point x="199" y="90"/>
			<point x="273" y="126" type="curve" smooth="yes"/>
			<point x="473" y="223"/>
			<point x="598" y="414"/>
			<point x="598" y="521" type="curve" smooth="yes"/>
			<point x="598" y="647"/>
			<point x="500" y="722"/>
			<point x="342" y="722" type="curve" smooth="yes"/>
			<point x="192" y="722"/>
			<point x="95" y="649"/>
			<point x="95" y="580" type="curve" smooth="yes"/>
			<point x="95" y="520"/>
			<point x="137" y="484"/>
			<point x="181" y="484" type="curve" smooth="yes"/>
			<point x="258" y="484"/>
			<point x="269" y="559"/>
			<point x="324" y="559" type="curve" smooth="yes"/>
			<point x="361" y="559"/>
			<point x="383" y="536"/>
			<point x="383" y="499" type="curve" smooth="yes"/>
			<point x="383" y="423"/>
			<point x="288" y="289"/>
			<point x="33" y="186" type="curve"/>
			<point x="45" y="129"/>
			<point x="52" y="83"/>
			<point x="55" y="83" type="curve" smooth="yes"/>
			<point x="56" y="83"/>
			<point x="56" y="87"/>
			<point x="56" y="96" type="curve"/>
			<point x="60" y="103"/>
			<point x="68" y="107"/>
			<point x="76" y="107" type="curve" smooth="yes"/>
			<point x="87" y="107"/>
			<point x="98" y="100"/>
			<point x="98" y="89" type="curve" smooth="yes"/>
			<point x="98" y="86"/>
			<point x="97" y="83"/>
		</contour>
		<contour>
			<point x="62" y="-18" type="curve"/>
			<point x="170" y="-7"/>
			<point x="273" y="-2"/>
			<point x="382" y="-2" type="curve" smooth="yes"/>
			<point x="436" y="-2"/>
			<point x="490" y="-3"/>
			<point x="548" y="-5" type="curve"/>
			<point x="551" y="23"/>
			<point x="556" y="59"/>
			<point x="556" y="96" type="curve" smooth="yes"/>
			<point x="556" y="125"/>
			<point x="553" y="155"/>
			<point x="544" y="181" type="curve"/>
			<point x="458" y="193"/>
			<point x="359" y="199"/>
			<point x="265" y="199" type="curve" smooth="yes"/>
			<point x="181" y="199"/>
			<point x="100" y="194"/>
			<point x="33" y="186" type="curve"/>
			<point x="31" y="175"/>
			<point x="31" y="161"/>
			<point x="31" y="145" type="curve" smooth="yes"/>
			<point x="31" y="87"/>
			<point x="41" y="6"/>
		</contour>
	</outline>
</glyph>
<glyph name="three" format="2">
	<advance width="614"/>
	<unicode hex="0033"/>
	<outline>
		<contour>
			<point x="32" y="135" type="curve"/>
			<point x="81" y="30"/>
			<point x="189" y="-18"/>
			<point x="295" y="-18" type="curve" smooth="yes"/>
			<point x="431" y="-18"/>
			<point x="564" y="61"/>
			<point x="564" y="202" type="curve" smooth="yes"/>
			<point x="564" y="326"/>
			<point x="447" y="435"/>
			<point x="276" y="435" type="curve" smooth="yes"/>
			<point x="261" y="435"/>
			<point x="246" y="435"/>
			<point x="231" y="433" type="curve"/>
			<point x="228" y="409"/>
			<point x="225" y="386"/>
			<point x="225" y="362" type="curve" smooth="yes"/>
			<point x="225" y="343"/>
			<point x="227" y="323"/>
			<point x="231" y="303" type="curve"/>
			<point x="287" y="294"/>
			<point x="315" y="260"/>
			<point x="315" y="229" type="curve" smooth="yes"/>
			<point x="315" y="199"/>
			<point x="288" y="171"/>
			<point x="233" y="171" type="curve" smooth="yes"/>
			<point x="197" y="171"/>
			<point x="149" y="182"/>
			<point x="90" y="213" type="curve"/>
			<point x="67" y="187"/>
			<point x="49" y="164"/>
		</contour>
		<contour>
			<point x="334" y="277" type="curve"/>
			<point x="447" y="372"/>
			<point x="519" y="444"/>
			<point x="603" y="529" type="curve"/>
			<point x="594" y="565"/>
			<point x="514" y="591"/>
			<point x="462" y="591" type="curve" smooth="yes"/>
			<point x="444" y="591"/>
			<point x="430" y="588"/>
			<point x="423" y="581" type="curve" smooth="yes"/>
			<point x="366" y="527"/>
			<point x="308" y="479"/>
			<point x="231" y="433" type="curve"/>
			<point x="231" y="400"/>
			<point x="323" y="307"/>
		</contour>
		<contour>
			<point x="118" y="510" type="curve"/>
			<point x="244" y="523"/>
			<point x="363" y="531"/>
			<point x="494" y="531" type="curve" smooth="yes"/>
			<point x="530" y="531"/>
			<point x="566" y="530"/>
			<point x="603" y="529" type="curve"/>
			<point x="607" y="554"/>
			<point x="609" y="584"/>
			<point x="609" y="615" type="curve" smooth="yes"/>
			<point x="609" y="646"/>
			<point x="607" y="678"/>
			<point x="600" y="707" type="curve"/>
			<point x="515" y="720"/>
			<point x="417" y="725"/>
			<point x="324" y="725" type="curve" smooth="yes"/>
			<point x="239" y="725"/>
			<point x="157" y="721"/>
			<point x="89" y="712" type="curve"/>
			<point x="87" y="701"/>
			<point x="86" y="687"/>
			<point x="86" y="671" type="curve" smooth="yes"/>
			<point x="86" y="616"/>
			<point x="97" y="541"/>
		</contour>
	</outline>
</glyph>
<glyph name="four" format="2">
	<advance width="667"/>
	<unicode hex="0034"/>
	<outline>
		<contour>
			<point x="599" y="-18" type="curve"/>
			<point x="607" y="210"/>
			<point x="621" y="361"/>
			<point x="651" y="541" type="curve"/>
			<point x="618" y="574"/>
			<point x="470" y="603"/>
			<point x="412" y="601" type="curve"/>
			<point x="381" y="438"/>
			<point x="359" y="246"/>
			<point x="362" y="46" type="curve"/>
			<point x="396" y="14"/>
			<point x="544" y="-18"/>
		</contour>
		<contour>
			<point x="78" y="223" type="curve"/>
			<point x="200" y="240"/>
			<point x="316" y="247"/>
			<point x="449" y="240" type="curve"/>
			<point x="454" y="283"/>
			<point x="455" y="344"/>
			<point x="447" y="400" type="curve"/>
			<point x="322" y="415"/>
			<point x="168" y="415"/>
			<point x="56" y="403" type="curve"/>
			<point x="50" y="361"/>
			<point x="57" y="250"/>
		</contour>
		<contour>
			<point x="218" y="301" type="curve"/>
			<point x="314" y="432"/>
			<point x="355" y="509"/>
			<point x="409" y="632" type="curve"/>
			<point x="386" y="669"/>
			<point x="269" y="729"/>
			<point x="218" y="744" type="curve"/>
			<point x="172" y="620"/>
			<point x="130" y="523"/>
			<point x="56" y="403" type="curve"/>
			<point x="76" y="366"/>
			<point x="182" y="303"/>
		</contour>
	</outline>
</glyph>
<glyph name="five" format="2">
	<advance width="614"/>
	<unicode hex="0035"/>
	<outline>
		<contour>
			<point x="28" y="140" type="curve"/>
			<point x="68" y="40"/>
			<point x="180" y="-18"/>
			<point x="293" y="-18" type="curve" smooth="yes"/>
			<point x="457" y="-18"/>
			<point x="560" y="76"/>
			<point x="560" y="206" type="curve" smooth="yes"/>
			<point x="560" y="336"/>
			<point x="466" y="437"/>
			<point x="297" y="437" type="curve" smooth="yes"/>
			<point x="263" y="437"/>
			<point x="225" y="433"/>
			<point x="185" y="424" type="curve"/>
			<point x="195" y="376"/>
			<point x="199" y="348"/>
			<point x="214" y="310" type="curve"/>
			<point x="284" y="310"/>
			<point x="317" y="277"/>
			<point x="317" y="245" type="curve" smooth="yes"/>
			<point x="317" y="212"/>
			<point x="284" y="179"/>
			<point x="222" y="179" type="curve" smooth="yes"/>
			<point x="186" y="179"/>
			<point x="141" y="190"/>
			<point x="86" y="218" type="curve"/>
			<point x="63" y="192"/>
			<point x="45" y="168"/>
		</contour>
		<contour>
			<point x="214" y="310" type="curve"/>
			<point x="253" y="454"/>
			<point x="264" y="534"/>
			<point x="284" y="651" type="curve"/>
			<point x="253" y="672"/>
			<point x="166" y="692"/>
			<point x="113" y="692" type="curve"/>
			<point x="97" y="612"/>
			<point x="85" y="524"/>
			<point x="85" y="430" type="curve" smooth="yes"/>
			<point x="85" y="400"/>
			<point x="86" y="369"/>
			<point x="89" y="338" type="curve"/>
			<point x="121" y="316"/>
			<point x="173" y="310"/>
		</contour>
		<contour>
			<point x="579" y="723" type="curve"/>
			<point x="479" y="714"/>
			<point x="384" y="709"/>
			<point x="284" y="709" type="curve" smooth="yes"/>
			<point x="227" y="709"/>
			<point x="169" y="711"/>
			<point x="107" y="714" type="curve"/>
			<point x="103" y="684"/>
			<point x="97" y="646"/>
			<point x="97" y="608" type="curve" smooth="yes"/>
			<point x="97" y="584"/>
			<point x="99" y="559"/>
			<point x="106" y="536" type="curve"/>
			<point x="205" y="520"/>
			<point x="321" y="512"/>
			<point x="427" y="512" type="curve" smooth="yes"/>
			<point x="490" y="512"/>
			<point x="550" y="514"/>
			<point x="602" y="520" type="curve"/>
			<point x="604" y="534"/>
			<point x="605" y="553"/>
			<point x="605" y="573" type="curve" smooth="yes"/>
			<point x="605" y="629"/>
			<point x="597" y="700"/>
		</contour>
	</outline>
</glyph>
<glyph name="six" format="2">
	<advance width="627"/>
	<unicode hex="0036"/>
	<outline>
		<contour>
			<point x="608" y="584" type="curve"/>
			<point x="413" y="839"/>
			<point x="49" y="739"/>
			<point x="49" y="264" type="curve" smooth="yes"/>
			<point x="49" y="109"/>
			<point x="130" y="-18"/>
			<point x="299" y="-18" type="curve" smooth="yes"/>
			<point x="482" y="-18"/>
			<point x="583" y="105"/>
			<point x="583" y="301" type="curve" smooth="yes"/>
			<point x="583" y="527"/>
			<point x="295" y="532"/>
			<point x="217" y="427" type="curve" smooth="yes"/>
			<point x="161" y="352"/>
			<point x="255" y="306"/>
			<point x="266" y="348" type="curve" smooth="yes"/>
			<point x="282" y="413"/>
			<point x="409" y="434"/>
			<point x="409" y="298" type="curve" smooth="yes"/>
			<point x="409" y="206"/>
			<point x="365" y="163"/>
			<point x="324" y="163" type="curve" smooth="yes"/>
			<point x="280" y="163"/>
			<point x="248" y="210"/>
			<point x="263" y="329" type="curve" smooth="yes"/>
			<point x="290" y="551"/>
			<point x="396" y="612"/>
			<point x="551" y="506" type="curve"/>
			<point x="574" y="532"/>
			<point x="591" y="555"/>
		</contour>
	</outline>
</glyph>
<glyph name="seven" format="2">
	<advance width="614"/>
	<unicode hex="0037"/>
	<outline>
		<contour>
			<point x="365" y="-24" type="curve"/>
			<point x="424" y="180"/>
			<point x="489" y="313"/>
			<point x="571" y="481" type="curve"/>
			<point x="535" y="510"/>
			<point x="452" y="554"/>
			<point x="395" y="568" type="curve"/>
			<point x="295" y="408"/>
			<point x="203" y="253"/>
			<point x="148" y="84" type="curve"/>
			<point x="181" y="40"/>
			<point x="307" y="-17"/>
		</contour>
		<contour>
			<point x="117" y="508" type="curve"/>
			<point x="278" y="525"/>
			<point x="427" y="532"/>
			<point x="603" y="527" type="curve"/>
			<point x="609" y="577"/>
			<point x="619" y="647"/>
			<point x="600" y="705" type="curve"/>
			<point x="436" y="728"/>
			<point x="231" y="728"/>
			<point x="88" y="710" type="curve"/>
			<point x="81" y="660"/>
			<point x="90" y="539"/>
		</contour>
	</outline>
</glyph>
<glyph name="eight" format="2">
	<advance width="620"/>
	<unicode hex="0038"/>
	<outline>
		<contour>
			<point x="31" y="-97"/>
			<point x="573" y="-77"/>
			<point x="573" y="191" type="curve" smooth="yes"/>
			<point x="573" y="390"/>
			<point x="285" y="368"/>
			<point x="285" y="489" type="curve" smooth="yes"/>
			<point x="285" y="535"/>
			<point x="312" y="569"/>
			<point x="355" y="569" type="curve" smooth="yes"/>
			<point x="384" y="569"/>
			<point x="381" y="726"/>
			<point x="350" y="726" type="curve" smooth="yes"/>
			<point x="199" y="726"/>
			<point x="83" y="636"/>
			<point x="83" y="506" type="curve" smooth="yes"/>
			<point x="83" y="312"/>
			<point x="357" y="284"/>
			<point x="357" y="172" type="curve" smooth="yes"/>
			<point x="357" y="103"/>
			<point x="250" y="87"/>
			<point x="250" y="174" type="curve" smooth="yes"/>
			<point x="250" y="316"/>
			<point x="584" y="318"/>
			<point x="584" y="537" type="curve" smooth="yes"/>
			<point x="584" y="647"/>
			<point x="495" y="726"/>
			<point x="350" y="726" type="curve" smooth="yes"/>
			<point x="315" y="726"/>
			<point x="343" y="569"/>
			<point x="355" y="569" type="curve" smooth="yes"/>
			<point x="393" y="569"/>
			<point x="419" y="543"/>
			<point x="419" y="503" type="curve" smooth="yes"/>
			<point x="419" y="383"/>
			<point x="31" y="342"/>
			<point x="31" y="174" type="curve" smooth="yes"/>
		</contour>
	</outline>
</glyph>
<glyph name="nine" format="2">
	<advance width="627"/>
	<unicode hex="0039"/>
	<outline>
		<contour>
			<point x="29" y="142" type="curve"/>
			<point x="77" y="37"/>
			<point x="174" y="-18"/>
			<point x="276" y="-18" type="curve" smooth="yes"/>
			<point x="433" y="-18"/>
			<point x="599" y="114"/>
			<point x="599" y="395" type="curve" smooth="yes"/>
			<point x="599" y="580"/>
			<point x="530" y="723"/>
			<point x="350" y="723" type="curve" smooth="yes"/>
			<point x="167" y="723"/>
			<point x="68" y="573"/>
			<point x="68" y="436" type="curve" smooth="yes"/>
			<point x="68" y="319"/>
			<point x="140" y="211"/>
			<point x="293" y="211" type="curve" smooth="yes"/>
			<point x="349" y="211"/>
			<point x="402" y="232"/>
			<point x="431" y="273" type="curve" smooth="yes"/>
			<point x="443" y="290"/>
			<point x="448" y="307"/>
			<point x="448" y="322" type="curve" smooth="yes"/>
			<point x="448" y="359"/>
			<point x="419" y="385"/>
			<point x="400" y="385" type="curve" smooth="yes"/>
			<point x="392" y="385"/>
			<point x="387" y="381"/>
			<point x="385" y="371" type="curve" smooth="yes"/>
			<point x="381" y="347"/>
			<point x="353" y="332"/>
			<point x="322" y="332" type="curve" smooth="yes"/>
			<point x="279" y="332"/>
			<point x="258" y="378"/>
			<point x="258" y="427" type="curve" smooth="yes"/>
			<point x="258" y="484"/>
			<point x="284" y="544"/>
			<point x="332" y="544" type="curve" smooth="yes"/>
			<point x="365" y="544"/>
			<point x="389" y="515"/>
			<point x="389" y="436" type="curve" smooth="yes"/>
			<point x="389" y="417"/>
			<point x="388" y="396"/>
			<point x="385" y="371" type="curve" smooth="yes"/>
			<point x="370" y="238"/>
			<point x="325" y="163"/>
			<point x="241" y="163" type="curve" smooth="yes"/>
			<point x="200" y="163"/>
			<point x="149" y="181"/>
			<point x="87" y="220" type="curve"/>
			<point x="64" y="194"/>
			<point x="46" y="171"/>
		</contour>
	</outline>
</glyph>
<glyph name="less" format="2">
	<advance width="512"/>
	<unicode hex="003C"/>
	<outline>
		<contour>
			<point x="75" y="178" type="curve"/>
			<point x="224" y="247"/>
			<point x="414" y="402"/>
			<point x="493" y="486" type="curve"/>
			<point x="461" y="532"/>
			<point x="408" y="581"/>
			<point x="370" y="604" type="curve"/>
			<point x="271" y="497"/>
			<point x="166" y="389"/>
			<point x="45" y="296" type="curve"/>
			<point x="64" y="252"/>
			<point x="75" y="224"/>
		</contour>
		<contour>
			<point x="302" y="-98" type="curve"/>
			<point x="347" y="-78"/>
			<point x="415" y="-30"/>
			<point x="447" y="9" type="curve"/>
			<point x="398" y="74"/>
			<point x="223" y="231"/>
			<point x="124" y="308" type="curve"/>
			<point x="102" y="267"/>
			<point x="77" y="208"/>
			<point x="75" y="178" type="curve"/>
			<point x="159" y="98"/>
			<point x="237" y="1"/>
		</contour>
	</outline>
</glyph>
<glyph name="equal" format="2">
	<advance width="710"/>
	<unicode hex="003D"/>
	<outline>
		<contour>
			<point x="68" y="29" type="curve"/>
			<point x="236" y="46"/>
			<point x="496" y="54"/>
			<point x="649" y="46" type="curve"/>
			<point x="653" y="90"/>
			<point x="651" y="146"/>
			<point x="642" y="194" type="curve"/>
			<point x="415" y="215"/>
			<point x="152" y="214"/>
			<point x="39" y="202" type="curve"/>
			<point x="33" y="159"/>
			<point x="49" y="73"/>
		</contour>
		<contour>
			<point x="92" y="296" type="curve"/>
			<point x="260" y="312"/>
			<point x="520" y="320"/>
			<point x="673" y="312" type="curve"/>
			<point x="677" y="356"/>
			<point x="675" y="408"/>
			<point x="666" y="457" type="curve"/>
			<point x="439" y="477"/>
			<point x="176" y="480"/>
			<point x="63" y="469" type="curve"/>
			<point x="57" y="426"/>
			<point x="73" y="339"/>
		</contour>
	</outline>
</glyph>
<glyph name="greater" format="2">
	<advance width="499"/>
	<unicode hex="003E"/>
	<outline>
		<contour>
			<point x="143" y="-102" type="curve"/>
			<point x="242" y="5"/>
			<point x="328" y="95"/>
			<point x="449" y="196" type="curve"/>
			<point x="435" y="243"/>
			<point x="419" y="289"/>
			<point x="394" y="318" type="curve"/>
			<point x="293" y="255"/>
			<point x="99" y="100"/>
			<point x="20" y="16" type="curve"/>
			<point x="52" y="-30"/>
			<point x="105" y="-79"/>
		</contour>
		<contour>
			<point x="406" y="183" type="curve"/>
			<point x="435" y="225"/>
			<point x="453" y="252"/>
			<point x="465" y="304" type="curve"/>
			<point x="381" y="383"/>
			<point x="276" y="501"/>
			<point x="211" y="600" type="curve"/>
			<point x="166" y="580"/>
			<point x="98" y="533"/>
			<point x="66" y="493" type="curve"/>
			<point x="146" y="399"/>
			<point x="272" y="287"/>
		</contour>
	</outline>
</glyph>
<glyph name="question" format="2">
	<advance width="585"/>
	<unicode hex="003F"/>
	<outline>
		<contour>
			<point x="337" y="178" type="curve"/>
			<point x="386" y="347"/>
			<point x="577" y="423"/>
			<point x="577" y="559" type="curve" smooth="yes"/>
			<point x="577" y="668"/>
			<point x="506" y="762"/>
			<point x="335" y="762" type="curve" smooth="yes"/>
			<point x="183" y="762"/>
			<point x="78" y="683"/>
			<point x="78" y="611" type="curve" smooth="yes"/>
			<point x="78" y="538"/>
			<point x="124" y="514"/>
			<point x="171" y="514" type="curve" smooth="yes"/>
			<point x="268" y="514"/>
			<point x="278" y="606"/>
			<point x="332" y="606" type="curve" smooth="yes"/>
			<point x="368" y="606"/>
			<point x="386" y="582"/>
			<point x="386" y="551" type="curve" smooth="yes"/>
			<point x="386" y="477"/>
			<point x="188" y="371"/>
			<point x="167" y="210" type="curve"/>
			<point x="209" y="185"/>
			<point x="289" y="174"/>
		</contour>
		<component base="period" xOffset="137"/>
	</outline>
</glyph>
<glyph name="at" format="2">
	<advance width="1198"/>
	<unicode hex="0040"/>
	<anchor x="641" y="526" name="top"/>
	<outline>
		<contour>
			<point x="516" y="-18" type="curve" smooth="yes"/>
			<point x="614" y="-18"/>
			<point x="668" y="62"/>
			<point x="681" y="164" type="curve"/>
			<point x="664" y="195"/>
			<point x="650" y="215"/>
			<point x="641" y="227" type="curve"/>
			<point x="639" y="165"/>
			<point x="610" y="136"/>
			<point x="581" y="136" type="curve" smooth="yes"/>
			<point x="552" y="136"/>
			<point x="525" y="163"/>
			<point x="525" y="214" type="curve" smooth="yes"/>
			<point x="525" y="292"/>
			<point x="557" y="328"/>
			<point x="587" y="328" type="curve" smooth="yes"/>
			<point x="616" y="328"/>
			<point x="644" y="293"/>
			<point x="641" y="227" type="curve" smooth="yes"/>
			<point x="640" y="202"/>
			<point x="668" y="283"/>
			<point x="699" y="279" type="curve" smooth="yes"/>
			<point x="709" y="278"/>
			<point x="713" y="284"/>
			<point x="713" y="294" type="curve" smooth="yes"/>
			<point x="713" y="315"/>
			<point x="698" y="354"/>
			<point x="698" y="386" type="curve" smooth="yes"/>
			<point x="698" y="458"/>
			<point x="642" y="521"/>
			<point x="566" y="521" type="curve" smooth="yes"/>
			<point x="440" y="521"/>
			<point x="323" y="415"/>
			<point x="323" y="198" type="curve" smooth="yes"/>
			<point x="323" y="49"/>
			<point x="417" y="-18"/>
		</contour>
		<contour>
			<point x="857" y="147" type="curve" smooth="yes"/>
			<point x="857" y="241"/>
			<point x="867" y="312"/>
			<point x="908" y="469" type="curve"/>
			<point x="858" y="497"/>
			<point x="754" y="517"/>
			<point x="689" y="517" type="curve"/>
			<point x="654" y="380"/>
			<point x="636" y="342"/>
			<point x="636" y="180" type="curve" smooth="yes"/>
			<point x="636" y="47"/>
			<point x="750" y="-35"/>
			<point x="888" y="-35" type="curve" smooth="yes"/>
			<point x="1041" y="-35"/>
			<point x="1159" y="70"/>
			<point x="1159" y="279" type="curve" smooth="yes"/>
			<point x="1159" y="584"/>
			<point x="946" y="726"/>
			<point x="639" y="726" type="curve" smooth="yes"/>
			<point x="322" y="726"/>
			<point x="40" y="555"/>
			<point x="40" y="215" type="curve" smooth="yes"/>
			<point x="40" y="-61"/>
			<point x="189" y="-242"/>
			<point x="462" y="-242" type="curve" smooth="yes"/>
			<point x="560" y="-242"/>
			<point x="673" y="-219"/>
			<point x="801" y="-169" type="curve"/>
			<point x="802" y="-163"/>
			<point x="802" y="-157"/>
			<point x="802" y="-151" type="curve" smooth="yes"/>
			<point x="802" y="-132"/>
			<point x="800" y="-112"/>
			<point x="796" y="-90" type="curve"/>
			<point x="729" y="-104"/>
			<point x="670" y="-110"/>
			<point x="617" y="-110" type="curve" smooth="yes"/>
			<point x="378" y="-110"/>
			<point x="260" y="2"/>
			<point x="260" y="217" type="curve" smooth="yes"/>
			<point x="260" y="461"/>
			<point x="453" y="631"/>
			<point x="679" y="631" type="curve" smooth="yes"/>
			<point x="837" y="631"/>
			<point x="982" y="520"/>
			<point x="982" y="265" type="curve" smooth="yes"/>
			<point x="982" y="107"/>
			<point x="945" y="47"/>
			<point x="911" y="47" type="curve" smooth="yes"/>
			<point x="883" y="47"/>
			<point x="857" y="88"/>
		</contour>
	</outline>
</glyph>
<glyph name="A" format="2">
	<advance width="763"/>
	<unicode hex="0041"/>
	<anchor x="399" y="742" name="top"/>
	<outline>
		<contour>
			<point x="487" y="-15" type="curve"/>
			<point x="551" y="-18"/>
			<point x="678" y="8"/>
			<point x="730" y="34" type="curve"/>
			<point x="685" y="258"/>
			<point x="590" y="551"/>
			<point x="509" y="724" type="curve"/>
			<point x="429" y="712"/>
			<point x="326" y="684"/>
			<point x="255" y="649" type="curve"/>
			<point x="337" y="477"/>
			<point x="440" y="157"/>
		</contour>
		<contour>
			<point x="165" y="97" type="curve"/>
			<point x="292" y="104"/>
			<point x="403" y="117"/>
			<point x="536" y="111" type="curve"/>
			<point x="541" y="146"/>
			<point x="543" y="196"/>
			<point x="534" y="242" type="curve"/>
			<point x="409" y="255"/>
			<point x="255" y="256"/>
			<point x="143" y="246" type="curve"/>
			<point x="137" y="211"/>
			<point x="144" y="119"/>
		</contour>
		<contour>
			<point x="206" y="-18" type="curve"/>
			<point x="300" y="174"/>
			<point x="351" y="321"/>
			<point x="376" y="510" type="curve"/>
			<point x="334" y="522"/>
			<point x="288" y="532"/>
			<point x="238" y="527" type="curve"/>
			<point x="171" y="350"/>
			<point x="111" y="258"/>
			<point x="-4" y="114" type="curve"/>
			<point x="51" y="52"/>
			<point x="150" y="-1"/>
		</contour>
	</outline>
</glyph>
<glyph name="B" format="2">
	<advance width="656"/>
	<unicode hex="0042"/>
	<outline>
		<contour>
			<point x="42" y="73" type="curve"/>
			<point x="121" y="17"/>
			<point x="243" y="-17"/>
			<point x="354" y="-17" type="curve" smooth="yes"/>
			<point x="534" y="-17"/>
			<point x="629" y="97"/>
			<point x="629" y="202" type="curve" smooth="yes"/>
			<point x="629" y="295"/>
			<point x="557" y="381"/>
			<point x="406" y="381" type="curve" smooth="yes"/>
			<point x="304" y="381"/>
			<point x="259" y="343"/>
			<point x="259" y="317" type="curve" smooth="yes"/>
			<point x="259" y="303"/>
			<point x="271" y="293"/>
			<point x="294" y="293" type="curve" smooth="yes"/>
			<point x="352" y="293"/>
			<point x="386" y="246"/>
			<point x="386" y="200" type="curve" smooth="yes"/>
			<point x="386" y="155"/>
			<point x="354" y="111"/>
			<point x="282" y="111" type="curve" smooth="yes"/>
			<point x="202" y="111"/>
			<point x="82" y="89"/>
		</contour>
		<contour>
			<point x="278" y="9" type="curve"/>
			<point x="287" y="238"/>
			<point x="302" y="423"/>
			<point x="346" y="647" type="curve"/>
			<point x="313" y="680"/>
			<point x="163" y="694"/>
			<point x="104" y="693" type="curve"/>
			<point x="66" y="527"/>
			<point x="42" y="306"/>
			<point x="42" y="116" type="curve" smooth="yes"/>
			<point x="42" y="73" type="line"/>
			<point x="71" y="44"/>
			<point x="206" y="7"/>
			<point x="261" y="7" type="curve" smooth="yes"/>
			<point x="268" y="7"/>
			<point x="274" y="8"/>
		</contour>
		<contour>
			<point x="305" y="328" type="curve" smooth="yes"/>
			<point x="520" y="328"/>
			<point x="618" y="430"/>
			<point x="618" y="530" type="curve" smooth="yes"/>
			<point x="618" y="628"/>
			<point x="526" y="724"/>
			<point x="358" y="724" type="curve" smooth="yes"/>
			<point x="268" y="724"/>
			<point x="176" y="711"/>
			<point x="87" y="693" type="curve"/>
			<point x="86" y="686"/>
			<point x="86" y="679"/>
			<point x="86" y="672" type="curve" smooth="yes"/>
			<point x="86" y="624"/>
			<point x="102" y="566"/>
			<point x="119" y="531" type="curve"/>
			<point x="176" y="546"/>
			<point x="285" y="562"/>
			<point x="333" y="562" type="curve" smooth="yes"/>
			<point x="379" y="562"/>
			<point x="401" y="533"/>
			<point x="401" y="501" type="curve" smooth="yes"/>
			<point x="401" y="464"/>
			<point x="371" y="424"/>
			<point x="313" y="424" type="curve" smooth="yes"/>
			<point x="281" y="424"/>
			<point x="269" y="404"/>
			<point x="269" y="383" type="curve" smooth="yes"/>
			<point x="269" y="357"/>
			<point x="286" y="328"/>
		</contour>
	</outline>
</glyph>
<glyph name="C" format="2">
	<advance width="660"/>
	<unicode hex="0043"/>
	<anchor x="328" y="0" name="bottom"/>
	<outline>
		<contour>
			<point x="31" y="104"/>
			<point x="164" y="-19"/>
			<point x="327" y="-19" type="curve" smooth="yes"/>
			<point x="423" y="-19"/>
			<point x="529" y="23"/>
			<point x="625" y="115" type="curve"/>
			<point x="602" y="160"/>
			<point x="576" y="219"/>
			<point x="565" y="236" type="curve"/>
			<point x="522" y="208"/>
			<point x="476" y="194"/>
			<point x="433" y="194" type="curve" smooth="yes"/>
			<point x="351" y="194"/>
			<point x="284" y="245"/>
			<point x="284" y="340" type="curve" smooth="yes"/>
			<point x="284" y="460"/>
			<point x="336" y="505"/>
			<point x="382" y="505" type="curve" smooth="yes"/>
			<point x="418" y="505"/>
			<point x="450" y="477"/>
			<point x="450" y="438" type="curve" smooth="yes"/>
			<point x="450" y="407"/>
			<point x="476" y="388"/>
			<point x="508" y="388" type="curve" smooth="yes"/>
			<point x="552" y="388"/>
			<point x="606" y="426"/>
			<point x="606" y="517" type="curve" smooth="yes"/>
			<point x="606" y="654"/>
			<point x="499" y="728"/>
			<point x="377" y="728" type="curve" smooth="yes"/>
			<point x="216" y="728"/>
			<point x="31" y="600"/>
			<point x="31" y="319" type="curve" smooth="yes"/>
		</contour>
	</outline>
</glyph>
<glyph name="D" format="2">
	<advance width="707"/>
	<unicode hex="0044"/>
	<outline>
		<contour>
			<point x="75" y="51" type="curve" smooth="yes"/>
			<point x="175" y="5"/>
			<point x="262" y="-15"/>
			<point x="336" y="-15" type="curve" smooth="yes"/>
			<point x="570" y="-15"/>
			<point x="677" y="183"/>
			<point x="677" y="371" type="curve" smooth="yes"/>
			<point x="677" y="604"/>
			<point x="532" y="724"/>
			<point x="322" y="724" type="curve" smooth="yes"/>
			<point x="250" y="724"/>
			<point x="170" y="710"/>
			<point x="85" y="681" type="curve"/>
			<point x="85" y="612"/>
			<point x="118" y="523"/>
			<point x="137" y="483" type="curve"/>
			<point x="209" y="523"/>
			<point x="276" y="545"/>
			<point x="330" y="545" type="curve" smooth="yes"/>
			<point x="405" y="545"/>
			<point x="454" y="503"/>
			<point x="454" y="408" type="curve" smooth="yes"/>
			<point x="454" y="394"/>
			<point x="453" y="378"/>
			<point x="451" y="361" type="curve" smooth="yes"/>
			<point x="437" y="260"/>
			<point x="378" y="157"/>
			<point x="298" y="157" type="curve" smooth="yes"/>
			<point x="227" y="157"/>
			<point x="43" y="66"/>
		</contour>
		<contour>
			<point x="291" y="0" type="curve"/>
			<point x="298" y="178"/>
			<point x="313" y="318"/>
			<point x="339" y="490" type="curve"/>
			<point x="293" y="515"/>
			<point x="159" y="550"/>
			<point x="101" y="549" type="curve"/>
			<point x="70" y="385"/>
			<point x="55" y="257"/>
			<point x="54" y="64" type="curve"/>
			<point x="85" y="35"/>
			<point x="221" y="-2"/>
			<point x="276" y="-2" type="curve" smooth="yes"/>
			<point x="282" y="-2"/>
			<point x="287" y="-1"/>
		</contour>
	</outline>
</glyph>
<glyph name="E" format="2">
	<advance width="640"/>
	<unicode hex="0045"/>
	<anchor x="346" y="723" name="top"/>
	<outline>
		<contour>
			<point x="304" y="-5" type="curve"/>
			<point x="300" y="198"/>
			<point x="308" y="425"/>
			<point x="331" y="588" type="curve"/>
			<point x="298" y="621"/>
			<point x="151" y="648"/>
			<point x="93" y="647" type="curve"/>
			<point x="54" y="481"/>
			<point x="45" y="244"/>
			<point x="48" y="44" type="curve"/>
			<point x="81" y="12"/>
			<point x="266" y="-15"/>
		</contour>
		<contour>
			<point x="87" y="-26" type="curve"/>
			<point x="248" y="-9"/>
			<point x="397" y="-1"/>
			<point x="573" y="-7" type="curve"/>
			<point x="579" y="44"/>
			<point x="590" y="121"/>
			<point x="570" y="179" type="curve"/>
			<point x="392" y="179"/>
			<point x="201" y="158"/>
			<point x="58" y="139" type="curve"/>
			<point x="51" y="90"/>
			<point x="60" y="5"/>
		</contour>
		<contour>
			<point x="312" y="254" type="curve"/>
			<point x="373" y="268"/>
			<point x="438" y="270"/>
			<point x="503" y="263" type="curve"/>
			<point x="505" y="306"/>
			<point x="502" y="368"/>
			<point x="490" y="431" type="curve"/>
			<point x="436" y="439"/>
			<point x="346" y="437"/>
			<point x="292" y="425" type="curve"/>
			<point x="289" y="383"/>
			<point x="303" y="281"/>
		</contour>
		<contour>
			<point x="117" y="524" type="curve"/>
			<point x="277" y="540"/>
			<point x="426" y="529"/>
			<point x="602" y="524" type="curve"/>
			<point x="608" y="575"/>
			<point x="619" y="643"/>
			<point x="599" y="701" type="curve"/>
			<point x="436" y="725"/>
			<point x="230" y="725"/>
			<point x="88" y="706" type="curve"/>
			<point x="80" y="657"/>
			<point x="95" y="563"/>
		</contour>
	</outline>
</glyph>
<glyph name="F" format="2">
	<advance width="615"/>
	<unicode hex="0046"/>
	<outline>
		<contour>
			<point x="322" y="-18" type="curve"/>
			<point x="321" y="17"/>
			<point x="320" y="52"/>
			<point x="320" y="87" type="curve" smooth="yes"/>
			<point x="320" y="229"/>
			<point x="331" y="362"/>
			<point x="347" y="463" type="curve"/>
			<point x="315" y="496"/>
			<point x="192" y="529"/>
			<point x="109" y="532" type="curve"/>
			<point x="90" y="408"/>
			<point x="84" y="296"/>
			<point x="84" y="151" type="curve" smooth="yes"/>
			<point x="84" y="118"/>
			<point x="84" y="83"/>
			<point x="85" y="46" type="curve"/>
			<point x="114" y="17"/>
			<point x="249" y="-20"/>
			<point x="305" y="-20" type="curve" smooth="yes"/>
			<point x="312" y="-20"/>
			<point x="318" y="-19"/>
		</contour>
		<contour>
			<point x="153" y="214" type="curve"/>
			<point x="255" y="220"/>
			<point x="344" y="234"/>
			<point x="440" y="234" type="curve" smooth="yes"/>
			<point x="464" y="234"/>
			<point x="489" y="233"/>
			<point x="514" y="231" type="curve"/>
			<point x="517" y="253"/>
			<point x="518" y="278"/>
			<point x="518" y="306" type="curve" smooth="yes"/>
			<point x="518" y="333"/>
			<point x="517" y="362"/>
			<point x="512" y="390" type="curve"/>
			<point x="444" y="398"/>
			<point x="370" y="402"/>
			<point x="299" y="402" type="curve" smooth="yes"/>
			<point x="240" y="402"/>
			<point x="182" y="399"/>
			<point x="131" y="394" type="curve"/>
			<point x="130" y="385"/>
			<point x="129" y="372"/>
			<point x="129" y="358" type="curve" smooth="yes"/>
			<point x="129" y="307"/>
			<point x="137" y="235"/>
		</contour>
		<contour>
			<point x="117" y="498" type="curve"/>
			<point x="243" y="511"/>
			<point x="362" y="519"/>
			<point x="493" y="519" type="curve" smooth="yes"/>
			<point x="529" y="519"/>
			<point x="565" y="518"/>
			<point x="602" y="517" type="curve"/>
			<point x="606" y="545"/>
			<point x="611" y="582"/>
			<point x="611" y="619" type="curve" smooth="yes"/>
			<point x="611" y="648"/>
			<point x="608" y="678"/>
			<point x="599" y="703" type="curve"/>
			<point x="513" y="715"/>
			<point x="414" y="721"/>
			<point x="319" y="721" type="curve" smooth="yes"/>
			<point x="235" y="721"/>
			<point x="155" y="716"/>
			<point x="88" y="708" type="curve"/>
			<point x="86" y="697"/>
			<point x="85" y="682"/>
			<point x="85" y="665" type="curve" smooth="yes"/>
			<point x="85" y="605"/>
			<point x="96" y="522"/>
		</contour>
	</outline>
</glyph>
<glyph name="G" format="2">
	<advance width="672"/>
	<unicode hex="0047"/>
	<outline>
		<contour>
			<point x="603" y="240" type="curve"/>
			<point x="594" y="258"/>
			<point x="575" y="263"/>
			<point x="554" y="263" type="curve" smooth="yes"/>
			<point x="535" y="263"/>
			<point x="516" y="259"/>
			<point x="503" y="259" type="curve" smooth="yes"/>
			<point x="495" y="259"/>
			<point x="490" y="260"/>
			<point x="488" y="264" type="curve"/>
			<point x="475" y="204"/>
			<point x="430" y="172"/>
			<point x="384" y="172" type="curve" smooth="yes"/>
			<point x="331" y="172"/>
			<point x="279" y="215"/>
			<point x="279" y="307" type="curve" smooth="yes"/>
			<point x="279" y="449"/>
			<point x="343" y="516"/>
			<point x="392" y="516" type="curve" smooth="yes"/>
			<point x="422" y="516"/>
			<point x="446" y="491"/>
			<point x="446" y="443" type="curve" smooth="yes"/>
			<point x="446" y="408"/>
			<point x="467" y="392"/>
			<point x="494" y="392" type="curve" smooth="yes"/>
			<point x="541" y="392"/>
			<point x="604" y="440"/>
			<point x="604" y="520" type="curve" smooth="yes"/>
			<point x="604" y="637"/>
			<point x="503" y="704"/>
			<point x="385" y="704" type="curve" smooth="yes"/>
			<point x="222" y="704"/>
			<point x="26" y="575"/>
			<point x="26" y="271" type="curve" smooth="yes"/>
			<point x="26" y="77"/>
			<point x="170" y="-17"/>
			<point x="315" y="-17" type="curve" smooth="yes"/>
			<point x="453" y="-17"/>
			<point x="592" y="70"/>
		</contour>
		<contour>
			<point x="648" y="223" type="curve"/>
			<point x="651" y="242"/>
			<point x="653" y="264"/>
			<point x="653" y="289" type="curve" smooth="yes"/>
			<point x="653" y="308"/>
			<point x="652" y="329"/>
			<point x="650" y="350" type="curve"/>
			<point x="577" y="359"/>
			<point x="520" y="364"/>
			<point x="458" y="364" type="curve" smooth="yes"/>
			<point x="430" y="364"/>
			<point x="402" y="363"/>
			<point x="371" y="361" type="curve"/>
			<point x="369" y="351"/>
			<point x="368" y="340"/>
			<point x="368" y="327" type="curve" smooth="yes"/>
			<point x="368" y="289"/>
			<point x="376" y="242"/>
			<point x="388" y="215" type="curve"/>
			<point x="452" y="222"/>
			<point x="506" y="225"/>
			<point x="561" y="225" type="curve" smooth="yes"/>
			<point x="589" y="225"/>
			<point x="618" y="224"/>
		</contour>
	</outline>
</glyph>
<glyph name="H" format="2">
	<advance width="741"/>
	<unicode hex="0048"/>
	<outline>
		<contour>
			<point x="276" y="-18" type="curve"/>
			<point x="284" y="211"/>
			<point x="298" y="442"/>
			<point x="344" y="663" type="curve"/>
			<point x="311" y="696"/>
			<point x="163" y="723"/>
			<point x="105" y="722" type="curve"/>
			<point x="65" y="549"/>
			<point x="39" y="275"/>
			<point x="39" y="77" type="curve" smooth="yes"/>
			<point x="39" y="46" type="line"/>
			<point x="98" y="14"/>
			<point x="202" y="-12"/>
		</contour>
		<contour>
			<point x="321" y="238" type="curve"/>
			<point x="359" y="246"/>
			<point x="419" y="252"/>
			<point x="459" y="252" type="curve" smooth="yes"/>
			<point x="468" y="252"/>
			<point x="477" y="252"/>
			<point x="483" y="251" type="curve"/>
			<point x="483" y="279"/>
			<point x="485" y="309"/>
			<point x="485" y="340" type="curve" smooth="yes"/>
			<point x="485" y="375"/>
			<point x="483" y="409"/>
			<point x="471" y="440" type="curve"/>
			<point x="442" y="444"/>
			<point x="361" y="452"/>
			<point x="305" y="452" type="curve" smooth="yes"/>
			<point x="294" y="452"/>
			<point x="284" y="452"/>
			<point x="276" y="451" type="curve"/>
			<point x="284" y="386"/>
			<point x="297" y="280"/>
		</contour>
		<contour>
			<point x="673" y="-17" type="curve"/>
			<point x="681" y="212"/>
			<point x="696" y="445"/>
			<point x="740" y="669" type="curve"/>
			<point x="707" y="702"/>
			<point x="560" y="729"/>
			<point x="502" y="727" type="curve"/>
			<point x="462" y="557"/>
			<point x="436" y="278"/>
			<point x="436" y="79" type="curve" smooth="yes"/>
			<point x="436" y="48" type="line"/>
			<point x="486" y="16"/>
			<point x="609" y="-19"/>
		</contour>
	</outline>
</glyph>
<glyph name="I" format="2">
	<advance width="344"/>
	<unicode hex="0049"/>
	<anchor x="229" y="736" name="top"/>
	<outline>
		<contour>
			<point x="276" y="-18" type="curve"/>
			<point x="284" y="210"/>
			<point x="299" y="439"/>
			<point x="344" y="663" type="curve"/>
			<point x="311" y="696"/>
			<point x="163" y="723"/>
			<point x="105" y="722" type="curve"/>
			<point x="64" y="543"/>
			<point x="36" y="246"/>
			<point x="39" y="46" type="curve"/>
			<point x="73" y="14"/>
			<point x="238" y="-29"/>
		</contour>
	</outline>
</glyph>
<glyph name="J" format="2">
	<advance width="612"/>
	<unicode hex="004A"/>
	<outline>
		<contour>
			<point x="376" y="728" type="curve"/>
			<point x="365" y="510"/>
			<point x="349" y="305"/>
			<point x="320" y="129" type="curve" smooth="yes"/>
			<point x="310" y="70"/>
			<point x="245" y="78"/>
			<point x="246" y="133" type="curve" smooth="yes"/>
			<point x="247" y="194"/>
			<point x="211" y="252"/>
			<point x="156" y="252" type="curve" smooth="yes"/>
			<point x="96" y="252"/>
			<point x="30" y="214"/>
			<point x="30" y="149" type="curve" smooth="yes"/>
			<point x="30" y="-80"/>
			<point x="521" y="-89"/>
			<point x="563" y="209" type="curve" smooth="yes"/>
			<point x="581" y="337"/>
			<point x="598" y="492"/>
			<point x="614" y="666" type="curve"/>
			<point x="582" y="698"/>
			<point x="434" y="730"/>
		</contour>
	</outline>
</glyph>
<glyph name="K" format="2">
	<advance width="745"/>
	<unicode hex="004B"/>
	<outline>
		<contour>
			<point x="496" y="-22" type="curve"/>
			<point x="561" y="-4"/>
			<point x="653" y="71"/>
			<point x="690" y="111" type="curve"/>
			<point x="649" y="170"/>
			<point x="577" y="279"/>
			<point x="515" y="326" type="curve"/>
			<point x="581" y="387"/>
			<point x="657" y="519"/>
			<point x="702" y="606" type="curve"/>
			<point x="664" y="649"/>
			<point x="573" y="701"/>
			<point x="513" y="719" type="curve"/>
			<point x="456" y="617"/>
			<point x="357" y="446"/>
			<point x="267" y="343" type="curve"/>
			<point x="350" y="264"/>
			<point x="449" y="88"/>
		</contour>
		<contour>
			<point x="293" y="-15" type="curve"/>
			<point x="292" y="186"/>
			<point x="328" y="472"/>
			<point x="360" y="657" type="curve"/>
			<point x="326" y="692"/>
			<point x="168" y="721"/>
			<point x="107" y="719" type="curve"/>
			<point x="66" y="560"/>
			<point x="34" y="242"/>
			<point x="41" y="54" type="curve"/>
			<point x="100" y="1"/>
			<point x="231" y="-15"/>
		</contour>
	</outline>
</glyph>
<glyph name="L" format="2">
	<advance width="616"/>
	<unicode hex="004C"/>
	<outline>
		<contour>
			<point x="286" y="173" type="curve"/>
			<point x="289" y="298"/>
			<point x="323" y="529"/>
			<point x="355" y="663" type="curve"/>
			<point x="306" y="696"/>
			<point x="175" y="723"/>
			<point x="117" y="722" type="curve"/>
			<point x="78" y="552"/>
			<point x="49" y="371"/>
			<point x="49" y="237" type="curve"/>
			<point x="83" y="205"/>
			<point x="248" y="162"/>
		</contour>
		<contour>
			<point x="63" y="-21" type="curve"/>
			<point x="223" y="-4"/>
			<point x="373" y="3"/>
			<point x="549" y="-2" type="curve"/>
			<point x="555" y="48"/>
			<point x="565" y="126"/>
			<point x="545" y="184" type="curve"/>
			<point x="382" y="207"/>
			<point x="177" y="207"/>
			<point x="34" y="189" type="curve"/>
			<point x="27" y="139"/>
			<point x="36" y="10"/>
		</contour>
	</outline>
</glyph>
<glyph name="M" format="2">
	<advance width="882"/>
	<unicode hex="004D"/>
	<outline>
		<contour>
			<point x="524" y="148" type="curve"/>
			<point x="572" y="304"/>
			<point x="627" y="430"/>
			<point x="672" y="523" type="curve" smooth="yes"/>
			<point x="743" y="669"/>
			<point x="660" y="710"/>
			<point x="643" y="722" type="curve"/>
			<point x="566" y="584"/>
			<point x="501" y="490"/>
			<point x="455" y="330" type="curve"/>
			<point x="407" y="429"/>
			<point x="377" y="530"/>
			<point x="343" y="663" type="curve"/>
			<point x="310" y="622"/>
			<point x="269" y="525"/>
			<point x="277" y="463" type="curve" smooth="yes"/>
			<point x="291" y="358"/>
			<point x="312" y="293"/>
			<point x="363" y="188" type="curve"/>
			<point x="382" y="168"/>
			<point x="469" y="151"/>
		</contour>
		<contour>
			<point x="276" y="-16" type="curve"/>
			<point x="284" y="212"/>
			<point x="299" y="439"/>
			<point x="343" y="663" type="curve"/>
			<point x="310" y="696"/>
			<point x="163" y="723"/>
			<point x="105" y="722" type="curve"/>
			<point x="63" y="540"/>
			<point x="36" y="248"/>
			<point x="39" y="48" type="curve"/>
			<point x="72" y="16"/>
			<point x="238" y="-27"/>
		</contour>
		<contour>
			<point x="814" y="-16" type="curve"/>
			<point x="822" y="213"/>
			<point x="837" y="440"/>
			<point x="882" y="664" type="curve"/>
			<point x="849" y="697"/>
			<point x="701" y="724"/>
			<point x="643" y="722" type="curve"/>
			<point x="602" y="543"/>
			<point x="574" y="249"/>
			<point x="577" y="49" type="curve"/>
			<point x="611" y="17"/>
			<point x="776" y="-26"/>
		</contour>
	</outline>
</glyph>
<glyph name="N" format="2">
	<advance width="742"/>
	<unicode hex="004E"/>
	<anchor x="402" y="723" name="top"/>
	<outline>
		<contour>
			<point x="276" y="-19" type="curve"/>
			<point x="284" y="209"/>
			<point x="299" y="440"/>
			<point x="344" y="664" type="curve"/>
			<point x="311" y="697"/>
			<point x="163" y="724"/>
			<point x="105" y="723" type="curve"/>
			<point x="65" y="550"/>
			<point x="39" y="275"/>
			<point x="39" y="76" type="curve" smooth="yes"/>
			<point x="39" y="45" type="line"/>
			<point x="69" y="16"/>
			<point x="204" y="-21"/>
			<point x="259" y="-21" type="curve" smooth="yes"/>
			<point x="266" y="-21"/>
			<point x="272" y="-20"/>
		</contour>
		<contour>
			<point x="437" y="46" type="curve"/>
			<point x="457" y="79"/>
			<point x="473" y="137"/>
			<point x="473" y="195" type="curve" smooth="yes"/>
			<point x="473" y="220"/>
			<point x="470" y="245"/>
			<point x="463" y="268" type="curve" smooth="yes"/>
			<point x="430" y="377"/>
			<point x="378" y="532"/>
			<point x="344" y="664" type="curve"/>
			<point x="316" y="630"/>
			<point x="293" y="583"/>
			<point x="293" y="521" type="curve" smooth="yes"/>
			<point x="293" y="508"/>
			<point x="294" y="495"/>
			<point x="296" y="481" type="curve" smooth="yes"/>
			<point x="319" y="326"/>
			<point x="363" y="216"/>
		</contour>
		<contour>
			<point x="674" y="-19" type="curve"/>
			<point x="682" y="210"/>
			<point x="697" y="441"/>
			<point x="741" y="665" type="curve"/>
			<point x="708" y="698"/>
			<point x="561" y="725"/>
			<point x="503" y="723" type="curve"/>
			<point x="463" y="553"/>
			<point x="437" y="276"/>
			<point x="437" y="77" type="curve" smooth="yes"/>
			<point x="437" y="46" type="line"/>
			<point x="467" y="17"/>
			<point x="604" y="-20"/>
			<point x="659" y="-20" type="curve" smooth="yes"/>
			<point x="665" y="-20"/>
			<point x="670" y="-20"/>
		</contour>
	</outline>
</glyph>
<glyph name="O" format="2">
	<advance width="696"/>
	<unicode hex="004F"/>
	<anchor x="404" y="750" name="top"/>
	<outline>
		<contour>
			<point x="339" y="-18" type="curve" smooth="yes"/>
			<point x="529" y="-18"/>
			<point x="689" y="172"/>
			<point x="689" y="393" type="curve" smooth="yes"/>
			<point x="689" y="611"/>
			<point x="592" y="723"/>
			<point x="404" y="723" type="curve" smooth="yes"/>
			<point x="149" y="723"/>
			<point x="28" y="530"/>
			<point x="28" y="287" type="curve" smooth="yes"/>
			<point x="28" y="120"/>
			<point x="136" y="-18"/>
		</contour>
		<contour>
			<point x="368" y="215" type="curve" smooth="yes"/>
			<point x="323" y="215"/>
			<point x="297" y="253"/>
			<point x="297" y="315" type="curve" smooth="yes"/>
			<point x="297" y="421"/>
			<point x="333" y="508"/>
			<point x="394" y="508" type="curve" smooth="yes"/>
			<point x="440" y="508"/>
			<point x="466" y="453"/>
			<point x="467" y="397" type="curve" smooth="yes"/>
			<point x="468" y="306"/>
			<point x="428" y="215"/>
		</contour>
	</outline>
</glyph>
<glyph name="P" format="2">
	<advance width="607"/>
	<unicode hex="0050"/>
	<outline>
		<contour>
			<point x="270" y="231" type="curve" smooth="yes"/>
			<point x="502" y="221"/>
			<point x="611" y="366"/>
			<point x="611" y="502" type="curve" smooth="yes"/>
			<point x="611" y="617"/>
			<point x="532" y="725"/>
			<point x="381" y="725" type="curve" smooth="yes"/>
			<point x="262" y="725"/>
			<point x="152" y="710"/>
			<point x="86" y="690" type="curve"/>
			<point x="86" y="640"/>
			<point x="105" y="545"/>
			<point x="125" y="494" type="curve"/>
			<point x="182" y="528"/>
			<point x="242" y="546"/>
			<point x="303" y="546" type="curve" smooth="yes"/>
			<point x="365" y="546"/>
			<point x="394" y="503"/>
			<point x="394" y="458" type="curve" smooth="yes"/>
			<point x="394" y="411"/>
			<point x="360" y="361"/>
			<point x="297" y="361" type="curve" smooth="yes"/>
			<point x="258" y="361"/>
			<point x="243" y="324"/>
			<point x="243" y="289" type="curve" smooth="yes"/>
			<point x="243" y="259"/>
			<point x="254" y="232"/>
		</contour>
		<contour>
			<point x="282" y="-20" type="curve"/>
			<point x="282" y="19" type="line" smooth="yes"/>
			<point x="282" y="159"/>
			<point x="295" y="382"/>
			<point x="316" y="498" type="curve"/>
			<point x="283" y="531"/>
			<point x="138" y="558"/>
			<point x="80" y="557" type="curve"/>
			<point x="52" y="386"/>
			<point x="45" y="201"/>
			<point x="45" y="44" type="curve"/>
			<point x="75" y="15"/>
			<point x="188" y="-22"/>
			<point x="258" y="-22" type="curve" smooth="yes"/>
			<point x="267" y="-22"/>
			<point x="275" y="-21"/>
		</contour>
	</outline>
</glyph>
<glyph name="Q" format="2">
	<advance width="762"/>
	<unicode hex="0051"/>
	<outline>
		<contour>
			<point x="561" y="-47" type="curve"/>
			<point x="597" y="-31"/>
			<point x="679" y="41"/>
			<point x="704" y="80" type="curve"/>
			<point x="597" y="167"/>
			<point x="519" y="239"/>
			<point x="448" y="336" type="curve"/>
			<point x="412" y="315"/>
			<point x="399" y="304"/>
			<point x="369" y="278" type="curve"/>
			<point x="417" y="165"/>
			<point x="486" y="46"/>
		</contour>
		<component base="O"/>
	</outline>
</glyph>
<glyph name="R" format="2">
	<advance width="739"/>
	<unicode hex="0052"/>
	<outline>
		<contour>
			<point x="268" y="232" type="curve" smooth="yes"/>
			<point x="499" y="222"/>
			<point x="624" y="353"/>
			<point x="624" y="483" type="curve" smooth="yes"/>
			<point x="624" y="632"/>
			<point x="511" y="725"/>
			<point x="328" y="725" type="curve" smooth="yes"/>
			<point x="256" y="725"/>
			<point x="175" y="711"/>
			<point x="85" y="681" type="curve"/>
			<point x="85" y="622"/>
			<point x="104" y="534"/>
			<point x="129" y="483" type="curve"/>
			<point x="188" y="515"/>
			<point x="245" y="531"/>
			<point x="292" y="531" type="curve" smooth="yes"/>
			<point x="356" y="531"/>
			<point x="400" y="502"/>
			<point x="400" y="445" type="curve" smooth="yes"/>
			<point x="400" y="383"/>
			<point x="358" y="355"/>
			<point x="283" y="355" type="curve" smooth="yes"/>
			<point x="249" y="355"/>
			<point x="236" y="326"/>
			<point x="236" y="297" type="curve" smooth="yes"/>
			<point x="236" y="265"/>
			<point x="250" y="233"/>
		</contour>
		<contour>
			<point x="281" y="-21" type="curve"/>
			<point x="281" y="174"/>
			<point x="293" y="339"/>
			<point x="324" y="500" type="curve"/>
			<point x="291" y="533"/>
			<point x="144" y="560"/>
			<point x="86" y="559" type="curve"/>
			<point x="59" y="411"/>
			<point x="44" y="242"/>
			<point x="44" y="84" type="curve" smooth="yes"/>
			<point x="44" y="43" type="line"/>
			<point x="77" y="11"/>
			<point x="206" y="-21"/>
		</contour>
		<contour>
			<point x="492" y="-35" type="curve"/>
			<point x="561" y="-9"/>
			<point x="640" y="49"/>
			<point x="682" y="92" type="curve"/>
			<point x="622" y="138"/>
			<point x="541" y="239"/>
			<point x="492" y="324" type="curve"/>
			<point x="308" y="272" type="line"/>
			<point x="364" y="159"/>
			<point x="425" y="55"/>
		</contour>
	</outline>
</glyph>
<glyph name="S" format="2">
	<advance width="663"/>
	<unicode hex="0053"/>
	<anchor x="374" y="750" name="top"/>
	<outline>
		<contour>
			<point x="88" y="517" type="curve" smooth="yes"/>
			<point x="88" y="272"/>
			<point x="346" y="286"/>
			<point x="346" y="200" type="curve" smooth="yes"/>
			<point x="346" y="180"/>
			<point x="330" y="167"/>
			<point x="301" y="167" type="curve" smooth="yes"/>
			<point x="253" y="167"/>
			<point x="176" y="196"/>
			<point x="99" y="272" type="curve"/>
			<point x="64" y="233"/>
			<point x="24" y="171"/>
			<point x="7" y="128" type="curve"/>
			<point x="68" y="39"/>
			<point x="187" y="-19"/>
			<point x="339" y="-19" type="curve" smooth="yes"/>
			<point x="516" y="-19"/>
			<point x="617" y="46"/>
			<point x="617" y="197" type="curve" smooth="yes"/>
			<point x="617" y="356"/>
			<point x="350" y="360"/>
			<point x="350" y="497" type="curve" smooth="yes"/>
			<point x="350" y="534"/>
			<point x="372" y="552"/>
			<point x="397" y="552" type="curve" smooth="yes"/>
			<point x="432" y="552"/>
			<point x="463" y="525"/>
			<point x="469" y="478" type="curve" smooth="yes"/>
			<point x="476" y="427"/>
			<point x="517" y="407"/>
			<point x="563" y="407" type="curve" smooth="yes"/>
			<point x="615" y="407"/>
			<point x="668" y="439"/>
			<point x="668" y="501" type="curve" smooth="yes"/>
			<point x="668" y="656"/>
			<point x="542" y="724"/>
			<point x="407" y="724" type="curve" smooth="yes"/>
			<point x="192" y="724"/>
			<point x="88" y="642"/>
		</contour>
	</outline>
</glyph>
<glyph name="T" format="2">
	<advance width="663"/>
	<unicode hex="0054"/>
	<outline>
		<contour>
			<point x="454" y="-16" type="curve"/>
			<point x="457" y="128"/>
			<point x="470" y="348"/>
			<point x="492" y="491" type="curve"/>
			<point x="454" y="521"/>
			<point x="314" y="551"/>
			<point x="256" y="550" type="curve" smooth="yes"/>
			<point x="232" y="407"/>
			<point x="214" y="205"/>
			<point x="217" y="48" type="curve"/>
			<point x="251" y="16"/>
			<point x="416" y="-27"/>
		</contour>
		<contour>
			<point x="97" y="514" type="curve"/>
			<point x="290" y="533"/>
			<point x="463" y="543"/>
			<point x="681" y="523" type="curve"/>
			<point x="688" y="573"/>
			<point x="691" y="645"/>
			<point x="676" y="709" type="curve"/>
			<point x="472" y="733"/>
			<point x="238" y="742"/>
			<point x="60" y="724" type="curve"/>
			<point x="51" y="675"/>
			<point x="70" y="561"/>
		</contour>
	</outline>
</glyph>
<glyph name="U" format="2">
	<advance width="743"/>
	<unicode hex="0055"/>
	<anchor x="428" y="750" name="top"/>
	<outline>
		<contour>
			<point x="444" y="178" type="curve" smooth="yes"/>
			<point x="435" y="124"/>
			<point x="399" y="96"/>
			<point x="366" y="96" type="curve" smooth="yes"/>
			<point x="335" y="96"/>
			<point x="308" y="121"/>
			<point x="310" y="171" type="curve" smooth="yes"/>
			<point x="319" y="328"/>
			<point x="331" y="476"/>
			<point x="368" y="665" type="curve"/>
			<point x="307" y="697"/>
			<point x="180" y="721"/>
			<point x="108" y="723" type="curve"/>
			<point x="67" y="542"/>
			<point x="47" y="367"/>
			<point x="47" y="202" type="curve" smooth="yes"/>
			<point x="47" y="58"/>
			<point x="207" y="-19"/>
			<point x="367" y="-19" type="curve" smooth="yes"/>
			<point x="512" y="-19"/>
			<point x="657" y="44"/>
			<point x="683" y="178" type="curve" smooth="yes"/>
			<point x="715" y="341"/>
			<point x="724" y="438"/>
			<point x="744" y="655" type="curve"/>
			<point x="710" y="680"/>
			<point x="564" y="725"/>
			<point x="506" y="724" type="curve"/>
			<point x="487" y="522"/>
			<point x="475" y="367"/>
		</contour>
	</outline>
</glyph>
<glyph name="V" format="2">
	<advance width="821"/>
	<unicode hex="0056"/>
	<outline>
		<contour>
			<point x="296" y="-17" type="curve"/>
			<point x="377" y="-22"/>
			<point x="505" y="-19"/>
			<point x="575" y="9" type="curve"/>
			<point x="493" y="181"/>
			<point x="375" y="553"/>
			<point x="328" y="725" type="curve"/>
			<point x="265" y="728"/>
			<point x="138" y="703"/>
			<point x="85" y="676" type="curve"/>
			<point x="131" y="453"/>
			<point x="215" y="157"/>
		</contour>
		<contour>
			<point x="575" y="9" type="curve"/>
			<point x="630" y="215"/>
			<point x="711" y="424"/>
			<point x="819" y="614" type="curve"/>
			<point x="771" y="656"/>
			<point x="678" y="704"/>
			<point x="609" y="726" type="curve"/>
			<point x="515" y="533"/>
			<point x="450" y="294"/>
			<point x="411" y="89" type="curve"/>
			<point x="450" y="42"/>
			<point x="519" y="28"/>
		</contour>
	</outline>
</glyph>
<glyph name="W" format="2">
	<advance width="1215"/>
	<unicode hex="0057"/>
	<outline>
		<contour>
			<point x="310" y="-22" type="curve"/>
			<point x="402" y="-21"/>
			<point x="505" y="0"/>
			<point x="575" y="28" type="curve"/>
			<point x="472" y="241"/>
			<point x="379" y="511"/>
			<point x="328" y="724" type="curve"/>
			<point x="265" y="727"/>
			<point x="138" y="705"/>
			<point x="85" y="678" type="curve"/>
			<point x="131" y="455"/>
			<point x="229" y="152"/>
		</contour>
		<contour>
			<point x="575" y="28" type="curve"/>
			<point x="585" y="173"/>
			<point x="620" y="320"/>
			<point x="692" y="428" type="curve"/>
			<point x="632" y="468"/>
			<point x="575" y="494"/>
			<point x="520" y="514" type="curve"/>
			<point x="481" y="354"/>
			<point x="462" y="229"/>
			<point x="462" y="76" type="curve"/>
			<point x="504" y="36"/>
			<point x="520" y="48"/>
		</contour>
		<contour>
			<point x="704" y="-22" type="curve"/>
			<point x="801" y="-18"/>
			<point x="898" y="0"/>
			<point x="969" y="28" type="curve"/>
			<point x="887" y="200"/>
			<point x="802" y="402"/>
			<point x="755" y="574" type="curve"/>
			<point x="691" y="578"/>
			<point x="572" y="541"/>
			<point x="520" y="514" type="curve"/>
			<point x="565" y="291"/>
			<point x="623" y="152"/>
		</contour>
		<contour>
			<point x="969" y="28" type="curve"/>
			<point x="1015" y="224"/>
			<point x="1097" y="424"/>
			<point x="1213" y="614" type="curve"/>
			<point x="1167" y="665"/>
			<point x="1059" y="708"/>
			<point x="1003" y="726" type="curve"/>
			<point x="917" y="515"/>
			<point x="854" y="327"/>
			<point x="819" y="100" type="curve"/>
			<point x="867" y="62"/>
			<point x="913" y="47"/>
		</contour>
	</outline>
</glyph>
<glyph name="X" format="2">
	<advance width="767"/>
	<unicode hex="0058"/>
	<outline>
		<contour>
			<point x="523" y="-25" type="curve"/>
			<point x="588" y="-15"/>
			<point x="691" y="28"/>
			<point x="738" y="66" type="curve"/>
			<point x="609" y="221"/>
			<point x="384" y="563"/>
			<point x="291" y="735" type="curve"/>
			<point x="210" y="723"/>
			<point x="107" y="688"/>
			<point x="51" y="642" type="curve"/>
			<point x="172" y="417"/>
			<point x="403" y="121"/>
		</contour>
		<contour>
			<point x="164" y="-28" type="curve"/>
			<point x="299" y="106"/>
			<point x="623" y="417"/>
			<point x="777" y="603" type="curve"/>
			<point x="738" y="631"/>
			<point x="645" y="697"/>
			<point x="575" y="731" type="curve"/>
			<point x="420" y="535"/>
			<point x="154" y="236"/>
			<point x="4" y="88" type="curve"/>
			<point x="55" y="41"/>
			<point x="107" y="-1"/>
		</contour>
	</outline>
</glyph>
<glyph name="Y" format="2">
	<advance width="764"/>
	<unicode hex="0059"/>
	<anchor x="424" y="750" name="top"/>
	<outline>
		<contour>
			<point x="282" y="297" type="curve"/>
			<point x="356" y="315"/>
			<point x="424" y="337"/>
			<point x="491" y="373" type="curve"/>
			<point x="427" y="456"/>
			<point x="341" y="635"/>
			<point x="308" y="728" type="curve"/>
			<point x="250" y="713"/>
			<point x="130" y="664"/>
			<point x="80" y="635" type="curve"/>
			<point x="117" y="495"/>
			<point x="190" y="388"/>
		</contour>
		<contour>
			<point x="490" y="-20" type="curve"/>
			<point x="489" y="119"/>
			<point x="496" y="232"/>
			<point x="531" y="367" type="curve"/>
			<point x="497" y="388"/>
			<point x="349" y="411"/>
			<point x="291" y="412" type="curve"/>
			<point x="257" y="303"/>
			<point x="240" y="151"/>
			<point x="252" y="29" type="curve"/>
			<point x="286" y="8"/>
			<point x="453" y="-25"/>
		</contour>
		<contour>
			<point x="509" y="264" type="curve"/>
			<point x="564" y="398"/>
			<point x="643" y="484"/>
			<point x="757" y="562" type="curve"/>
			<point x="709" y="625"/>
			<point x="623" y="696"/>
			<point x="574" y="728" type="curve"/>
			<point x="488" y="625"/>
			<point x="427" y="479"/>
			<point x="390" y="354" type="curve"/>
			<point x="423" y="308"/>
			<point x="460" y="297"/>
		</contour>
	</outline>
</glyph>
<glyph name="Z" format="2">
	<advance width="753"/>
	<unicode hex="005A"/>
	<anchor x="425" y="750" name="top"/>
	<outline>
		<contour>
			<point x="302" y="177" type="curve"/>
			<point x="407" y="291"/>
			<point x="533" y="388"/>
			<point x="733" y="530" type="curve"/>
			<point x="701" y="541"/>
			<point x="643" y="552"/>
			<point x="591" y="552" type="curve" smooth="yes"/>
			<point x="561" y="552"/>
			<point x="533" y="548"/>
			<point x="512" y="540" type="curve" smooth="yes"/>
			<point x="360" y="478"/>
			<point x="178" y="315"/>
			<point x="41" y="180" type="curve"/>
			<point x="76" y="173"/>
			<point x="155" y="157"/>
			<point x="219" y="157" type="curve" smooth="yes"/>
			<point x="255" y="157"/>
			<point x="286" y="162"/>
		</contour>
		<contour>
			<point x="78" y="-30" type="curve"/>
			<point x="233" y="-23"/>
			<point x="375" y="-5"/>
			<point x="528" y="-5" type="curve" smooth="yes"/>
			<point x="578" y="-5"/>
			<point x="630" y="-7"/>
			<point x="684" y="-12" type="curve"/>
			<point x="688" y="16"/>
			<point x="694" y="53"/>
			<point x="694" y="89" type="curve" smooth="yes"/>
			<point x="694" y="119"/>
			<point x="690" y="148"/>
			<point x="679" y="174" type="curve"/>
			<point x="570" y="187"/>
			<point x="445" y="193"/>
			<point x="326" y="193" type="curve" smooth="yes"/>
			<point x="223" y="193"/>
			<point x="124" y="188"/>
			<point x="41" y="180" type="curve"/>
			<point x="39" y="170"/>
			<point x="38" y="155"/>
			<point x="38" y="139" type="curve" smooth="yes"/>
			<point x="38" y="80"/>
			<point x="51" y="-6"/>
		</contour>
		<contour>
			<point x="127" y="512" type="curve"/>
			<point x="283" y="518"/>
			<point x="425" y="537"/>
			<point x="580" y="537" type="curve" smooth="yes"/>
			<point x="629" y="537"/>
			<point x="680" y="535"/>
			<point x="733" y="530" type="curve"/>
			<point x="738" y="558"/>
			<point x="744" y="595"/>
			<point x="744" y="632" type="curve" smooth="yes"/>
			<point x="744" y="661"/>
			<point x="740" y="690"/>
			<point x="729" y="716" type="curve"/>
			<point x="620" y="729"/>
			<point x="495" y="735"/>
			<point x="376" y="735" type="curve" smooth="yes"/>
			<point x="273" y="735"/>
			<point x="173" y="730"/>
			<point x="90" y="722" type="curve"/>
			<point x="88" y="711"/>
			<point x="87" y="697"/>
			<point x="87" y="681" type="curve" smooth="yes"/>
			<point x="87" y="621"/>
			<point x="100" y="536"/>
		</contour>
	</outline>
</glyph>
<glyph name="bracketleft" format="2">
	<advance width="532"/>
	<unicode hex="005B"/>
	<outline>
		<contour>
			<point x="222" y="-83" type="curve"/>
			<point x="262" y="86"/>
			<point x="288" y="363"/>
			<point x="288" y="562" type="curve" smooth="yes"/>
			<point x="288" y="593" type="line"/>
			<point x="255" y="626"/>
			<point x="135" y="671"/>
			<point x="87" y="676" type="curve"/>
			<point x="79" y="447"/>
			<point x="56" y="217"/>
			<point x="21" y="-7" type="curve"/>
			<point x="57" y="-35"/>
			<point x="164" y="-75"/>
		</contour>
		<contour>
			<point x="439" y="-145" type="curve"/>
			<point x="450" y="-120"/>
			<point x="458" y="-83"/>
			<point x="458" y="-39" type="curve" smooth="yes"/>
			<point x="458" y="-29"/>
			<point x="458" y="-19"/>
			<point x="457" y="-9" type="curve"/>
			<point x="444" y="-9"/>
			<point x="431" y="-8"/>
			<point x="418" y="-8" type="curve" smooth="yes"/>
			<point x="297" y="-8"/>
			<point x="160" y="-25"/>
			<point x="13" y="-52" type="curve"/>
			<point x="13" y="-82"/>
			<point x="21" y="-115"/>
			<point x="34" y="-124" type="curve"/>
			<point x="58" y="-123"/>
			<point x="84" y="-122"/>
			<point x="112" y="-122" type="curve" smooth="yes"/>
			<point x="217" y="-122"/>
			<point x="345" y="-130"/>
		</contour>
		<contour>
			<point x="531" y="625" type="curve"/>
			<point x="531" y="671"/>
			<point x="522" y="731"/>
			<point x="508" y="778" type="curve"/>
			<point x="414" y="763"/>
			<point x="286" y="755"/>
			<point x="181" y="755" type="curve" smooth="yes"/>
			<point x="153" y="755"/>
			<point x="127" y="756"/>
			<point x="103" y="757" type="curve"/>
			<point x="91" y="737"/>
			<point x="87" y="714"/>
			<point x="87" y="691" type="curve" smooth="yes"/>
			<point x="87" y="683"/>
			<point x="87" y="676"/>
			<point x="88" y="668" type="curve"/>
			<point x="236" y="642"/>
			<point x="373" y="624"/>
			<point x="494" y="624" type="curve" smooth="yes"/>
			<point x="507" y="624"/>
			<point x="519" y="625"/>
		</contour>
	</outline>
</glyph>
<glyph name="backslash" format="2">
	<advance width="612"/>
	<unicode hex="005C"/>
	<outline>
		<contour>
			<point x="288" y="-179" type="curve"/>
			<point x="332" y="-195"/>
			<point x="482" y="-173"/>
			<point x="531" y="-144" type="curve"/>
			<point x="492" y="95"/>
			<point x="403" y="498"/>
			<point x="328" y="732" type="curve"/>
			<point x="268" y="740"/>
			<point x="143" y="717"/>
			<point x="86" y="691" type="curve"/>
			<point x="166" y="439"/>
			<point x="254" y="64"/>
		</contour>
	</outline>
</glyph>
<glyph name="bracketright" format="2">
	<advance width="542"/>
	<unicode hex="005D"/>
	<outline>
		<contour>
			<point x="250" y="-37" type="curve"/>
			<point x="309" y="-40"/>
			<point x="421" y="-22"/>
			<point x="462" y="-1" type="curve"/>
			<point x="471" y="225"/>
			<point x="493" y="424"/>
			<point x="529" y="650" type="curve"/>
			<point x="473" y="650"/>
			<point x="350" y="608"/>
			<point x="314" y="578" type="curve"/>
			<point x="272" y="382"/>
			<point x="244" y="147"/>
		</contour>
		<contour>
			<point x="35" y="-152" type="curve"/>
			<point x="154" y="-133"/>
			<point x="325" y="-125"/>
			<point x="440" y="-131" type="curve"/>
			<point x="454" y="-111"/>
			<point x="462" y="-77"/>
			<point x="457" y="-38" type="curve"/>
			<point x="294" y="-8"/>
			<point x="145" y="9"/>
			<point x="14" y="5" type="curve"/>
			<point x="8" y="-53"/>
			<point x="21" y="-105"/>
		</contour>
		<contour>
			<point x="101" y="608" type="curve"/>
			<point x="231" y="604"/>
			<point x="381" y="622"/>
			<point x="544" y="651" type="curve"/>
			<point x="550" y="685"/>
			<point x="544" y="726"/>
			<point x="529" y="757" type="curve"/>
			<point x="415" y="752"/>
			<point x="243" y="759"/>
			<point x="124" y="778" type="curve"/>
			<point x="111" y="731"/>
			<point x="95" y="667"/>
		</contour>
	</outline>
</glyph>
<glyph name="asciicircum" format="2">
	<advance width="629"/>
	<unicode hex="005E"/>
	<outline>
		<contour>
			<point x="410" y="680" type="curve"/>
			<point x="380" y="699"/>
			<point x="331" y="724"/>
			<point x="284" y="733" type="curve"/>
			<point x="219" y="596"/>
			<point x="135" y="471"/>
			<point x="51" y="352" type="curve"/>
			<point x="82" y="320"/>
			<point x="140" y="278"/>
			<point x="191" y="256" type="curve"/>
			<point x="257" y="351"/>
			<point x="369" y="568"/>
		</contour>
		<contour>
			<point x="602" y="373" type="curve"/>
			<point x="539" y="472"/>
			<point x="482" y="584"/>
			<point x="443" y="692" type="curve"/>
			<point x="392" y="703"/>
			<point x="351" y="705"/>
			<point x="305" y="702" type="curve"/>
			<point x="335" y="581"/>
			<point x="405" y="355"/>
			<point x="445" y="285" type="curve"/>
			<point x="494" y="298"/>
			<point x="565" y="339"/>
		</contour>
	</outline>
</glyph>
<glyph name="underscore" format="2">
	<advance width="622"/>
	<unicode hex="005F"/>
	<outline>
		<contour>
			<point x="69" y="-16" type="curve"/>
			<point x="193" y="-2"/>
			<point x="341" y="4"/>
			<point x="555" y="-2" type="curve"/>
			<point x="562" y="41"/>
			<point x="566" y="108"/>
			<point x="550" y="159" type="curve"/>
			<point x="351" y="180"/>
			<point x="207" y="181"/>
			<point x="32" y="166" type="curve"/>
			<point x="24" y="123"/>
			<point x="36" y="24"/>
		</contour>
	</outline>
</glyph>
<glyph name="grave" format="2">
	<advance width="335"/>
	<unicode hex="0060"/>
	<anchor x="289" y="500" name="_top"/>
	<outline>
		<contour>
			<point x="330" y="579" type="curve"/>
			<point x="307" y="646"/>
			<point x="278" y="718"/>
			<point x="243" y="787" type="curve"/>
			<point x="193" y="764"/>
			<point x="131" y="729"/>
			<point x="87" y="700" type="curve"/>
			<point x="133" y="637"/>
			<point x="168" y="590"/>
			<point x="201" y="533" type="curve"/>
			<point x="237" y="541"/>
			<point x="299" y="565"/>
		</contour>
	</outline>
</glyph>
<glyph name="a" format="2">
	<advance width="632"/>
	<unicode hex="0061"/>
	<anchor x="348" y="526" name="top"/>
	<outline>
		<contour>
			<point x="388" y="164" type="curve"/>
			<point x="371" y="195"/>
			<point x="357" y="215"/>
			<point x="348" y="227" type="curve"/>
			<point x="347" y="167"/>
			<point x="318" y="138"/>
			<point x="290" y="138" type="curve" smooth="yes"/>
			<point x="262" y="138"/>
			<point x="233" y="168"/>
			<point x="233" y="227" type="curve" smooth="yes"/>
			<point x="233" y="298"/>
			<point x="262" y="330"/>
			<point x="291" y="330" type="curve" smooth="yes"/>
			<point x="320" y="330"/>
			<point x="348" y="298"/>
			<point x="348" y="237" type="curve" smooth="yes"/>
			<point x="348" y="215"/>
			<point x="347" y="195"/>
			<point x="347" y="180" type="curve" smooth="yes"/>
			<point x="347" y="135"/>
			<point x="351" y="116"/>
			<point x="357" y="116" type="curve" smooth="yes"/>
			<point x="373" y="116"/>
			<point x="405" y="266"/>
			<point x="405" y="386" type="curve" smooth="yes"/>
			<point x="405" y="473"/>
			<point x="334" y="524"/>
			<point x="252" y="524" type="curve" smooth="yes"/>
			<point x="144" y="524"/>
			<point x="19" y="434"/>
			<point x="19" y="215" type="curve" smooth="yes"/>
			<point x="19" y="64"/>
			<point x="126" y="-15"/>
			<point x="225" y="-15" type="curve" smooth="yes"/>
			<point x="309" y="-15"/>
			<point x="388" y="43"/>
		</contour>
		<contour>
			<point x="560" y="-18" type="line"/>
			<point x="559" y="156"/>
			<point x="582" y="312"/>
			<point x="615" y="469" type="curve"/>
			<point x="565" y="497"/>
			<point x="461" y="522"/>
			<point x="396" y="522" type="curve"/>
			<point x="365" y="401"/>
			<point x="342" y="223"/>
			<point x="342" y="71" type="curve" smooth="yes"/>
			<point x="342" y="51"/>
			<point x="342" y="32"/>
			<point x="343" y="14" type="curve"/>
			<point x="387" y="-15"/>
			<point x="458" y="-18"/>
			<point x="514" y="-18" type="curve" smooth="yes"/>
		</contour>
	</outline>
</glyph>
<glyph name="b" format="2">
	<advance width="621"/>
	<unicode hex="0062"/>
	<outline>
		<contour>
			<point x="292" y="463" type="curve"/>
			<point x="303" y="545"/>
			<point x="318" y="627"/>
			<point x="335" y="718" type="curve"/>
			<point x="292" y="750"/>
			<point x="170" y="773"/>
			<point x="116" y="771" type="curve"/>
			<point x="75" y="570"/>
			<point x="50" y="424"/>
			<point x="50" y="260" type="curve" smooth="yes"/>
			<point x="50" y="70"/>
			<point x="173" y="-22"/>
			<point x="303" y="-22" type="curve" smooth="yes"/>
			<point x="449" y="-22"/>
			<point x="604" y="93"/>
			<point x="604" y="313" type="curve" smooth="yes"/>
			<point x="604" y="424"/>
			<point x="518" y="518"/>
			<point x="418" y="518" type="curve" smooth="yes"/>
			<point x="377" y="518"/>
			<point x="333" y="502"/>
		</contour>
		<contour>
			<point x="417" y="188"/>
			<point x="377" y="148"/>
			<point x="340" y="148" type="curve" smooth="yes"/>
			<point x="307" y="148"/>
			<point x="277" y="179"/>
			<point x="277" y="242" type="curve" smooth="yes"/>
			<point x="277" y="322"/>
			<point x="317" y="364"/>
			<point x="354" y="364" type="curve" smooth="yes"/>
			<point x="387" y="364"/>
			<point x="417" y="333"/>
			<point x="417" y="267" type="curve" smooth="yes"/>
		</contour>
	</outline>
</glyph>
<glyph name="c" format="2">
	<advance width="526"/>
	<unicode hex="0063"/>
	<anchor x="257" y="0" name="bottom"/>
	<outline>
		<contour>
			<point x="18" y="62"/>
			<point x="133" y="-22"/>
			<point x="258" y="-22" type="curve" smooth="yes"/>
			<point x="340" y="-22"/>
			<point x="427" y="14"/>
			<point x="488" y="92" type="curve"/>
			<point x="476" y="124"/>
			<point x="461" y="153"/>
			<point x="439" y="185" type="curve"/>
			<point x="406" y="165"/>
			<point x="374" y="155"/>
			<point x="346" y="155" type="curve" smooth="yes"/>
			<point x="295" y="155"/>
			<point x="257" y="188"/>
			<point x="257" y="252" type="curve" smooth="yes"/>
			<point x="257" y="326"/>
			<point x="291" y="353"/>
			<point x="318" y="353" type="curve" smooth="yes"/>
			<point x="334" y="353"/>
			<point x="347" y="344"/>
			<point x="351" y="329" type="curve" smooth="yes"/>
			<point x="358" y="299"/>
			<point x="382" y="285"/>
			<point x="408" y="285" type="curve" smooth="yes"/>
			<point x="450" y="285"/>
			<point x="499" y="319"/>
			<point x="499" y="376" type="curve" smooth="yes"/>
			<point x="499" y="468"/>
			<point x="413" y="519"/>
			<point x="314" y="519" type="curve" smooth="yes"/>
			<point x="178" y="519"/>
			<point x="18" y="424"/>
			<point x="18" y="213" type="curve" smooth="yes"/>
		</contour>
	</outline>
</glyph>
<glyph name="d" format="2">
	<advance width="606"/>
	<unicode hex="0064"/>
	<outline>
		<contour>
			<point x="396" y="773" type="curve"/>
			<point x="344" y="555"/>
			<point x="328" y="266"/>
			<point x="324" y="36" type="curve"/>
			<point x="384" y="0"/>
			<point x="484" y="-18"/>
			<point x="538" y="-18" type="curve"/>
			<point x="537" y="226"/>
			<point x="580" y="494"/>
			<point x="615" y="720" type="curve"/>
			<point x="576" y="750"/>
			<point x="450" y="775"/>
		</contour>
		<contour>
			<point x="17" y="-74"/>
			<point x="370" y="-106"/>
			<point x="370" y="166" type="curve"/>
			<point x="353" y="197"/>
			<point x="339" y="221"/>
			<point x="330" y="233" type="curve"/>
			<point x="324" y="150"/>
			<point x="217" y="144"/>
			<point x="219" y="231" type="curve" smooth="yes"/>
			<point x="222" y="350"/>
			<point x="335" y="335"/>
			<point x="330" y="233" type="curve" smooth="yes"/>
			<point x="329" y="208"/>
			<point x="357" y="285"/>
			<point x="388" y="281" type="curve" smooth="yes"/>
			<point x="420" y="278"/>
			<point x="387" y="341"/>
			<point x="387" y="388" type="curve" smooth="yes"/>
			<point x="387" y="595"/>
			<point x="17" y="561"/>
			<point x="17" y="198" type="curve" smooth="yes"/>
		</contour>
	</outline>
</glyph>
<glyph name="e" format="2">
	<advance width="541"/>
	<unicode hex="0065"/>
	<anchor x="308" y="523" name="top"/>
	<outline>
		<contour>
			<point x="19" y="-33"/>
			<point x="339" y="-98"/>
			<point x="503" y="79" type="curve"/>
			<point x="487" y="108"/>
			<point x="460" y="145"/>
			<point x="445" y="166" type="curve"/>
			<point x="342" y="87"/>
			<point x="245" y="100"/>
			<point x="245" y="219" type="curve"/>
			<point x="245" y="337"/>
			<point x="348" y="400"/>
			<point x="348" y="334" type="curve" smooth="yes"/>
			<point x="348" y="305"/>
			<point x="313" y="262"/>
			<point x="233" y="262" type="curve"/>
			<point x="232" y="245"/>
			<point x="228" y="224"/>
			<point x="228" y="204" type="curve" smooth="yes"/>
			<point x="228" y="192"/>
			<point x="230" y="180"/>
			<point x="236" y="171" type="curve" smooth="yes"/>
			<point x="385" y="171"/>
			<point x="486" y="246"/>
			<point x="486" y="356" type="curve" smooth="yes"/>
			<point x="486" y="607"/>
			<point x="19" y="580"/>
			<point x="19" y="215" type="curve" smooth="yes"/>
		</contour>
	</outline>
</glyph>
<glyph name="f" format="2">
	<advance width="535"/>
	<unicode hex="0066"/>
	<outline>
		<contour>
			<point x="62" y="306" type="curve"/>
			<point x="146" y="316"/>
			<point x="207" y="321"/>
			<point x="277" y="321" type="curve" smooth="yes"/>
			<point x="332" y="321"/>
			<point x="393" y="318"/>
			<point x="477" y="311" type="curve"/>
			<point x="479" y="324"/>
			<point x="480" y="338"/>
			<point x="480" y="353" type="curve" smooth="yes"/>
			<point x="480" y="389"/>
			<point x="474" y="433"/>
			<point x="457" y="486" type="curve"/>
			<point x="370" y="494"/>
			<point x="304" y="498"/>
			<point x="240" y="498" type="curve" smooth="yes"/>
			<point x="177" y="498"/>
			<point x="115" y="494"/>
			<point x="35" y="486" type="curve"/>
			<point x="33" y="475"/>
			<point x="32" y="462"/>
			<point x="32" y="446" type="curve" smooth="yes"/>
			<point x="32" y="398"/>
			<point x="42" y="333"/>
		</contour>
		<contour>
			<point x="564" y="635" type="curve" smooth="yes"/>
			<point x="564" y="731"/>
			<point x="498" y="773"/>
			<point x="391" y="773" type="curve" smooth="yes"/>
			<point x="252" y="773"/>
			<point x="160" y="678"/>
			<point x="134" y="488" type="curve" smooth="yes"/>
			<point x="114" y="344"/>
			<point x="107" y="184"/>
			<point x="101" y="41" type="curve"/>
			<point x="151" y="-4"/>
			<point x="265" y="-18"/>
			<point x="318" y="-18" type="curve"/>
			<point x="321" y="223"/>
			<point x="342" y="469"/>
			<point x="352" y="566" type="curve" smooth="yes"/>
			<point x="355" y="594"/>
			<point x="368" y="606"/>
			<point x="379" y="606" type="curve" smooth="yes"/>
			<point x="387" y="606"/>
			<point x="395" y="600"/>
			<point x="398" y="591" type="curve" smooth="yes"/>
			<point x="411" y="553"/>
			<point x="428" y="533"/>
			<point x="466" y="533" type="curve" smooth="yes"/>
			<point x="545" y="533"/>
			<point x="564" y="582"/>
		</contour>
	</outline>
</glyph>
<glyph name="g" format="2">
	<advance width="573"/>
	<unicode hex="0067"/>
	<outline>
		<contour>
			<point x="19" y="-71"/>
			<point x="332" y="-114"/>
			<point x="368" y="165" type="curve"/>
			<point x="351" y="196"/>
			<point x="332" y="224"/>
			<point x="323" y="236" type="curve"/>
			<point x="313" y="104"/>
			<point x="211" y="117"/>
			<point x="213" y="224" type="curve" smooth="yes"/>
			<point x="216" y="362"/>
			<point x="325" y="335"/>
			<point x="323" y="236" type="curve" smooth="yes"/>
			<point x="322" y="211"/>
			<point x="341" y="228"/>
			<point x="372" y="224" type="curve" smooth="yes"/>
			<point x="404" y="221"/>
			<point x="381" y="207"/>
			<point x="384" y="254" type="curve" smooth="yes"/>
			<point x="412" y="633"/>
			<point x="19" y="609"/>
			<point x="19" y="215" type="curve" smooth="yes"/>
		</contour>
		<contour>
			<point x="334" y="524" type="curve"/>
			<point x="332" y="265"/>
			<point x="326" y="-139"/>
			<point x="217" y="-139" type="curve" smooth="yes"/>
			<point x="149" y="-139"/>
			<point x="194" y="-43"/>
			<point x="108" y="-43" type="curve" smooth="yes"/>
			<point x="51" y="-43"/>
			<point x="14" y="-85"/>
			<point x="14" y="-133" type="curve" smooth="yes"/>
			<point x="14" y="-344"/>
			<point x="449" y="-306"/>
			<point x="494" y="-43" type="curve" smooth="yes"/>
			<point x="518" y="93"/>
			<point x="535" y="260"/>
			<point x="553" y="470" type="curve"/>
			<point x="494" y="510"/>
			<point x="397" y="524"/>
		</contour>
	</outline>
</glyph>
<glyph name="h" format="2">
	<advance width="677"/>
	<unicode hex="0068"/>
	<outline>
		<contour>
			<point x="256" y="-16" type="curve"/>
			<point x="256" y="229"/>
			<point x="295" y="494"/>
			<point x="330" y="719" type="curve"/>
			<point x="300" y="749"/>
			<point x="165" y="774"/>
			<point x="112" y="773" type="curve"/>
			<point x="60" y="555"/>
			<point x="43" y="274"/>
			<point x="39" y="43" type="curve"/>
			<point x="88" y="0"/>
			<point x="201" y="-14"/>
		</contour>
		<contour>
			<point x="258" y="-13" type="curve"/>
			<point x="285" y="164"/>
			<point x="364" y="350"/>
			<point x="439" y="413" type="curve" smooth="yes"/>
			<point x="483" y="451"/>
			<point x="466" y="476"/>
			<point x="437" y="524" type="curve"/>
			<point x="354" y="486"/>
			<point x="285" y="382"/>
			<point x="260" y="252" type="curve" smooth="yes"/>
			<point x="249" y="190"/>
			<point x="224" y="28"/>
		</contour>
		<contour>
			<point x="609" y="-18" type="curve"/>
			<point x="610" y="153"/>
			<point x="627" y="331"/>
			<point x="655" y="470" type="curve"/>
			<point x="615" y="501"/>
			<point x="490" y="525"/>
			<point x="437" y="524" type="curve"/>
			<point x="402" y="387"/>
			<point x="385" y="203"/>
			<point x="391" y="41" type="curve"/>
			<point x="442" y="-4"/>
			<point x="555" y="-18"/>
		</contour>
	</outline>
</glyph>
<glyph name="k" format="2">
	<advance width="627"/>
	<unicode hex="006B"/>
	<outline>
		<contour>
			<point x="255" y="-17" type="curve"/>
			<point x="255" y="227"/>
			<point x="296" y="494"/>
			<point x="332" y="720" type="curve"/>
			<point x="302" y="750"/>
			<point x="166" y="775"/>
			<point x="113" y="773" type="curve"/>
			<point x="61" y="555"/>
			<point x="42" y="272"/>
			<point x="38" y="42" type="curve"/>
			<point x="89" y="-3"/>
			<point x="202" y="-17"/>
		</contour>
		<contour>
			<point x="432" y="-18" type="curve"/>
			<point x="489" y="-2"/>
			<point x="568" y="52"/>
			<point x="600" y="87" type="curve"/>
			<point x="564" y="138"/>
			<point x="502" y="207"/>
			<point x="448" y="248" type="curve"/>
			<point x="498" y="288"/>
			<point x="546" y="339"/>
			<point x="586" y="403" type="curve"/>
			<point x="553" y="440"/>
			<point x="490" y="491"/>
			<point x="438" y="507" type="curve"/>
			<point x="389" y="436"/>
			<point x="302" y="323"/>
			<point x="231" y="250" type="curve"/>
			<point x="303" y="182"/>
			<point x="382" y="63"/>
		</contour>
	</outline>
</glyph>
<glyph name="l" format="2">
	<advance width="326"/>
	<unicode hex="006C"/>
	<outline>
		<contour>
			<point x="258" y="-18" type="curve"/>
			<point x="266" y="226"/>
			<point x="292" y="494"/>
			<point x="333" y="720" type="curve"/>
			<point x="303" y="750"/>
			<point x="161" y="775"/>
			<point x="108" y="773" type="curve"/>
			<point x="65" y="546"/>
			<point x="38" y="271"/>
			<point x="34" y="41" type="curve"/>
			<point x="84" y="-4"/>
			<point x="205" y="-18"/>
		</contour>
	</outline>
</glyph>
<glyph name="m" format="2">
	<advance width="1005"/>
	<unicode hex="006D"/>
	<outline>
		<contour>
			<point x="591" y="-17" type="curve"/>
			<point x="592" y="154"/>
			<point x="619" y="331"/>
			<point x="648" y="470" type="curve"/>
			<point x="608" y="501"/>
			<point x="482" y="525"/>
			<point x="429" y="524" type="curve"/>
			<point x="394" y="387"/>
			<point x="367" y="201"/>
			<point x="374" y="39" type="curve"/>
			<point x="424" y="-6"/>
			<point x="537" y="-17"/>
		</contour>
		<contour>
			<point x="250" y="-17" type="curve"/>
			<point x="251" y="154"/>
			<point x="278" y="331"/>
			<point x="307" y="470" type="curve"/>
			<point x="267" y="501"/>
			<point x="141" y="525"/>
			<point x="88" y="524" type="curve"/>
			<point x="53" y="387"/>
			<point x="26" y="201"/>
			<point x="33" y="39" type="curve"/>
			<point x="83" y="-6"/>
			<point x="196" y="-17"/>
		</contour>
		<contour>
			<point x="250" y="-17" type="curve"/>
			<point x="278" y="160"/>
			<point x="357" y="351"/>
			<point x="431" y="413" type="curve" smooth="yes"/>
			<point x="475" y="451"/>
			<point x="458" y="476"/>
			<point x="429" y="524" type="curve"/>
			<point x="346" y="486"/>
			<point x="287" y="408"/>
			<point x="253" y="248" type="curve" smooth="yes"/>
			<point x="240" y="188"/>
			<point x="217" y="24"/>
		</contour>
		<contour>
			<point x="591" y="-17" type="curve"/>
			<point x="617" y="163"/>
			<point x="697" y="351"/>
			<point x="771" y="413" type="curve" smooth="yes"/>
			<point x="815" y="451"/>
			<point x="798" y="476"/>
			<point x="769" y="524" type="curve"/>
			<point x="686" y="486"/>
			<point x="627" y="408"/>
			<point x="593" y="248" type="curve" smooth="yes"/>
			<point x="580" y="188"/>
			<point x="558" y="24"/>
		</contour>
		<contour>
			<point x="931" y="-17" type="curve"/>
			<point x="932" y="154"/>
			<point x="959" y="331"/>
			<point x="988" y="470" type="curve"/>
			<point x="948" y="501"/>
			<point x="822" y="525"/>
			<point x="769" y="524" type="curve"/>
			<point x="734" y="387"/>
			<point x="707" y="200"/>
			<point x="714" y="39" type="curve"/>
			<point x="764" y="-6"/>
			<point x="877" y="-17"/>
		</contour>
	</outline>
</glyph>
<glyph name="n" format="2">
	<advance width="674"/>
	<unicode hex="006E"/>
	<anchor x="372" y="524" name="top"/>
	<outline>
		<contour>
			<point x="255" y="-18" type="curve"/>
			<point x="256" y="153"/>
			<point x="273" y="330"/>
			<point x="301" y="469" type="curve"/>
			<point x="260" y="500"/>
			<point x="135" y="524"/>
			<point x="83" y="523" type="curve"/>
			<point x="48" y="386"/>
			<point x="31" y="203"/>
			<point x="37" y="41" type="curve"/>
			<point x="88" y="-4"/>
			<point x="201" y="-18"/>
		</contour>
		<contour>
			<point x="606" y="-18" type="curve"/>
			<point x="607" y="153"/>
			<point x="624" y="328"/>
			<point x="652" y="467" type="curve"/>
			<point x="612" y="496"/>
			<point x="487" y="520"/>
			<point x="434" y="521" type="curve"/>
			<point x="399" y="384"/>
			<point x="382" y="203"/>
			<point x="388" y="41" type="curve"/>
			<point x="439" y="-4"/>
			<point x="552" y="-18"/>
		</contour>
		<contour>
			<point x="255" y="-13" type="curve"/>
			<point x="283" y="165"/>
			<point x="362" y="316"/>
			<point x="436" y="378" type="curve" smooth="yes"/>
			<point x="480" y="416"/>
			<point x="463" y="473"/>
			<point x="434" y="521" type="curve"/>
			<point x="351" y="477"/>
			<point x="283" y="371"/>
			<point x="257" y="252" type="curve" smooth="yes"/>
			<point x="243" y="190"/>
			<point x="221" y="28"/>
		</contour>
	</outline>
</glyph>
<glyph name="o" format="2">
	<advance width="518"/>
	<unicode hex="006F"/>
	<anchor x="277" y="533" name="top"/>
	<outline>
		<contour>
			<point x="18" y="75"/>
			<point x="114" y="-17"/>
			<point x="239" y="-17" type="curve" smooth="yes"/>
			<point x="397" y="-17"/>
			<point x="498" y="93"/>
			<point x="498" y="281" type="curve" smooth="yes"/>
			<point x="498" y="429"/>
			<point x="404" y="518"/>
			<point x="286" y="518" type="curve" smooth="yes"/>
			<point x="155" y="518"/>
			<point x="18" y="411"/>
			<point x="18" y="211" type="curve" smooth="yes"/>
		</contour>
		<contour>
			<point x="337" y="209"/>
			<point x="301" y="167"/>
			<point x="271" y="167" type="curve" smooth="yes"/>
			<point x="248" y="167"/>
			<point x="229" y="190"/>
			<point x="229" y="239" type="curve" smooth="yes"/>
			<point x="229" y="309"/>
			<point x="265" y="350"/>
			<point x="295" y="350" type="curve" smooth="yes"/>
			<point x="318" y="350"/>
			<point x="337" y="328"/>
			<point x="337" y="278" type="curve" smooth="yes"/>
		</contour>
	</outline>
</glyph>
<glyph name="p" format="2">
	<advance width="595"/>
	<unicode hex="0070"/>
	<outline>
		<contour>
			<point x="220" y="-269" type="curve"/>
			<point x="219" y="-25"/>
			<point x="254" y="251"/>
			<point x="289" y="477" type="curve"/>
			<point x="231" y="502"/>
			<point x="139" y="519"/>
			<point x="85" y="517" type="curve"/>
			<point x="33" y="299"/>
			<point x="17" y="20"/>
			<point x="13" y="-210" type="curve"/>
			<point x="63" y="-255"/>
			<point x="166" y="-269"/>
		</contour>
		<contour>
			<point x="171" y="78" type="curve"/>
			<point x="219" y="11"/>
			<point x="282" y="-20"/>
			<point x="344" y="-20" type="curve" smooth="yes"/>
			<point x="461" y="-20"/>
			<point x="574" y="90"/>
			<point x="574" y="271" type="curve" smooth="yes"/>
			<point x="574" y="434"/>
			<point x="491" y="517"/>
			<point x="406" y="517" type="curve" smooth="yes"/>
			<point x="327" y="517"/>
			<point x="246" y="447"/>
			<point x="226" y="307" type="curve" smooth="yes"/>
			<point x="223" y="288"/>
			<point x="222" y="272"/>
			<point x="222" y="257" type="curve" smooth="yes"/>
			<point x="222" y="206"/>
			<point x="236" y="181"/>
			<point x="248" y="181" type="curve" smooth="yes"/>
			<point x="254" y="181"/>
			<point x="260" y="190"/>
			<point x="261" y="207" type="curve" smooth="yes"/>
			<point x="266" y="279"/>
			<point x="305" y="318"/>
			<point x="338" y="318" type="curve" smooth="yes"/>
			<point x="364" y="318"/>
			<point x="387" y="294"/>
			<point x="387" y="243" type="curve" smooth="yes"/>
			<point x="387" y="238"/>
			<point x="386" y="233"/>
			<point x="386" y="227" type="curve" smooth="yes"/>
			<point x="382" y="173"/>
			<point x="343" y="143"/>
			<point x="309" y="143" type="curve" smooth="yes"/>
			<point x="282" y="143"/>
			<point x="258" y="163"/>
			<point x="261" y="207" type="curve" smooth="yes"/>
			<point x="262" y="217"/>
			<point x="261" y="222"/>
			<point x="259" y="222" type="curve" smooth="yes"/>
			<point x="247" y="222"/>
			<point x="199" y="87"/>
		</contour>
	</outline>
</glyph>
<glyph name="q" format="2">
	<advance width="629"/>
	<unicode hex="0071"/>
	<outline>
		<contour>
			<point x="535" y="-268" type="curve"/>
			<point x="543" y="-18"/>
			<point x="574" y="224"/>
			<point x="609" y="450" type="curve"/>
			<point x="579" y="480"/>
			<point x="444" y="505"/>
			<point x="390" y="503" type="curve"/>
			<point x="338" y="285"/>
			<point x="322" y="21"/>
			<point x="318" y="-209" type="curve"/>
			<point x="368" y="-254"/>
			<point x="481" y="-268"/>
		</contour>
		<contour>
			<point x="217" y="-18" type="curve" smooth="yes"/>
			<point x="315" y="-18"/>
			<point x="374" y="60"/>
			<point x="387" y="162" type="curve"/>
			<point x="370" y="193"/>
			<point x="351" y="221"/>
			<point x="342" y="233" type="curve"/>
			<point x="333" y="113"/>
			<point x="243" y="111"/>
			<point x="245" y="215" type="curve" smooth="yes"/>
			<point x="248" y="343"/>
			<point x="346" y="343"/>
			<point x="342" y="233" type="curve" smooth="yes"/>
			<point x="341" y="208"/>
			<point x="374" y="281"/>
			<point x="405" y="277" type="curve" smooth="yes"/>
			<point x="437" y="274"/>
			<point x="404" y="337"/>
			<point x="404" y="384" type="curve" smooth="yes"/>
			<point x="404" y="455"/>
			<point x="352" y="523"/>
			<point x="277" y="524" type="curve" smooth="yes"/>
			<point x="159" y="525"/>
			<point x="38" y="397"/>
			<point x="38" y="212" type="curve" smooth="yes"/>
			<point x="38" y="60"/>
			<point x="114" y="-18"/>
		</contour>
	</outline>
</glyph>
<glyph name="r" format="2">
	<advance width="582"/>
	<unicode hex="0072"/>
	<outline>
		<contour>
			<point x="252" y="-17" type="curve"/>
			<point x="279" y="155"/>
			<point x="330" y="368"/>
			<point x="390" y="313" type="curve"/>
			<point x="444" y="245"/>
			<point x="576" y="303"/>
			<point x="576" y="385" type="curve" smooth="yes"/>
			<point x="576" y="624"/>
			<point x="263" y="533"/>
			<point x="261" y="283" type="curve" smooth="yes"/>
			<point x="261" y="222"/>
			<point x="219" y="24"/>
		</contour>
		<contour>
			<point x="252" y="-18" type="curve"/>
			<point x="254" y="153"/>
			<point x="276" y="330"/>
			<point x="304" y="469" type="curve"/>
			<point x="264" y="500"/>
			<point x="139" y="524"/>
			<point x="86" y="523" type="curve"/>
			<point x="50" y="386"/>
			<point x="29" y="203"/>
			<point x="35" y="41" type="curve"/>
			<point x="86" y="-4"/>
			<point x="199" y="-18"/>
		</contour>
	</outline>
</glyph>
<glyph name="s" format="2">
	<advance width="490"/>
	<unicode hex="0073"/>
	<anchor x="300" y="514" name="top"/>
	<outline>
		<contour>
			<point x="249" y="378"/>
			<point x="263" y="390"/>
			<point x="277" y="390" type="curve" smooth="yes"/>
			<point x="292" y="390"/>
			<point x="307" y="377"/>
			<point x="307" y="350" type="curve" smooth="yes"/>
			<point x="307" y="303"/>
			<point x="343" y="280"/>
			<point x="382" y="280" type="curve" smooth="yes"/>
			<point x="428" y="280"/>
			<point x="477" y="311"/>
			<point x="477" y="371" type="curve" smooth="yes"/>
			<point x="477" y="469"/>
			<point x="377" y="518"/>
			<point x="275" y="518" type="curve" smooth="yes"/>
			<point x="164" y="518"/>
			<point x="50" y="461"/>
			<point x="50" y="348" type="curve" smooth="yes"/>
			<point x="50" y="223"/>
			<point x="212" y="219"/>
			<point x="212" y="140" type="curve" smooth="yes"/>
			<point x="212" y="123"/>
			<point x="194" y="110"/>
			<point x="166" y="110" type="curve" smooth="yes"/>
			<point x="135" y="110"/>
			<point x="91" y="126"/>
			<point x="42" y="169" type="curve"/>
			<point x="22" y="135"/>
			<point x="9" y="95"/>
			<point x="1" y="66" type="curve"/>
			<point x="55" y="3"/>
			<point x="143" y="-25"/>
			<point x="227" y="-25" type="curve" smooth="yes"/>
			<point x="345" y="-25"/>
			<point x="455" y="30"/>
			<point x="455" y="122" type="curve" smooth="yes"/>
			<point x="455" y="259"/>
			<point x="249" y="268"/>
			<point x="249" y="353" type="curve" smooth="yes"/>
		</contour>
	</outline>
</glyph>
<glyph name="t" format="2">
	<advance width="507"/>
	<unicode hex="0074"/>
	<outline>
		<contour>
			<point x="121" y="470"/>
			<point x="92" y="301"/>
			<point x="92" y="196" type="curve" smooth="yes"/>
			<point x="92" y="-38"/>
			<point x="325" y="-84"/>
			<point x="477" y="57" type="curve"/>
			<point x="465" y="93"/>
			<point x="444" y="138"/>
			<point x="425" y="171" type="curve"/>
			<point x="378" y="118"/>
			<point x="303" y="137"/>
			<point x="303" y="229" type="curve" smooth="yes"/>
			<point x="303" y="318"/>
			<point x="336" y="470"/>
			<point x="366" y="591" type="curve"/>
			<point x="320" y="609"/>
			<point x="225" y="627"/>
			<point x="168" y="632" type="curve"/>
		</contour>
		<contour>
			<point x="49" y="350" type="curve"/>
			<point x="156" y="362"/>
			<point x="272" y="355"/>
			<point x="419" y="338" type="curve"/>
			<point x="426" y="389"/>
			<point x="432" y="453"/>
			<point x="428" y="513" type="curve"/>
			<point x="290" y="529"/>
			<point x="176" y="528"/>
			<point x="49" y="513" type="curve"/>
			<point x="40" y="458"/>
			<point x="39" y="394"/>
		</contour>
	</outline>
</glyph>
<glyph name="u" format="2">
	<advance width="674"/>
	<unicode hex="0075"/>
	<anchor x="351" y="524" name="top"/>
	<outline>
		<contour>
			<point x="605" y="-22" type="curve"/>
			<point x="606" y="149"/>
			<point x="624" y="329"/>
			<point x="652" y="468" type="curve"/>
			<point x="612" y="499"/>
			<point x="487" y="523"/>
			<point x="434" y="522" type="curve"/>
			<point x="403" y="402"/>
			<point x="386" y="246"/>
			<point x="386" y="100" type="curve" smooth="yes"/>
			<point x="386" y="79"/>
			<point x="386" y="58"/>
			<point x="387" y="37" type="curve"/>
			<point x="438" y="-8"/>
			<point x="551" y="-22"/>
		</contour>
		<contour>
			<point x="254" y="-22" type="curve"/>
			<point x="255" y="149"/>
			<point x="273" y="329"/>
			<point x="301" y="468" type="curve"/>
			<point x="261" y="499"/>
			<point x="136" y="523"/>
			<point x="83" y="522" type="curve"/>
			<point x="52" y="402"/>
			<point x="35" y="246"/>
			<point x="35" y="100" type="curve" smooth="yes"/>
			<point x="35" y="79"/>
			<point x="35" y="58"/>
			<point x="36" y="37" type="curve"/>
			<point x="87" y="-8"/>
			<point x="200" y="-22"/>
		</contour>
		<contour>
			<point x="254" y="-22" type="curve"/>
			<point x="337" y="24"/>
			<point x="399" y="171"/>
			<point x="427" y="306" type="curve" smooth="yes"/>
			<point x="433" y="338"/>
			<point x="439" y="365"/>
			<point x="439" y="390" type="curve" smooth="yes"/>
			<point x="439" y="414"/>
			<point x="434" y="435"/>
			<point x="418" y="455" type="curve"/>
			<point x="387" y="308"/>
			<point x="328" y="193"/>
			<point x="257" y="126" type="curve" smooth="yes"/>
			<point x="237" y="107"/>
			<point x="229" y="83"/>
			<point x="229" y="59" type="curve" smooth="yes"/>
			<point x="229" y="32"/>
			<point x="239" y="3"/>
		</contour>
	</outline>
</glyph>
<glyph name="v" format="2">
	<advance width="637"/>
	<unicode hex="0076"/>
	<outline>
		<contour>
			<point x="213" y="-23" type="curve"/>
			<point x="290" y="-25"/>
			<point x="390" y="-1"/>
			<point x="438" y="24" type="curve"/>
			<point x="336" y="158"/>
			<point x="286" y="336"/>
			<point x="254" y="521" type="curve"/>
			<point x="197" y="524"/>
			<point x="81" y="501"/>
			<point x="34" y="477" type="curve"/>
			<point x="67" y="323"/>
			<point x="138" y="121"/>
		</contour>
		<contour>
			<point x="438" y="24" type="curve"/>
			<point x="485" y="158"/>
			<point x="557" y="276"/>
			<point x="645" y="418" type="curve"/>
			<point x="594" y="458"/>
			<point x="524" y="499"/>
			<point x="459" y="529" type="curve"/>
			<point x="397" y="397"/>
			<point x="342" y="270"/>
			<point x="314" y="98" type="curve"/>
			<point x="349" y="55"/>
			<point x="387" y="41"/>
		</contour>
	</outline>
</glyph>
<glyph name="w" format="2">
	<advance width="992"/>
	<unicode hex="0077"/>
	<outline>
		<contour>
			<point x="210" y="-23" type="curve"/>
			<point x="283" y="-28"/>
			<point x="399" y="-2"/>
			<point x="446" y="23" type="curve"/>
			<point x="363" y="174"/>
			<point x="292" y="365"/>
			<point x="255" y="527" type="curve"/>
			<point x="197" y="530"/>
			<point x="82" y="498"/>
			<point x="34" y="474" type="curve"/>
			<point x="60" y="335"/>
			<point x="135" y="121"/>
		</contour>
		<contour>
			<point x="446" y="23" type="curve"/>
			<point x="478" y="143"/>
			<point x="534" y="254"/>
			<point x="616" y="357" type="curve"/>
			<point x="559" y="380"/>
			<point x="506" y="388"/>
			<point x="446" y="393" type="curve"/>
			<point x="393" y="295"/>
			<point x="354" y="203"/>
			<point x="327" y="95" type="curve"/>
			<point x="363" y="53"/>
			<point x="395" y="40"/>
		</contour>
		<contour>
			<point x="574" y="-23" type="curve"/>
			<point x="647" y="-28"/>
			<point x="759" y="-9"/>
			<point x="806" y="16" type="curve"/>
			<point x="720" y="151"/>
			<point x="682" y="214"/>
			<point x="616" y="357" type="curve"/>
			<point x="559" y="359"/>
			<point x="526" y="325"/>
			<point x="479" y="301" type="curve"/>
			<point x="497" y="182"/>
			<point x="529" y="79"/>
		</contour>
		<contour>
			<point x="806" y="16" type="curve"/>
			<point x="851" y="175"/>
			<point x="898" y="272"/>
			<point x="999" y="415" type="curve"/>
			<point x="952" y="467"/>
			<point x="875" y="508"/>
			<point x="809" y="535" type="curve"/>
			<point x="746" y="415"/>
			<point x="699" y="271"/>
			<point x="673" y="95" type="curve"/>
			<point x="709" y="53"/>
			<point x="755" y="33"/>
		</contour>
	</outline>
</glyph>
<glyph name="x" format="2">
	<advance width="573"/>
	<unicode hex="0078"/>
	<outline>
		<contour>
			<point x="140" y="-21" type="curve"/>
			<point x="264" y="90"/>
			<point x="425" y="261"/>
			<point x="569" y="434" type="curve"/>
			<point x="544" y="459"/>
			<point x="487" y="503"/>
			<point x="436" y="520" type="curve"/>
			<point x="311" y="360"/>
			<point x="155" y="192"/>
			<point x="3" y="55" type="curve"/>
			<point x="48" y="13"/>
			<point x="89" y="-5"/>
		</contour>
		<contour>
			<point x="544" y="67" type="curve"/>
			<point x="421" y="206"/>
			<point x="313" y="375"/>
			<point x="244" y="522" type="curve"/>
			<point x="171" y="512"/>
			<point x="88" y="481"/>
			<point x="30" y="440" type="curve"/>
			<point x="138" y="250"/>
			<point x="238" y="107"/>
			<point x="354" y="-22" type="curve"/>
			<point x="412" y="-13"/>
			<point x="502" y="34"/>
		</contour>
	</outline>
</glyph>
<glyph name="y" format="2">
	<advance width="628"/>
	<unicode hex="0079"/>
	<anchor x="354" y="524" name="top"/>
	<outline>
		<contour>
			<point x="312" y="-267" type="curve"/>
			<point x="394" y="-152"/>
			<point x="582" y="240"/>
			<point x="635" y="408" type="curve"/>
			<point x="591" y="446"/>
			<point x="513" y="496"/>
			<point x="454" y="517" type="curve"/>
			<point x="403" y="237"/>
			<point x="255" y="12"/>
			<point x="112" y="-173" type="curve"/>
			<point x="154" y="-209"/>
			<point x="256" y="-257"/>
		</contour>
		<contour>
			<point x="180" y="28" type="curve"/>
			<point x="252" y="20"/>
			<point x="354" y="50"/>
			<point x="403" y="70" type="curve"/>
			<point x="342" y="237"/>
			<point x="299" y="364"/>
			<point x="269" y="517" type="curve"/>
			<point x="212" y="522"/>
			<point x="82" y="501"/>
			<point x="34" y="479" type="curve"/>
			<point x="54" y="339"/>
			<point x="112" y="176"/>
		</contour>
	</outline>
</glyph>
<glyph name="z" format="2">
	<advance width="591"/>
	<unicode hex="007A"/>
	<anchor x="321" y="524" name="top"/>
	<outline>
		<contour>
			<point x="205" y="104" type="curve"/>
			<point x="315" y="196"/>
			<point x="388" y="262"/>
			<point x="544" y="331" type="curve"/>
			<point x="536" y="360"/>
			<point x="403" y="371"/>
			<point x="388" y="384" type="curve"/>
			<point x="217" y="309"/>
			<point x="183" y="250"/>
			<point x="35" y="162" type="curve"/>
			<point x="52" y="103"/>
			<point x="191" y="117"/>
		</contour>
		<contour>
			<point x="522" y="-18" type="curve"/>
			<point x="525" y="1"/>
			<point x="528" y="25"/>
			<point x="528" y="52" type="curve" smooth="yes"/>
			<point x="528" y="87"/>
			<point x="523" y="126"/>
			<point x="505" y="160" type="curve"/>
			<point x="420" y="170"/>
			<point x="343" y="175"/>
			<point x="268" y="175" type="curve" smooth="yes"/>
			<point x="189" y="175"/>
			<point x="113" y="170"/>
			<point x="35" y="162" type="curve"/>
			<point x="33" y="153"/>
			<point x="32" y="140"/>
			<point x="32" y="125" type="curve" smooth="yes"/>
			<point x="32" y="74"/>
			<point x="43" y="3"/>
			<point x="66" y="-18" type="curve"/>
			<point x="168" y="-13"/>
			<point x="243" y="-8"/>
			<point x="324" y="-8" type="curve" smooth="yes"/>
			<point x="383" y="-8"/>
			<point x="444" y="-11"/>
		</contour>
		<contour>
			<point x="544" y="331" type="curve"/>
			<point x="546" y="344"/>
			<point x="547" y="361"/>
			<point x="547" y="379" type="curve" smooth="yes"/>
			<point x="547" y="421"/>
			<point x="541" y="472"/>
			<point x="519" y="510" type="curve"/>
			<point x="436" y="520"/>
			<point x="364" y="524"/>
			<point x="294" y="524" type="curve" smooth="yes"/>
			<point x="219" y="524"/>
			<point x="147" y="519"/>
			<point x="68" y="511" type="curve"/>
			<point x="65" y="494"/>
			<point x="63" y="467"/>
			<point x="63" y="439" type="curve" smooth="yes"/>
			<point x="63" y="395"/>
			<point x="68" y="348"/>
			<point x="86" y="332" type="curve"/>
			<point x="187" y="336"/>
			<point x="262" y="341"/>
			<point x="343" y="341" type="curve" smooth="yes"/>
			<point x="402" y="341"/>
			<point x="465" y="338"/>
		</contour>
	</outline>
</glyph>
<glyph name="braceleft" format="2">
	<advance width="483"/>
	<unicode hex="007B"/>
	<outline>
		<contour>
			<point x="499" y="805" type="curve"/>
			<point x="476" y="811"/>
			<point x="450" y="814"/>
			<point x="423" y="814" type="curve" smooth="yes"/>
			<point x="330" y="814"/>
			<point x="228" y="775"/>
			<point x="202" y="677" type="curve" smooth="yes"/>
			<point x="183" y="607"/>
			<point x="182" y="567"/>
			<point x="163" y="497" type="curve" smooth="yes"/>
			<point x="149" y="446"/>
			<point x="125" y="427"/>
			<point x="89" y="427" type="curve" smooth="yes"/>
			<point x="83" y="427"/>
			<point x="77" y="428"/>
			<point x="70" y="429" type="curve"/>
			<point x="67" y="417"/>
			<point x="66" y="384"/>
			<point x="66" y="355" type="curve" smooth="yes"/>
			<point x="66" y="332"/>
			<point x="67" y="312"/>
			<point x="68" y="305" type="curve"/>
			<point x="78" y="304"/>
			<point x="89" y="303"/>
			<point x="100" y="303" type="curve" smooth="yes"/>
			<point x="214" y="303"/>
			<point x="342" y="366"/>
			<point x="369" y="483" type="curve" smooth="yes"/>
			<point x="384" y="548"/>
			<point x="387" y="607"/>
			<point x="404" y="675" type="curve" smooth="yes"/>
			<point x="412" y="707"/>
			<point x="434" y="723"/>
			<point x="457" y="723" type="curve" smooth="yes"/>
			<point x="464" y="723"/>
			<point x="471" y="721"/>
			<point x="478" y="718" type="curve"/>
			<point x="488" y="731"/>
			<point x="500" y="772"/>
			<point x="500" y="796" type="curve" smooth="yes"/>
			<point x="500" y="799"/>
			<point x="500" y="802"/>
		</contour>
		<contour>
			<point x="329" y="-176" type="curve"/>
			<point x="336" y="-164"/>
			<point x="340" y="-136"/>
			<point x="340" y="-113" type="curve" smooth="yes"/>
			<point x="340" y="-102"/>
			<point x="339" y="-93"/>
			<point x="337" y="-87" type="curve"/>
			<point x="305" y="-90"/>
			<point x="277" y="-66"/>
			<point x="281" y="-23" type="curve" smooth="yes"/>
			<point x="286" y="47"/>
			<point x="302" y="104"/>
			<point x="308" y="170" type="curve" smooth="yes"/>
			<point x="321" y="301"/>
			<point x="193" y="405"/>
			<point x="74" y="432" type="curve"/>
			<point x="66" y="417"/>
			<point x="49" y="333"/>
			<point x="47" y="312" type="curve"/>
			<point x="93" y="303"/>
			<point x="117" y="279"/>
			<point x="113" y="218" type="curve" smooth="yes"/>
			<point x="109" y="145"/>
			<point x="91" y="103"/>
			<point x="87" y="31" type="curve" smooth="yes"/>
			<point x="79" y="-100"/>
			<point x="221" y="-169"/>
		</contour>
	</outline>
</glyph>
<glyph name="bar" format="2">
	<advance width="247"/>
	<unicode hex="007C"/>
	<outline>
		<contour>
			<point x="160" y="-172" type="curve"/>
			<point x="169" y="107"/>
			<point x="203" y="432"/>
			<point x="253" y="692" type="curve"/>
			<point x="206" y="714"/>
			<point x="146" y="720"/>
			<point x="100" y="718" type="curve"/>
			<point x="52" y="446"/>
			<point x="23" y="102"/>
			<point x="23" y="-153" type="curve"/>
			<point x="56" y="-170"/>
			<point x="119" y="-177"/>
		</contour>
	</outline>
</glyph>
<glyph name="asciitilde" format="2">
	<advance width="537"/>
	<unicode hex="007E"/>
	<outline>
		<contour>
			<point x="131" y="200" type="curve"/>
			<point x="149" y="218"/>
			<point x="175" y="227"/>
			<point x="202" y="227" type="curve" smooth="yes"/>
			<point x="221" y="227"/>
			<point x="240" y="223"/>
			<point x="259" y="214" type="curve" smooth="yes"/>
			<point x="285" y="202"/>
			<point x="310" y="196"/>
			<point x="335" y="196" type="curve" smooth="yes"/>
			<point x="409" y="196"/>
			<point x="476" y="247"/>
			<point x="506" y="332" type="curve"/>
			<point x="479" y="350"/>
			<point x="454" y="366"/>
			<point x="416" y="376" type="curve"/>
			<point x="401" y="355"/>
			<point x="380" y="345"/>
			<point x="356" y="345" type="curve" smooth="yes"/>
			<point x="335" y="345"/>
			<point x="312" y="352"/>
			<point x="288" y="366" type="curve" smooth="yes"/>
			<point x="262" y="381"/>
			<point x="233" y="388"/>
			<point x="206" y="388" type="curve" smooth="yes"/>
			<point x="135" y="388"/>
			<point x="68" y="342"/>
			<point x="41" y="256" type="curve"/>
			<point x="72" y="229"/>
			<point x="93" y="216"/>
		</contour>
	</outline>
</glyph>
<glyph name="cent" format="2">
	<advance width="549"/>
	<unicode hex="00A2"/>
	<outline>
		<contour>
			<point x="264" y="-13" type="curve" smooth="yes"/>
			<point x="271" y="-14"/>
			<point x="278" y="-14"/>
			<point x="285" y="-14" type="curve" smooth="yes"/>
			<point x="357" y="-14"/>
			<point x="452" y="21"/>
			<point x="491" y="82" type="curve"/>
			<point x="474" y="114"/>
			<point x="453" y="156"/>
			<point x="445" y="169" type="curve"/>
			<point x="415" y="150"/>
			<point x="383" y="142"/>
			<point x="353" y="142" type="curve" smooth="yes"/>
			<point x="286" y="142"/>
			<point x="231" y="185"/>
			<point x="238" y="254" type="curve" smooth="yes"/>
			<point x="246" y="327"/>
			<point x="283" y="362"/>
			<point x="312" y="362" type="curve" smooth="yes"/>
			<point x="324" y="362"/>
			<point x="336" y="355"/>
			<point x="342" y="333" type="curve" smooth="yes"/>
			<point x="347" y="313"/>
			<point x="401" y="294"/>
			<point x="432" y="291" type="curve" smooth="yes"/>
			<point x="461" y="288"/>
			<point x="506" y="338"/>
			<point x="506" y="381" type="curve" smooth="yes"/>
			<point x="506" y="386"/>
			<point x="505" y="391"/>
			<point x="504" y="396" type="curve" smooth="yes"/>
			<point x="480" y="475"/>
			<point x="425" y="499"/>
			<point x="325" y="510" type="curve" smooth="yes"/>
			<point x="316" y="511"/>
			<point x="306" y="511"/>
			<point x="297" y="511" type="curve" smooth="yes"/>
			<point x="166" y="511"/>
			<point x="57" y="414"/>
			<point x="40" y="254" type="curve" smooth="yes"/>
			<point x="39" y="246"/>
			<point x="39" y="238"/>
			<point x="39" y="230" type="curve" smooth="yes"/>
			<point x="39" y="107"/>
			<point x="133" y="1"/>
		</contour>
		<contour>
			<point x="309" y="-120" type="curve"/>
			<point x="321" y="-84"/>
			<point x="334" y="17"/>
			<point x="335" y="60" type="curve"/>
			<point x="300" y="73"/>
			<point x="260" y="80"/>
			<point x="211" y="78" type="curve"/>
			<point x="197" y="48"/>
			<point x="184" y="-59"/>
			<point x="186" y="-108" type="curve"/>
			<point x="221" y="-115"/>
			<point x="270" y="-117"/>
		</contour>
		<contour>
			<point x="410" y="270" type="curve" smooth="yes"/>
			<point x="474" y="270"/>
			<point x="510" y="309"/>
			<point x="510" y="351" type="curve" smooth="yes"/>
			<point x="510" y="403"/>
			<point x="485" y="460"/>
			<point x="437" y="460" type="curve" smooth="yes"/>
			<point x="388" y="460"/>
			<point x="335" y="430"/>
			<point x="335" y="377" type="curve" smooth="yes"/>
			<point x="335" y="325"/>
			<point x="361" y="270"/>
		</contour>
		<contour>
			<point x="372" y="399" type="curve"/>
			<point x="384" y="434"/>
			<point x="396" y="536"/>
			<point x="397" y="579" type="curve"/>
			<point x="362" y="592"/>
			<point x="322" y="598"/>
			<point x="274" y="597" type="curve"/>
			<point x="260" y="566"/>
			<point x="246" y="459"/>
			<point x="249" y="410" type="curve"/>
			<point x="283" y="404"/>
			<point x="332" y="401"/>
		</contour>
	</outline>
</glyph>
<glyph name="sterling" format="2">
	<advance width="642"/>
	<unicode hex="00A3"/>
	<outline>
		<contour>
			<point x="346" y="175" type="curve"/>
			<point x="343" y="282"/>
			<point x="355" y="398"/>
			<point x="363" y="490" type="curve" smooth="yes"/>
			<point x="370" y="577"/>
			<point x="415" y="603"/>
			<point x="429" y="563" type="curve" smooth="yes"/>
			<point x="440" y="532"/>
			<point x="480" y="578"/>
			<point x="480" y="552" type="curve" smooth="yes"/>
			<point x="480" y="531"/>
			<point x="498" y="511"/>
			<point x="528" y="511" type="curve" smooth="yes"/>
			<point x="566" y="511"/>
			<point x="616" y="550"/>
			<point x="611" y="603" type="curve" smooth="yes"/>
			<point x="602" y="707"/>
			<point x="516" y="738"/>
			<point x="421" y="738" type="curve" smooth="yes"/>
			<point x="271" y="738"/>
			<point x="181" y="663"/>
			<point x="155" y="482" type="curve" smooth="yes"/>
			<point x="144" y="405"/>
			<point x="134" y="327"/>
			<point x="129" y="234" type="curve"/>
			<point x="186" y="196"/>
			<point x="293" y="175"/>
		</contour>
		<contour>
			<point x="91" y="-19" type="curve"/>
			<point x="251" y="-2"/>
			<point x="400" y="5"/>
			<point x="576" y="0" type="curve"/>
			<point x="582" y="50"/>
			<point x="585" y="124"/>
			<point x="573" y="186" type="curve"/>
			<point x="410" y="209"/>
			<point x="204" y="209"/>
			<point x="61" y="191" type="curve"/>
			<point x="54" y="141"/>
			<point x="64" y="12"/>
		</contour>
		<contour>
			<point x="89" y="292" type="curve"/>
			<point x="233" y="319"/>
			<point x="329" y="322"/>
			<point x="484" y="324" type="curve"/>
			<point x="488" y="365"/>
			<point x="475" y="427"/>
			<point x="463" y="472" type="curve"/>
			<point x="297" y="488"/>
			<point x="215" y="488"/>
			<point x="64" y="472" type="curve"/>
			<point x="56" y="429"/>
			<point x="64" y="328"/>
		</contour>
		<contour>
			<point x="502" y="499" type="curve" smooth="yes"/>
			<point x="572" y="499"/>
			<point x="612" y="543"/>
			<point x="612" y="587" type="curve" smooth="yes"/>
			<point x="612" y="644"/>
			<point x="585" y="707"/>
			<point x="532" y="707" type="curve" smooth="yes"/>
			<point x="479" y="707"/>
			<point x="421" y="673"/>
			<point x="421" y="615" type="curve" smooth="yes"/>
			<point x="421" y="558"/>
			<point x="449" y="499"/>
		</contour>
	</outline>
</glyph>
<glyph name="currency" format="2">
	<advance width="555"/>
	<unicode hex="00A4"/>
	<outline>
		<contour>
			<point x="244" y="125" type="curve" smooth="yes"/>
			<point x="388" y="123"/>
			<point x="471" y="204"/>
			<point x="471" y="285" type="curve" smooth="yes"/>
			<point x="472" y="392"/>
			<point x="419" y="506"/>
			<point x="304" y="506" type="curve" smooth="yes"/>
			<point x="197" y="506"/>
			<point x="78" y="445"/>
			<point x="78" y="337" type="curve" smooth="yes"/>
			<point x="78" y="232"/>
			<point x="137" y="126"/>
		</contour>
		<contour>
			<point x="110" y="72" type="curve"/>
			<point x="136" y="87"/>
			<point x="196" y="143"/>
			<point x="220" y="169" type="curve"/>
			<point x="206" y="195"/>
			<point x="184" y="219"/>
			<point x="155" y="245" type="curve"/>
			<point x="129" y="233"/>
			<point x="65" y="175"/>
			<point x="41" y="144" type="curve"/>
			<point x="59" y="121"/>
			<point x="87" y="95"/>
		</contour>
		<contour>
			<point x="235" y="436" type="curve"/>
			<point x="221" y="462"/>
			<point x="171" y="526"/>
			<point x="147" y="553" type="curve"/>
			<point x="120" y="541"/>
			<point x="94" y="521"/>
			<point x="66" y="494" type="curve"/>
			<point x="76" y="468"/>
			<point x="129" y="399"/>
			<point x="158" y="373" type="curve"/>
			<point x="182" y="389"/>
			<point x="211" y="415"/>
		</contour>
		<contour>
			<point x="503" y="132" type="curve"/>
			<point x="489" y="157"/>
			<point x="438" y="221"/>
			<point x="415" y="249" type="curve"/>
			<point x="387" y="237"/>
			<point x="362" y="217"/>
			<point x="333" y="189" type="curve"/>
			<point x="344" y="164"/>
			<point x="397" y="95"/>
			<point x="425" y="68" type="curve"/>
			<point x="450" y="85"/>
			<point x="478" y="111"/>
		</contour>
		<contour>
			<point x="412" y="382" type="curve"/>
			<point x="436" y="397"/>
			<point x="496" y="453"/>
			<point x="522" y="479" type="curve"/>
			<point x="507" y="505"/>
			<point x="486" y="529"/>
			<point x="456" y="555" type="curve"/>
			<point x="431" y="543"/>
			<point x="367" y="485"/>
			<point x="343" y="454" type="curve"/>
			<point x="361" y="431"/>
			<point x="389" y="405"/>
		</contour>
		<contour>
			<point x="198" y="304" type="curve"/>
			<point x="197" y="311"/>
			<point x="196" y="317"/>
			<point x="196" y="323" type="curve" smooth="yes"/>
			<point x="196" y="366"/>
			<point x="230" y="397"/>
			<point x="269" y="406" type="curve" smooth="yes"/>
			<point x="275" y="408"/>
			<point x="280" y="408"/>
			<point x="285" y="408" type="curve" smooth="yes"/>
			<point x="326" y="408"/>
			<point x="357" y="363"/>
			<point x="368" y="316" type="curve" smooth="yes"/>
			<point x="369" y="310"/>
			<point x="370" y="305"/>
			<point x="370" y="299" type="curve" smooth="yes"/>
			<point x="370" y="258"/>
			<point x="333" y="227"/>
			<point x="296" y="218" type="curve" smooth="yes"/>
			<point x="292" y="217"/>
			<point x="287" y="216"/>
			<point x="282" y="216" type="curve" smooth="yes"/>
			<point x="250" y="216"/>
			<point x="215" y="247"/>
		</contour>
	</outline>
</glyph>
<glyph name="yen" format="2">
	<advance width="764"/>
	<unicode hex="00A5"/>
	<outline>
		<contour>
			<point x="267" y="315" type="curve"/>
			<point x="340" y="333"/>
			<point x="427" y="360"/>
			<point x="494" y="395" type="curve"/>
			<point x="430" y="478"/>
			<point x="344" y="663"/>
			<point x="311" y="755" type="curve"/>
			<point x="253" y="741"/>
			<point x="133" y="692"/>
			<point x="83" y="662" type="curve"/>
			<point x="120" y="527"/>
			<point x="193" y="399"/>
		</contour>
		<contour>
			<point x="638" y="78" type="curve"/>
			<point x="640" y="93"/>
			<point x="641" y="110"/>
			<point x="641" y="126" type="curve" smooth="yes"/>
			<point x="641" y="153"/>
			<point x="638" y="180"/>
			<point x="628" y="205" type="curve"/>
			<point x="495" y="222"/>
			<point x="361" y="229"/>
			<point x="238" y="229" type="curve" smooth="yes"/>
			<point x="201" y="229"/>
			<point x="165" y="228"/>
			<point x="130" y="227" type="curve"/>
			<point x="128" y="193"/>
			<point x="142" y="130"/>
			<point x="162" y="104" type="curve"/>
			<point x="337" y="100"/>
			<point x="453" y="99"/>
		</contour>
		<contour>
			<point x="493" y="0" type="curve"/>
			<point x="492" y="140"/>
			<point x="499" y="254"/>
			<point x="534" y="389" type="curve"/>
			<point x="500" y="411"/>
			<point x="352" y="433"/>
			<point x="294" y="435" type="curve"/>
			<point x="267" y="350"/>
			<point x="251" y="237"/>
			<point x="251" y="133" type="curve" smooth="yes"/>
			<point x="251" y="104"/>
			<point x="252" y="76"/>
			<point x="255" y="49" type="curve"/>
			<point x="289" y="28"/>
			<point x="456" y="-4"/>
		</contour>
		<contour>
			<point x="656" y="231" type="curve"/>
			<point x="657" y="239"/>
			<point x="658" y="248"/>
			<point x="658" y="257" type="curve" smooth="yes"/>
			<point x="658" y="291"/>
			<point x="650" y="327"/>
			<point x="637" y="359" type="curve"/>
			<point x="514" y="375"/>
			<point x="371" y="381"/>
			<point x="244" y="381" type="curve" smooth="yes"/>
			<point x="192" y="381"/>
			<point x="144" y="380"/>
			<point x="100" y="378" type="curve"/>
			<point x="98" y="371"/>
			<point x="96" y="360"/>
			<point x="96" y="349" type="curve" smooth="yes"/>
			<point x="96" y="315"/>
			<point x="106" y="271"/>
			<point x="127" y="256" type="curve"/>
			<point x="302" y="253"/>
			<point x="471" y="252"/>
		</contour>
		<contour>
			<point x="512" y="287" type="curve"/>
			<point x="567" y="421"/>
			<point x="646" y="512"/>
			<point x="760" y="590" type="curve"/>
			<point x="712" y="653"/>
			<point x="626" y="724"/>
			<point x="577" y="755" type="curve"/>
			<point x="491" y="653"/>
			<point x="430" y="507"/>
			<point x="393" y="377" type="curve"/>
			<point x="426" y="331"/>
			<point x="463" y="320"/>
		</contour>
	</outline>
</glyph>
<glyph name="brokenbar" format="2">
	<advance width="256"/>
	<unicode hex="00A6"/>
	<outline>
		<contour>
			<point x="186" y="302" type="curve"/>
			<point x="199" y="417"/>
			<point x="224" y="534"/>
			<point x="262" y="692" type="curve"/>
			<point x="215" y="714"/>
			<point x="155" y="720"/>
			<point x="109" y="718" type="curve"/>
			<point x="72" y="564"/>
			<point x="57" y="431"/>
			<point x="49" y="321" type="curve"/>
			<point x="75" y="308"/>
			<point x="120" y="300"/>
			<point x="157" y="300" type="curve" smooth="yes"/>
			<point x="168" y="300"/>
			<point x="177" y="301"/>
		</contour>
		<contour>
			<point x="153" y="-170" type="curve"/>
			<point x="156" y="-69"/>
			<point x="162" y="66"/>
			<point x="187" y="220" type="curve"/>
			<point x="140" y="242"/>
			<point x="92" y="248"/>
			<point x="46" y="246" type="curve"/>
			<point x="27" y="91"/>
			<point x="16" y="-51"/>
			<point x="16" y="-151" type="curve"/>
			<point x="42" y="-164"/>
			<point x="87" y="-172"/>
			<point x="124" y="-172" type="curve" smooth="yes"/>
			<point x="135" y="-172"/>
			<point x="144" y="-171"/>
		</contour>
	</outline>
</glyph>
<glyph name="section" format="2">
	<advance width="514"/>
	<unicode hex="00A7"/>
	<outline>
		<contour>
			<point x="310" y="582" type="curve" smooth="yes"/>
			<point x="328" y="582"/>
			<point x="337" y="569"/>
			<point x="343" y="548" type="curve" smooth="yes"/>
			<point x="350" y="523"/>
			<point x="367" y="492"/>
			<point x="408" y="492" type="curve" smooth="yes"/>
			<point x="472" y="492"/>
			<point x="509" y="532"/>
			<point x="509" y="591" type="curve" smooth="yes"/>
			<point x="509" y="683"/>
			<point x="419" y="725"/>
			<point x="307" y="725" type="curve" smooth="yes"/>
			<point x="162" y="724"/>
			<point x="100" y="628"/>
			<point x="100" y="552" type="curve" smooth="yes"/>
			<point x="100" y="475"/>
			<point x="149" y="426"/>
			<point x="214" y="385" type="curve" smooth="yes"/>
			<point x="355" y="296"/>
			<point x="330" y="235"/>
			<point x="247" y="179" type="curve" smooth="yes"/>
			<point x="235" y="171"/>
			<point x="310" y="93"/>
			<point x="325" y="102" type="curve" smooth="yes"/>
			<point x="479" y="194"/>
			<point x="508" y="381"/>
			<point x="350" y="475" type="curve" smooth="yes"/>
			<point x="306" y="502"/>
			<point x="271" y="512"/>
			<point x="271" y="548" type="curve" smooth="yes"/>
			<point x="271" y="567"/>
			<point x="287" y="582"/>
		</contour>
		<contour>
			<point x="216" y="9" type="curve" smooth="yes"/>
			<point x="198" y="9"/>
			<point x="186" y="23"/>
			<point x="182" y="47" type="curve" smooth="yes"/>
			<point x="177" y="72"/>
			<point x="156" y="99"/>
			<point x="115" y="99" type="curve" smooth="yes"/>
			<point x="51" y="98"/>
			<point x="14" y="58"/>
			<point x="15" y="8" type="curve" smooth="yes"/>
			<point x="16" y="-93"/>
			<point x="100" y="-133"/>
			<point x="218" y="-133" type="curve" smooth="yes"/>
			<point x="363" y="-133"/>
			<point x="424" y="-44"/>
			<point x="423" y="32" type="curve" smooth="yes"/>
			<point x="423" y="99"/>
			<point x="391" y="149"/>
			<point x="328" y="194" type="curve" smooth="yes"/>
			<point x="229" y="265"/>
			<point x="203" y="340"/>
			<point x="280" y="401" type="curve" smooth="yes"/>
			<point x="319" y="432"/>
			<point x="261" y="462"/>
			<point x="224" y="454" type="curve" smooth="yes"/>
			<point x="48" y="415"/>
			<point x="4" y="213"/>
			<point x="173" y="116" type="curve" smooth="yes"/>
			<point x="217" y="90"/>
			<point x="252" y="80"/>
			<point x="253" y="44" type="curve" smooth="yes"/>
			<point x="253" y="25"/>
			<point x="237" y="9"/>
		</contour>
	</outline>
</glyph>
<glyph name="dieresis" format="2">
	<advance width="491"/>
	<unicode hex="00A8"/>
	<anchor x="276" y="500" name="_top"/>
	<outline>
		<contour>
			<point x="388" y="543" type="curve" smooth="yes"/>
			<point x="453" y="543"/>
			<point x="490" y="584"/>
			<point x="490" y="626" type="curve" smooth="yes"/>
			<point x="490" y="679"/>
			<point x="465" y="737"/>
			<point x="415" y="737" type="curve" smooth="yes"/>
			<point x="366" y="737"/>
			<point x="311" y="706"/>
			<point x="311" y="652" type="curve" smooth="yes"/>
			<point x="311" y="598"/>
			<point x="338" y="543"/>
		</contour>
		<contour>
			<point x="160" y="555" type="curve" smooth="yes"/>
			<point x="226" y="555"/>
			<point x="263" y="596"/>
			<point x="263" y="638" type="curve" smooth="yes"/>
			<point x="263" y="691"/>
			<point x="238" y="750"/>
			<point x="188" y="750" type="curve" smooth="yes"/>
			<point x="139" y="750"/>
			<point x="84" y="718"/>
			<point x="84" y="664" type="curve" smooth="yes"/>
			<point x="84" y="611"/>
			<point x="111" y="555"/>
		</contour>
	</outline>
</glyph>
<glyph name="copyright" format="2">
	<advance width="812"/>
	<unicode hex="00A9"/>
	<outline>
		<contour>
			<point x="414" y="-40" type="curve" smooth="yes"/>
			<point x="641" y="-40"/>
			<point x="782" y="165"/>
			<point x="782" y="373" type="curve" smooth="yes"/>
			<point x="782" y="562"/>
			<point x="647" y="711"/>
			<point x="436" y="711" type="curve" smooth="yes"/>
			<point x="194" y="711"/>
			<point x="47" y="524"/>
			<point x="47" y="285" type="curve" smooth="yes"/>
			<point x="47" y="87"/>
			<point x="200" y="-40"/>
		</contour>
		<contour>
			<point x="412" y="93" type="curve" smooth="yes"/>
			<point x="274" y="93"/>
			<point x="195" y="181"/>
			<point x="195" y="296" type="curve" smooth="yes"/>
			<point x="195" y="455"/>
			<point x="287" y="575"/>
			<point x="435" y="575" type="curve" smooth="yes"/>
			<point x="556" y="575"/>
			<point x="617" y="506"/>
			<point x="617" y="362" type="curve" smooth="yes"/>
			<point x="617" y="206"/>
			<point x="556" y="93"/>
		</contour>
		<contour>
			<point x="396" y="164" type="curve" smooth="yes"/>
			<point x="443" y="159"/>
			<point x="514" y="182"/>
			<point x="542" y="225" type="curve"/>
			<point x="531" y="246"/>
			<point x="518" y="273"/>
			<point x="512" y="281" type="curve"/>
			<point x="450" y="242"/>
			<point x="379" y="260"/>
			<point x="379" y="325" type="curve" smooth="yes"/>
			<point x="379" y="379"/>
			<point x="409" y="405"/>
			<point x="427" y="405" type="curve" smooth="yes"/>
			<point x="435" y="405"/>
			<point x="447" y="396"/>
			<point x="451" y="381" type="curve" smooth="yes"/>
			<point x="458" y="360"/>
			<point x="476" y="353"/>
			<point x="497" y="353" type="curve" smooth="yes"/>
			<point x="531" y="353"/>
			<point x="561" y="390"/>
			<point x="550" y="427" type="curve" smooth="yes"/>
			<point x="538" y="471"/>
			<point x="500" y="494"/>
			<point x="436" y="500" type="curve" smooth="yes"/>
			<point x="343" y="510"/>
			<point x="264" y="446"/>
			<point x="252" y="336" type="curve" smooth="yes"/>
			<point x="244" y="250"/>
			<point x="307" y="174"/>
		</contour>
	</outline>
</glyph>
<glyph name="guillemetleft" format="2">
	<advance width="799"/>
	<unicode hex="00AB"/>
	<outline>
		<contour>
			<point x="255" y="243" type="curve"/>
			<point x="311" y="295"/>
			<point x="393" y="365"/>
			<point x="466" y="417" type="curve"/>
			<point x="434" y="463"/>
			<point x="381" y="512"/>
			<point x="343" y="535" type="curve"/>
			<point x="240" y="459"/>
			<point x="133" y="358"/>
			<point x="40" y="251" type="curve"/>
			<point x="81" y="217"/>
			<point x="222" y="227"/>
		</contour>
		<contour>
			<point x="276" y="-35" type="curve"/>
			<point x="321" y="-15"/>
			<point x="395" y="33"/>
			<point x="421" y="72" type="curve"/>
			<point x="359" y="115"/>
			<point x="301" y="178"/>
			<point x="255" y="243" type="curve"/>
			<point x="220" y="256"/>
			<point x="72" y="289"/>
			<point x="40" y="251" type="curve"/>
			<point x="126" y="117"/>
			<point x="200" y="29"/>
		</contour>
		<contour>
			<point x="588" y="-35" type="curve"/>
			<point x="633" y="-15"/>
			<point x="700" y="44"/>
			<point x="726" y="82" type="curve"/>
			<point x="664" y="126"/>
			<point x="613" y="178"/>
			<point x="567" y="243" type="curve"/>
			<point x="532" y="256"/>
			<point x="376" y="277"/>
			<point x="344" y="239" type="curve"/>
			<point x="430" y="105"/>
			<point x="512" y="29"/>
		</contour>
		<contour>
			<point x="344" y="239" type="curve"/>
			<point x="385" y="205"/>
			<point x="534" y="227"/>
			<point x="567" y="243" type="curve"/>
			<point x="623" y="295"/>
			<point x="702" y="348"/>
			<point x="774" y="393" type="curve"/>
			<point x="748" y="443"/>
			<point x="701" y="496"/>
			<point x="667" y="522" type="curve"/>
			<point x="557" y="451"/>
			<point x="438" y="346"/>
		</contour>
	</outline>
</glyph>
<glyph name="logicalnot" format="2">
	<advance width="595"/>
	<unicode hex="00AC"/>
	<outline>
		<contour>
			<point x="77" y="239" type="curve"/>
			<point x="174" y="249"/>
			<point x="307" y="254"/>
			<point x="421" y="254" type="curve" smooth="yes"/>
			<point x="465" y="254"/>
			<point x="506" y="254"/>
			<point x="540" y="252" type="curve"/>
			<point x="543" y="288"/>
			<point x="544" y="329"/>
			<point x="552" y="353" type="curve"/>
			<point x="418" y="375"/>
			<point x="278" y="383"/>
			<point x="173" y="383" type="curve" smooth="yes"/>
			<point x="124" y="383"/>
			<point x="83" y="381"/>
			<point x="54" y="378" type="curve"/>
			<point x="53" y="373"/>
			<point x="53" y="366"/>
			<point x="53" y="359" type="curve" smooth="yes"/>
			<point x="53" y="322"/>
			<point x="64" y="268"/>
		</contour>
		<contour>
			<point x="416" y="129" type="curve"/>
			<point x="443" y="123"/>
			<point x="479" y="122"/>
			<point x="511" y="122" type="curve" smooth="yes"/>
			<point x="542" y="122" type="line"/>
			<point x="540" y="142"/>
			<point x="539" y="166"/>
			<point x="539" y="190" type="curve" smooth="yes"/>
			<point x="539" y="244"/>
			<point x="544" y="305"/>
			<point x="552" y="353" type="curve"/>
			<point x="534" y="348"/>
			<point x="519" y="346"/>
			<point x="504" y="346" type="curve" smooth="yes"/>
			<point x="484" y="346"/>
			<point x="465" y="349"/>
			<point x="444" y="350" type="curve"/>
			<point x="418" y="276"/>
			<point x="415" y="192"/>
		</contour>
	</outline>
</glyph>
<glyph name="registered" format="2">
	<advance width="514"/>
	<unicode hex="00AE"/>
	<outline>
		<contour>
			<point x="284" y="289" type="curve" smooth="yes"/>
			<point x="418" y="289"/>
			<point x="502" y="410"/>
			<point x="502" y="534" type="curve" smooth="yes"/>
			<point x="502" y="646"/>
			<point x="422" y="734"/>
			<point x="297" y="734" type="curve" smooth="yes"/>
			<point x="153" y="734"/>
			<point x="66" y="623"/>
			<point x="66" y="481" type="curve" smooth="yes"/>
			<point x="66" y="364"/>
			<point x="157" y="289"/>
		</contour>
		<contour>
			<point x="282" y="368" type="curve" smooth="yes"/>
			<point x="201" y="368"/>
			<point x="154" y="420"/>
			<point x="154" y="488" type="curve" smooth="yes"/>
			<point x="154" y="582"/>
			<point x="208" y="653"/>
			<point x="296" y="653" type="curve" smooth="yes"/>
			<point x="368" y="653"/>
			<point x="404" y="612"/>
			<point x="404" y="527" type="curve" smooth="yes"/>
			<point x="404" y="435"/>
			<point x="368" y="368"/>
		</contour>
		<contour>
			<point x="269" y="408" type="curve"/>
			<point x="269" y="461"/>
			<point x="272" y="506"/>
			<point x="280" y="548" type="curve"/>
			<point x="272" y="558"/>
			<point x="232" y="564"/>
			<point x="217" y="564" type="curve"/>
			<point x="208" y="521"/>
			<point x="204" y="471"/>
			<point x="205" y="425" type="curve"/>
			<point x="214" y="417"/>
			<point x="249" y="408"/>
		</contour>
		<contour>
			<point x="323" y="408" type="curve"/>
			<point x="342" y="415"/>
			<point x="363" y="430"/>
			<point x="374" y="442" type="curve"/>
			<point x="358" y="454"/>
			<point x="339" y="478"/>
			<point x="325" y="501" type="curve"/>
			<point x="277" y="487" type="line"/>
			<point x="292" y="457"/>
			<point x="305" y="432"/>
		</contour>
		<contour>
			<point x="265" y="477" type="curve" smooth="yes"/>
			<point x="328" y="473"/>
			<point x="362" y="509"/>
			<point x="362" y="544" type="curve" smooth="yes"/>
			<point x="362" y="584"/>
			<point x="331" y="609"/>
			<point x="281" y="609" type="curve" smooth="yes"/>
			<point x="262" y="609"/>
			<point x="240" y="605"/>
			<point x="215" y="597" type="curve"/>
			<point x="215" y="582"/>
			<point x="222" y="558"/>
			<point x="228" y="544" type="curve"/>
			<point x="244" y="553"/>
			<point x="260" y="557"/>
			<point x="272" y="557" type="curve" smooth="yes"/>
			<point x="289" y="557"/>
			<point x="300" y="549"/>
			<point x="300" y="534" type="curve" smooth="yes"/>
			<point x="300" y="517"/>
			<point x="289" y="509"/>
			<point x="269" y="509" type="curve" smooth="yes"/>
			<point x="260" y="509"/>
			<point x="257" y="502"/>
			<point x="257" y="494" type="curve" smooth="yes"/>
			<point x="257" y="486"/>
			<point x="261" y="477"/>
		</contour>
	</outline>
</glyph>
<glyph name="macron" format="2">
	<advance width="479"/>
	<unicode hex="00AF"/>
	<anchor x="275" y="500" name="_top"/>
	<outline>
		<contour>
			<point x="88" y="704" type="curve"/>
			<point x="91" y="676"/>
			<point x="100" y="640"/>
			<point x="116" y="615" type="curve"/>
			<point x="159" y="616"/>
			<point x="270" y="621"/>
			<point x="361" y="621" type="curve" smooth="yes"/>
			<point x="409" y="621"/>
			<point x="451" y="620"/>
			<point x="475" y="615" type="curve"/>
			<point x="478" y="622"/>
			<point x="479" y="631"/>
			<point x="479" y="640" type="curve" smooth="yes"/>
			<point x="479" y="667"/>
			<point x="470" y="702"/>
			<point x="465" y="728" type="curve"/>
			<point x="390" y="728"/>
			<point x="184" y="719"/>
		</contour>
	</outline>
</glyph>
<glyph name="degree" format="2">
	<advance width="437"/>
	<unicode hex="00B0"/>
	<outline>
		<contour>
			<point x="231" y="444" type="curve" smooth="yes"/>
			<point x="359" y="444"/>
			<point x="432" y="516"/>
			<point x="432" y="588" type="curve" smooth="yes"/>
			<point x="432" y="682"/>
			<point x="383" y="784"/>
			<point x="284" y="784" type="curve" smooth="yes"/>
			<point x="189" y="784"/>
			<point x="81" y="730"/>
			<point x="81" y="635" type="curve" smooth="yes"/>
			<point x="81" y="540"/>
			<point x="134" y="444"/>
		</contour>
		<contour>
			<point x="230" y="613" type="curve" smooth="yes"/>
			<point x="229" y="617"/>
			<point x="228" y="622"/>
			<point x="228" y="626" type="curve" smooth="yes"/>
			<point x="228" y="653"/>
			<point x="251" y="673"/>
			<point x="275" y="679" type="curve" smooth="yes"/>
			<point x="278" y="680"/>
			<point x="282" y="681"/>
			<point x="285" y="681" type="curve" smooth="yes"/>
			<point x="311" y="681"/>
			<point x="331" y="652"/>
			<point x="338" y="622" type="curve" smooth="yes"/>
			<point x="339" y="618"/>
			<point x="339" y="614"/>
			<point x="339" y="610" type="curve" smooth="yes"/>
			<point x="339" y="584"/>
			<point x="317" y="565"/>
			<point x="293" y="559" type="curve" smooth="yes"/>
			<point x="290" y="558"/>
			<point x="287" y="558"/>
			<point x="284" y="558" type="curve" smooth="yes"/>
			<point x="263" y="558"/>
			<point x="241" y="577"/>
		</contour>
	</outline>
</glyph>
<glyph name="plusminus" format="2">
	<advance width="748"/>
	<unicode hex="00B1"/>
	<outline>
		<contour>
			<point x="447" y="116" type="curve"/>
			<point x="451" y="333"/>
			<point x="465" y="510"/>
			<point x="504" y="715" type="curve"/>
			<point x="462" y="746"/>
			<point x="365" y="766"/>
			<point x="317" y="764" type="curve"/>
			<point x="286" y="579"/>
			<point x="272" y="390"/>
			<point x="283" y="168" type="curve"/>
			<point x="313" y="138"/>
			<point x="390" y="114"/>
		</contour>
		<contour>
			<point x="96" y="-70" type="curve"/>
			<point x="263" y="-53"/>
			<point x="523" y="-46"/>
			<point x="676" y="-54" type="curve"/>
			<point x="680" y="-9"/>
			<point x="678" y="42"/>
			<point x="670" y="91" type="curve"/>
			<point x="443" y="112"/>
			<point x="179" y="115"/>
			<point x="67" y="103" type="curve"/>
			<point x="61" y="60"/>
			<point x="76" y="-27"/>
		</contour>
		<contour>
			<point x="96" y="337" type="curve"/>
			<point x="263" y="353"/>
			<point x="523" y="361"/>
			<point x="676" y="353" type="curve"/>
			<point x="680" y="397"/>
			<point x="678" y="449"/>
			<point x="670" y="498" type="curve"/>
			<point x="443" y="518"/>
			<point x="179" y="521"/>
			<point x="67" y="509" type="curve"/>
			<point x="61" y="467"/>
			<point x="76" y="380"/>
		</contour>
	</outline>
</glyph>
<glyph name="acute" format="2">
	<advance width="314"/>
	<unicode hex="00B4"/>
	<anchor x="126" y="500" name="_top"/>
	<outline>
		<contour>
			<point x="210" y="524" type="curve"/>
			<point x="240" y="583"/>
			<point x="274" y="642"/>
			<point x="323" y="719" type="curve"/>
			<point x="283" y="746"/>
			<point x="213" y="778"/>
			<point x="171" y="792" type="curve"/>
			<point x="136" y="725"/>
			<point x="103" y="650"/>
			<point x="74" y="569" type="curve"/>
			<point x="102" y="556"/>
			<point x="172" y="532"/>
		</contour>
	</outline>
</glyph>
<glyph name="micro" format="2">
	<advance width="665"/>
	<unicode hex="00B5"/>
	<outline>
		<contour>
			<point x="240" y="-250" type="curve"/>
			<point x="237" y="-79"/>
			<point x="264" y="329"/>
			<point x="292" y="468" type="curve"/>
			<point x="252" y="499"/>
			<point x="127" y="523"/>
			<point x="74" y="522" type="curve"/>
			<point x="52" y="404"/>
			<point x="37" y="220"/>
			<point x="37" y="44" type="curve" smooth="yes"/>
			<point x="37" y="-55"/>
			<point x="42" y="-151"/>
			<point x="52" y="-232" type="curve"/>
			<point x="113" y="-249"/>
			<point x="186" y="-250"/>
		</contour>
		<contour>
			<point x="247" y="55" type="curve"/>
			<point x="247" y="34"/>
			<point x="260" y="20"/>
			<point x="279" y="20" type="curve" smooth="yes"/>
			<point x="323" y="20"/>
			<point x="399" y="90"/>
			<point x="418" y="306" type="curve" smooth="yes"/>
			<point x="422" y="345"/>
			<point x="433" y="379"/>
			<point x="433" y="410" type="curve" smooth="yes"/>
			<point x="433" y="428"/>
			<point x="429" y="445"/>
			<point x="417" y="460" type="curve"/>
			<point x="368" y="218"/>
			<point x="311" y="136"/>
			<point x="280" y="136" type="curve" smooth="yes"/>
			<point x="267" y="136"/>
			<point x="259" y="152"/>
			<point x="259" y="176" type="curve" smooth="yes"/>
			<point x="259" y="187"/>
			<point x="258" y="191"/>
			<point x="256" y="191" type="curve" smooth="yes"/>
			<point x="250" y="191"/>
			<point x="237" y="146"/>
			<point x="237" y="105" type="curve" smooth="yes"/>
			<point x="237" y="86"/>
			<point x="239" y="68"/>
		</contour>
		<contour>
			<point x="596" y="-22" type="curve"/>
			<point x="597" y="149"/>
			<point x="615" y="329"/>
			<point x="643" y="468" type="curve"/>
			<point x="603" y="499"/>
			<point x="478" y="523"/>
			<point x="425" y="522" type="curve"/>
			<point x="394" y="402"/>
			<point x="377" y="246"/>
			<point x="377" y="100" type="curve" smooth="yes"/>
			<point x="377" y="79"/>
			<point x="377" y="58"/>
			<point x="378" y="37" type="curve"/>
			<point x="429" y="-8"/>
			<point x="542" y="-22"/>
		</contour>
	</outline>
</glyph>
<glyph name="paragraph" format="2">
	<advance width="635"/>
	<unicode hex="00B6"/>
	<outline>
		<contour>
			<point x="548" y="-172" type="curve"/>
			<point x="557" y="107"/>
			<point x="591" y="432"/>
			<point x="641" y="692" type="curve"/>
			<point x="594" y="714"/>
			<point x="534" y="720"/>
			<point x="488" y="718" type="curve"/>
			<point x="440" y="446"/>
			<point x="411" y="102"/>
			<point x="411" y="-153" type="curve"/>
			<point x="437" y="-166"/>
			<point x="482" y="-174"/>
			<point x="519" y="-174" type="curve" smooth="yes"/>
			<point x="530" y="-174"/>
			<point x="539" y="-173"/>
		</contour>
		<contour>
			<point x="364" y="-159" type="curve"/>
			<point x="373" y="120"/>
			<point x="407" y="445"/>
			<point x="457" y="705" type="curve"/>
			<point x="410" y="727"/>
			<point x="365" y="733"/>
			<point x="304" y="731" type="curve" smooth="yes"/>
			<point x="143" y="727"/>
			<point x="64" y="590"/>
			<point x="64" y="460" type="curve" smooth="yes"/>
			<point x="64" y="346"/>
			<point x="125" y="237"/>
			<point x="245" y="226" type="curve"/>
			<point x="236" y="95"/>
			<point x="227" y="-43"/>
			<point x="227" y="-140" type="curve"/>
			<point x="253" y="-153"/>
			<point x="298" y="-161"/>
			<point x="335" y="-161" type="curve" smooth="yes"/>
			<point x="346" y="-161"/>
			<point x="355" y="-160"/>
		</contour>
	</outline>
</glyph>
<glyph name="cedilla" format="2">
	<advance width="295"/>
	<unicode hex="00B8"/>
	<anchor x="105" y="0" name="_bottom"/>
	<outline>
		<contour>
			<point x="-9" y="-219" type="line"/>
			<point x="26" y="-242"/>
			<point x="63" y="-253"/>
			<point x="95" y="-253" type="curve" smooth="yes"/>
			<point x="161" y="-253"/>
			<point x="212" y="-212"/>
			<point x="212" y="-153" type="curve" smooth="yes"/>
			<point x="212" y="-85"/>
			<point x="150" y="-47"/>
			<point x="63" y="-47" type="curve" smooth="yes"/>
			<point x="51" y="-47"/>
			<point x="39" y="-48"/>
			<point x="27" y="-49" type="curve"/>
			<point x="4" y="-94" type="line"/>
			<point x="45" y="-103"/>
			<point x="81" y="-111"/>
			<point x="81" y="-141" type="curve" smooth="yes"/>
			<point x="81" y="-159"/>
			<point x="70" y="-169"/>
			<point x="51" y="-169" type="curve" smooth="yes"/>
			<point x="39" y="-169"/>
			<point x="24" y="-165"/>
			<point x="7" y="-156" type="curve"/>
		</contour>
		<contour>
			<point x="131" y="-120" type="curve"/>
			<point x="151" y="-52"/>
			<point x="147" y="-18"/>
			<point x="147" y="10" type="curve"/>
			<point x="141" y="12"/>
			<point x="128" y="13"/>
			<point x="113" y="13" type="curve" smooth="yes"/>
			<point x="92" y="13"/>
			<point x="67" y="11"/>
			<point x="54" y="10" type="curve"/>
			<point x="40" y="-14"/>
			<point x="30" y="-30"/>
			<point x="4" y="-94" type="curve"/>
			<point x="32" y="-99"/>
			<point x="104" y="-114"/>
		</contour>
	</outline>
</glyph>
<glyph name="guillemetright" format="2">
	<advance width="799"/>
	<unicode hex="00BB"/>
	<outline>
		<contour>
			<point x="455" y="-40" type="curve"/>
			<point x="543" y="55"/>
			<point x="653" y="157"/>
			<point x="758" y="244" type="curve"/>
			<point x="717" y="278"/>
			<point x="576" y="268"/>
			<point x="544" y="252" type="curve"/>
			<point x="481" y="209"/>
			<point x="405" y="147"/>
			<point x="332" y="78" type="curve"/>
			<point x="364" y="32"/>
			<point x="417" y="-16"/>
		</contour>
		<contour>
			<point x="131" y="-27" type="curve"/>
			<point x="228" y="75"/>
			<point x="339" y="169"/>
			<point x="454" y="256" type="curve"/>
			<point x="413" y="290"/>
			<point x="264" y="268"/>
			<point x="232" y="252" type="curve"/>
			<point x="172" y="220"/>
			<point x="94" y="163"/>
			<point x="24" y="102" type="curve"/>
			<point x="51" y="52"/>
			<point x="97" y="-1"/>
		</contour>
		<contour>
			<point x="232" y="252" type="curve"/>
			<point x="266" y="239"/>
			<point x="422" y="218"/>
			<point x="454" y="256" type="curve"/>
			<point x="360" y="340"/>
			<point x="272" y="440"/>
			<point x="210" y="530" type="curve"/>
			<point x="165" y="510"/>
			<point x="98" y="452"/>
			<point x="72" y="413" type="curve"/>
			<point x="124" y="349"/>
			<point x="173" y="300"/>
		</contour>
		<contour>
			<point x="758" y="244" type="curve"/>
			<point x="673" y="335"/>
			<point x="582" y="443"/>
			<point x="522" y="530" type="curve"/>
			<point x="477" y="510"/>
			<point x="403" y="462"/>
			<point x="377" y="423" type="curve"/>
			<point x="426" y="357"/>
			<point x="485" y="299"/>
			<point x="544" y="252" type="curve"/>
			<point x="578" y="239"/>
			<point x="726" y="206"/>
		</contour>
	</outline>
</glyph>
<glyph name="onequarter" format="2">
	<advance width="940"/>
	<unicode hex="00BC"/>
	<outline>
		<contour>
			<point x="293" y="379" type="curve"/>
			<point x="298" y="502"/>
			<point x="309" y="624"/>
			<point x="333" y="745" type="curve"/>
			<point x="315" y="762"/>
			<point x="235" y="778"/>
			<point x="204" y="777" type="curve"/>
			<point x="182" y="681"/>
			<point x="164" y="521"/>
			<point x="166" y="413" type="curve"/>
			<point x="182" y="398"/>
			<point x="253" y="378"/>
			<point x="284" y="378" type="curve" smooth="yes"/>
			<point x="288" y="378"/>
			<point x="291" y="378"/>
		</contour>
		<contour>
			<point x="128" y="611" type="curve"/>
			<point x="170" y="638"/>
			<point x="208" y="675"/>
			<point x="239" y="724" type="curve"/>
			<point x="228" y="745"/>
			<point x="216" y="763"/>
			<point x="204" y="777" type="curve"/>
			<point x="167" y="745"/>
			<point x="134" y="722"/>
			<point x="87" y="697" type="curve"/>
			<point x="101" y="664"/>
			<point x="117" y="631"/>
		</contour>
		<contour>
			<point x="237" y="-95" type="curve"/>
			<point x="416" y="165"/>
			<point x="681" y="488"/>
			<point x="899" y="689" type="curve"/>
			<point x="860" y="746"/>
			<point x="800" y="784"/>
			<point x="748" y="809" type="curve"/>
			<point x="526" y="603"/>
			<point x="281" y="320"/>
			<point x="101" y="41" type="curve"/>
			<point x="139" y="-23"/>
			<point x="179" y="-67"/>
		</contour>
		<contour>
			<point x="870" y="-36" type="curve"/>
			<point x="875" y="91"/>
			<point x="883" y="175"/>
			<point x="899" y="276" type="curve"/>
			<point x="881" y="294"/>
			<point x="798" y="310"/>
			<point x="766" y="309" type="curve"/>
			<point x="749" y="218"/>
			<point x="736" y="111"/>
			<point x="738" y="0" type="curve"/>
			<point x="757" y="-18"/>
			<point x="840" y="-36"/>
		</contour>
		<contour>
			<point x="580" y="98" type="curve"/>
			<point x="630" y="105"/>
			<point x="679" y="110"/>
			<point x="731" y="110" type="curve" smooth="yes"/>
			<point x="749" y="110"/>
			<point x="768" y="109"/>
			<point x="787" y="108" type="curve"/>
			<point x="788" y="119"/>
			<point x="789" y="132"/>
			<point x="789" y="147" type="curve" smooth="yes"/>
			<point x="789" y="163"/>
			<point x="788" y="180"/>
			<point x="785" y="197" type="curve"/>
			<point x="748" y="202"/>
			<point x="707" y="204"/>
			<point x="667" y="204" type="curve" smooth="yes"/>
			<point x="631" y="204"/>
			<point x="597" y="202"/>
			<point x="567" y="199" type="curve"/>
			<point x="564" y="175"/>
			<point x="568" y="114"/>
		</contour>
		<contour>
			<point x="658" y="142" type="curve"/>
			<point x="711" y="215"/>
			<point x="734" y="258"/>
			<point x="764" y="327" type="curve"/>
			<point x="751" y="347"/>
			<point x="686" y="381"/>
			<point x="658" y="389" type="curve"/>
			<point x="632" y="320"/>
			<point x="609" y="266"/>
			<point x="567" y="199" type="curve"/>
			<point x="579" y="178"/>
			<point x="638" y="143"/>
		</contour>
	</outline>
</glyph>
<glyph name="onehalf" format="2">
	<advance width="951"/>
	<unicode hex="00BD"/>
	<outline>
		<contour>
			<point x="298" y="344" type="curve"/>
			<point x="303" y="480"/>
			<point x="315" y="614"/>
			<point x="339" y="747" type="curve"/>
			<point x="321" y="767"/>
			<point x="239" y="784"/>
			<point x="207" y="783" type="curve"/>
			<point x="183" y="677"/>
			<point x="165" y="501"/>
			<point x="167" y="382" type="curve"/>
			<point x="186" y="363"/>
			<point x="277" y="338"/>
		</contour>
		<contour>
			<point x="129" y="600" type="curve"/>
			<point x="171" y="630"/>
			<point x="211" y="671"/>
			<point x="243" y="724" type="curve"/>
			<point x="232" y="747"/>
			<point x="218" y="768"/>
			<point x="207" y="783" type="curve"/>
			<point x="168" y="748"/>
			<point x="134" y="722"/>
			<point x="87" y="695" type="curve"/>
			<point x="101" y="659"/>
			<point x="116" y="622"/>
		</contour>
		<contour>
			<point x="260" y="-99" type="curve"/>
			<point x="439" y="161"/>
			<point x="707" y="465"/>
			<point x="925" y="684" type="curve"/>
			<point x="886" y="741"/>
			<point x="822" y="798"/>
			<point x="770" y="823" type="curve"/>
			<point x="548" y="617"/>
			<point x="293" y="320"/>
			<point x="113" y="41" type="curve"/>
			<point x="151" y="-23"/>
			<point x="202" y="-71"/>
		</contour>
		<contour>
			<point x="624" y="13" type="curve"/>
			<point x="670" y="-48"/>
			<point x="663" y="9"/>
			<point x="725" y="39" type="curve" smooth="yes"/>
			<point x="839" y="94"/>
			<point x="910" y="203"/>
			<point x="910" y="264" type="curve" smooth="yes"/>
			<point x="910" y="335"/>
			<point x="854" y="378"/>
			<point x="764" y="378" type="curve" smooth="yes"/>
			<point x="678" y="378"/>
			<point x="623" y="335"/>
			<point x="624" y="296" type="curve" smooth="yes"/>
			<point x="625" y="262"/>
			<point x="649" y="243"/>
			<point x="673" y="243" type="curve" smooth="yes"/>
			<point x="717" y="243"/>
			<point x="723" y="285"/>
			<point x="754" y="285" type="curve" smooth="yes"/>
			<point x="819" y="285"/>
			<point x="803" y="160"/>
			<point x="589" y="73" type="curve"/>
			<point x="597" y="31"/>
			<point x="602" y="0"/>
			<point x="602" y="22" type="curve"/>
			<point x="608" y="34"/>
			<point x="632" y="27"/>
		</contour>
		<contour>
			<point x="605" y="-46" type="curve"/>
			<point x="696" y="-36"/>
			<point x="781" y="-32"/>
			<point x="881" y="-35" type="curve"/>
			<point x="885" y="-7"/>
			<point x="890" y="38"/>
			<point x="879" y="71" type="curve"/>
			<point x="786" y="84"/>
			<point x="670" y="84"/>
			<point x="589" y="73" type="curve"/>
			<point x="585" y="45"/>
			<point x="590" y="-28"/>
		</contour>
	</outline>
</glyph>
<glyph name="threequarters" format="2">
	<advance width="1014"/>
	<unicode hex="00BE"/>
	<outline>
		<contour>
			<point x="300" y="-115" type="curve"/>
			<point x="479" y="145"/>
			<point x="757" y="465"/>
			<point x="975" y="684" type="curve"/>
			<point x="936" y="741"/>
			<point x="866" y="798"/>
			<point x="814" y="823" type="curve"/>
			<point x="592" y="617"/>
			<point x="337" y="320"/>
			<point x="157" y="41" type="curve"/>
			<point x="179" y="-8"/>
			<point x="242" y="-87"/>
		</contour>
		<contour>
			<point x="62" y="434" type="curve"/>
			<point x="87" y="380"/>
			<point x="143" y="355"/>
			<point x="198" y="355" type="curve" smooth="yes"/>
			<point x="268" y="355"/>
			<point x="337" y="396"/>
			<point x="337" y="469" type="curve" smooth="yes"/>
			<point x="337" y="532"/>
			<point x="274" y="574"/>
			<point x="189" y="574" type="curve" smooth="yes"/>
			<point x="179" y="574"/>
			<point x="169" y="573"/>
			<point x="159" y="572" type="curve"/>
			<point x="164" y="547"/>
			<point x="167" y="525"/>
			<point x="175" y="506" type="curve"/>
			<point x="202" y="502"/>
			<point x="215" y="488"/>
			<point x="215" y="475" type="curve" smooth="yes"/>
			<point x="215" y="462"/>
			<point x="202" y="450"/>
			<point x="175" y="450" type="curve" smooth="yes"/>
			<point x="154" y="450"/>
			<point x="127" y="457"/>
			<point x="92" y="475" type="curve"/>
			<point x="80" y="461"/>
			<point x="71" y="449"/>
		</contour>
		<contour>
			<point x="218" y="508" type="curve"/>
			<point x="265" y="562"/>
			<point x="313" y="601"/>
			<point x="357" y="638" type="curve"/>
			<point x="352" y="657"/>
			<point x="309" y="668"/>
			<point x="282" y="668" type="curve" smooth="yes"/>
			<point x="274" y="668"/>
			<point x="268" y="667"/>
			<point x="264" y="665" type="curve" smooth="yes"/>
			<point x="223" y="644"/>
			<point x="176" y="604"/>
			<point x="159" y="572" type="curve"/>
			<point x="159" y="555"/>
			<point x="212" y="523"/>
		</contour>
		<contour>
			<point x="106" y="628" type="curve"/>
			<point x="173" y="635"/>
			<point x="236" y="639"/>
			<point x="305" y="639" type="curve" smooth="yes"/>
			<point x="322" y="639"/>
			<point x="339" y="638"/>
			<point x="357" y="638" type="curve"/>
			<point x="359" y="651"/>
			<point x="360" y="667"/>
			<point x="360" y="683" type="curve" smooth="yes"/>
			<point x="360" y="699"/>
			<point x="359" y="715"/>
			<point x="355" y="730" type="curve"/>
			<point x="312" y="736"/>
			<point x="263" y="739"/>
			<point x="216" y="739" type="curve" smooth="yes"/>
			<point x="171" y="739"/>
			<point x="127" y="736"/>
			<point x="91" y="732" type="curve"/>
			<point x="90" y="726"/>
			<point x="90" y="719"/>
			<point x="90" y="711" type="curve" smooth="yes"/>
			<point x="90" y="682"/>
			<point x="95" y="644"/>
		</contour>
		<contour>
			<point x="664" y="102" type="curve"/>
			<point x="713" y="109"/>
			<point x="760" y="113"/>
			<point x="809" y="113" type="curve" smooth="yes"/>
			<point x="827" y="113"/>
			<point x="845" y="112"/>
			<point x="864" y="111" type="curve"/>
			<point x="866" y="123"/>
			<point x="867" y="137"/>
			<point x="867" y="152" type="curve" smooth="yes"/>
			<point x="867" y="167"/>
			<point x="866" y="183"/>
			<point x="863" y="198" type="curve"/>
			<point x="828" y="202"/>
			<point x="789" y="204"/>
			<point x="752" y="204" type="curve" smooth="yes"/>
			<point x="716" y="204"/>
			<point x="681" y="202"/>
			<point x="652" y="199" type="curve"/>
			<point x="649" y="177"/>
			<point x="653" y="117"/>
		</contour>
		<contour>
			<point x="740" y="144" type="curve"/>
			<point x="791" y="215"/>
			<point x="814" y="256"/>
			<point x="843" y="323" type="curve"/>
			<point x="830" y="343"/>
			<point x="767" y="375"/>
			<point x="740" y="383" type="curve"/>
			<point x="715" y="316"/>
			<point x="692" y="264"/>
			<point x="652" y="199" type="curve"/>
			<point x="663" y="179"/>
			<point x="720" y="145"/>
		</contour>
		<contour>
			<point x="945" y="-28" type="curve"/>
			<point x="950" y="95"/>
			<point x="957" y="177"/>
			<point x="973" y="274" type="curve"/>
			<point x="956" y="291"/>
			<point x="876" y="307"/>
			<point x="844" y="306" type="curve"/>
			<point x="828" y="218"/>
			<point x="816" y="114"/>
			<point x="817" y="7" type="curve"/>
			<point x="836" y="-11"/>
			<point x="916" y="-28"/>
		</contour>
	</outline>
</glyph>
<glyph name="AE" format="2">
	<advance width="1077"/>
	<unicode hex="00C6"/>
	<outline>
		<contour>
			<point x="205" y="-23" type="curve"/>
			<point x="299" y="169"/>
			<point x="397" y="355"/>
			<point x="422" y="544" type="curve"/>
			<point x="380" y="556"/>
			<point x="386" y="677"/>
			<point x="336" y="672" type="curve"/>
			<point x="269" y="495"/>
			<point x="110" y="253"/>
			<point x="-5" y="109" type="curve"/>
			<point x="50" y="47"/>
			<point x="149" y="-6"/>
		</contour>
		<contour>
			<point x="184" y="97" type="curve"/>
			<point x="311" y="104"/>
			<point x="422" y="117"/>
			<point x="555" y="111" type="curve"/>
			<point x="560" y="146"/>
			<point x="562" y="196"/>
			<point x="553" y="242" type="curve"/>
			<point x="428" y="255"/>
			<point x="274" y="256"/>
			<point x="162" y="246" type="curve"/>
			<point x="156" y="211"/>
			<point x="163" y="119"/>
		</contour>
		<contour>
			<point x="489" y="-14" type="curve"/>
			<point x="650" y="3"/>
			<point x="807" y="4"/>
			<point x="983" y="-2" type="curve"/>
			<point x="989" y="49"/>
			<point x="1000" y="126"/>
			<point x="980" y="184" type="curve"/>
			<point x="816" y="208"/>
			<point x="621" y="187"/>
			<point x="478" y="168" type="curve"/>
			<point x="471" y="119"/>
			<point x="483" y="18"/>
		</contour>
		<contour>
			<point x="482" y="33" type="curve"/>
			<point x="545" y="22"/>
			<point x="666" y="40"/>
			<point x="721" y="60" type="curve"/>
			<point x="701" y="288"/>
			<point x="644" y="524"/>
			<point x="587" y="706" type="curve"/>
			<point x="507" y="714"/>
			<point x="401" y="716"/>
			<point x="326" y="690" type="curve"/>
			<point x="386" y="509"/>
			<point x="456" y="210"/>
		</contour>
		<contour>
			<point x="667" y="250" type="curve"/>
			<point x="728" y="264"/>
			<point x="794" y="266"/>
			<point x="858" y="259" type="curve"/>
			<point x="857" y="302"/>
			<point x="856" y="364"/>
			<point x="845" y="427" type="curve"/>
			<point x="791" y="435"/>
			<point x="701" y="433"/>
			<point x="647" y="421" type="curve"/>
			<point x="644" y="379"/>
			<point x="658" y="277"/>
		</contour>
		<contour>
			<point x="527" y="481" type="curve"/>
			<point x="687" y="497"/>
			<point x="810" y="505"/>
			<point x="986" y="500" type="curve"/>
			<point x="992" y="551"/>
			<point x="1003" y="628"/>
			<point x="983" y="686" type="curve"/>
			<point x="820" y="710"/>
			<point x="598" y="708"/>
			<point x="451" y="691" type="curve"/>
			<point x="443" y="642"/>
			<point x="505" y="520"/>
		</contour>
	</outline>
</glyph>
<glyph name="Eth" format="2">
	<advance width="758"/>
	<unicode hex="00D0"/>
	<outline>
		<contour>
			<point x="59" y="267" type="curve"/>
			<point x="183" y="288"/>
			<point x="303" y="297"/>
			<point x="428" y="294" type="curve"/>
			<point x="436" y="334"/>
			<point x="439" y="375"/>
			<point x="433" y="415" type="curve"/>
			<point x="310" y="429"/>
			<point x="183" y="429"/>
			<point x="58" y="418" type="curve"/>
			<point x="50" y="368"/>
			<point x="50" y="323"/>
		</contour>
		<component base="D" xOffset="51"/>
	</outline>
</glyph>
<glyph name="multiply" format="2">
	<advance width="628"/>
	<unicode hex="00D7"/>
	<outline>
		<contour>
			<point x="171" y="-41" type="curve"/>
			<point x="294" y="107"/>
			<point x="437" y="271"/>
			<point x="586" y="416" type="curve"/>
			<point x="569" y="457"/>
			<point x="526" y="508"/>
			<point x="481" y="542" type="curve"/>
			<point x="329" y="398"/>
			<point x="199" y="271"/>
			<point x="57" y="115" type="curve"/>
			<point x="70" y="65"/>
			<point x="133" y="-13"/>
		</contour>
		<contour>
			<point x="470" y="-22" type="curve"/>
			<point x="505" y="5"/>
			<point x="541" y="43"/>
			<point x="570" y="83" type="curve"/>
			<point x="426" y="260"/>
			<point x="245" y="451"/>
			<point x="158" y="524" type="curve"/>
			<point x="123" y="498"/>
			<point x="72" y="427"/>
			<point x="54" y="382" type="curve"/>
			<point x="183" y="274"/>
			<point x="370" y="93"/>
		</contour>
	</outline>
</glyph>
<glyph name="Oslash" format="2">
	<advance width="736"/>
	<unicode hex="00D8"/>
	<anchor x="424" y="750" name="top"/>
	<outline>
		<contour>
			<point x="424" y="723" type="curve" smooth="yes"/>
			<point x="169" y="723"/>
			<point x="48" y="530"/>
			<point x="48" y="287" type="curve" smooth="yes"/>
			<point x="48" y="120"/>
			<point x="156" y="-18"/>
			<point x="359" y="-18" type="curve" smooth="yes"/>
			<point x="549" y="-18"/>
			<point x="709" y="172"/>
			<point x="709" y="393" type="curve" smooth="yes"/>
			<point x="709" y="611"/>
			<point x="612" y="723"/>
		</contour>
		<contour>
			<point x="357" y="113" type="curve" smooth="yes"/>
			<point x="283" y="113"/>
			<point x="239" y="175"/>
			<point x="239" y="278" type="curve" smooth="yes"/>
			<point x="239" y="455"/>
			<point x="298" y="598"/>
			<point x="399" y="598" type="curve" smooth="yes"/>
			<point x="475" y="598"/>
			<point x="519" y="506"/>
			<point x="520" y="413" type="curve" smooth="yes"/>
			<point x="522" y="233"/>
			<point x="471" y="113"/>
		</contour>
		<component base="slash" xOffset="133" yOffset="54"/>
	</outline>
</glyph>
<glyph name="Thorn" format="2">
	<advance width="629"/>
	<unicode hex="00DE"/>
	<outline>
		<contour>
			<point x="260" y="108" type="curve" smooth="yes"/>
			<point x="492" y="98"/>
			<point x="601" y="243"/>
			<point x="601" y="379" type="curve" smooth="yes"/>
			<point x="601" y="494"/>
			<point x="522" y="602"/>
			<point x="371" y="602" type="curve" smooth="yes"/>
			<point x="252" y="602"/>
			<point x="142" y="587"/>
			<point x="76" y="567" type="curve"/>
			<point x="76" y="517"/>
			<point x="77" y="453"/>
			<point x="97" y="402" type="curve"/>
			<point x="124" y="409"/>
			<point x="166" y="412"/>
			<point x="208" y="412" type="curve" smooth="yes"/>
			<point x="264" y="412"/>
			<point x="319" y="408"/>
			<point x="340" y="406" type="curve" smooth="yes"/>
			<point x="375" y="402"/>
			<point x="392" y="372"/>
			<point x="392" y="339" type="curve" smooth="yes"/>
			<point x="392" y="292"/>
			<point x="358" y="238"/>
			<point x="287" y="238" type="curve" smooth="yes"/>
			<point x="248" y="238"/>
			<point x="233" y="201"/>
			<point x="233" y="166" type="curve" smooth="yes"/>
			<point x="233" y="136"/>
			<point x="244" y="109"/>
		</contour>
		<contour>
			<point x="283" y="-18" type="curve"/>
			<point x="280" y="116"/>
			<point x="306" y="537"/>
			<point x="329" y="664" type="curve"/>
			<point x="296" y="697"/>
			<point x="151" y="724"/>
			<point x="93" y="723" type="curve"/>
			<point x="65" y="552"/>
			<point x="46" y="203"/>
			<point x="46" y="46" type="curve"/>
			<point x="80" y="14"/>
			<point x="225" y="-18"/>
		</contour>
	</outline>
</glyph>
<glyph name="germandbls" format="2">
	<advance width="646"/>
	<unicode hex="00DF"/>
	<outline>
		<contour>
			<point x="269" y="0" type="curve"/>
			<point x="310" y="-13"/>
			<point x="351" y="-19"/>
			<point x="390" y="-18" type="curve" smooth="yes"/>
			<point x="660" y="-12"/>
			<point x="673" y="401"/>
			<point x="403" y="401" type="curve" smooth="yes"/>
			<point x="368" y="400"/>
			<point x="329" y="395"/>
			<point x="287" y="383" type="curve"/>
			<point x="278" y="358"/>
			<point x="276" y="316"/>
			<point x="280" y="293" type="curve"/>
			<point x="446" y="293"/>
			<point x="437" y="111"/>
			<point x="268" y="111" type="curve"/>
			<point x="259" y="75"/>
			<point x="260" y="26"/>
		</contour>
		<contour>
			<point x="280" y="328" type="curve"/>
			<point x="669" y="328"/>
			<point x="642" y="724"/>
			<point x="344" y="724" type="curve" smooth="yes"/>
			<point x="126" y="724"/>
			<point x="33" y="545"/>
			<point x="33" y="18" type="curve"/>
			<point x="76" y="-7"/>
			<point x="184" y="-18"/>
			<point x="243" y="-18" type="curve"/>
			<point x="225" y="382"/>
			<point x="265" y="561"/>
			<point x="333" y="561" type="curve" smooth="yes"/>
			<point x="415" y="561"/>
			<point x="403" y="424"/>
			<point x="299" y="424" type="curve"/>
			<point x="287" y="400"/>
			<point x="278" y="358"/>
		</contour>
	</outline>
</glyph>
<glyph name="eth" format="2">
	<advance width="616"/>
	<unicode hex="00F0"/>
	<outline>
		<contour>
			<point x="257" y="-18" type="curve" smooth="yes"/>
			<point x="448" y="-18"/>
			<point x="587" y="176"/>
			<point x="587" y="375" type="curve" smooth="yes"/>
			<point x="587" y="542"/>
			<point x="489" y="712"/>
			<point x="241" y="773" type="curve"/>
			<point x="207" y="771"/>
			<point x="144" y="764"/>
			<point x="118" y="750" type="curve"/>
			<point x="325" y="662"/>
			<point x="393" y="498"/>
			<point x="393" y="363" type="curve" smooth="yes"/>
			<point x="393" y="246"/>
			<point x="341" y="152"/>
			<point x="286" y="152" type="curve" smooth="yes"/>
			<point x="248" y="152"/>
			<point x="232" y="187"/>
			<point x="232" y="228" type="curve" smooth="yes"/>
			<point x="232" y="286"/>
			<point x="265" y="358"/>
			<point x="316" y="358" type="curve" smooth="yes"/>
			<point x="360" y="358"/>
			<point x="393" y="331"/>
			<point x="406" y="286" type="curve"/>
			<point x="415" y="298"/>
			<point x="417" y="315"/>
			<point x="417" y="333" type="curve" smooth="yes"/>
			<point x="417" y="349"/>
			<point x="415" y="365"/>
			<point x="415" y="380" type="curve" smooth="yes"/>
			<point x="415" y="390"/>
			<point x="415" y="398"/>
			<point x="417" y="406" type="curve"/>
			<point x="399" y="458"/>
			<point x="346" y="500"/>
			<point x="285" y="500" type="curve" smooth="yes"/>
			<point x="128" y="500"/>
			<point x="38" y="352"/>
			<point x="38" y="214" type="curve" smooth="yes"/>
			<point x="38" y="94"/>
			<point x="106" y="-18"/>
		</contour>
		<contour>
			<point x="220" y="525" type="curve"/>
			<point x="336" y="570"/>
			<point x="478" y="644"/>
			<point x="574" y="710" type="curve"/>
			<point x="558" y="735"/>
			<point x="536" y="754"/>
			<point x="504" y="770" type="curve"/>
			<point x="380" y="729"/>
			<point x="222" y="661"/>
			<point x="110" y="592" type="curve"/>
			<point x="139" y="563"/>
			<point x="176" y="539"/>
		</contour>
	</outline>
</glyph>
<glyph name="divide" format="2">
	<advance width="705"/>
	<unicode hex="00F7"/>
	<outline>
		<contour>
			<point x="79" y="175" type="curve"/>
			<point x="202" y="187"/>
			<point x="375" y="195"/>
			<point x="519" y="195" type="curve" smooth="yes"/>
			<point x="571" y="195"/>
			<point x="619" y="194"/>
			<point x="659" y="192" type="curve"/>
			<point x="661" y="208"/>
			<point x="662" y="224"/>
			<point x="662" y="242" type="curve" smooth="yes"/>
			<point x="662" y="273"/>
			<point x="659" y="306"/>
			<point x="653" y="337" type="curve"/>
			<point x="514" y="349"/>
			<point x="362" y="355"/>
			<point x="239" y="355" type="curve" smooth="yes"/>
			<point x="160" y="355"/>
			<point x="94" y="353"/>
			<point x="50" y="348" type="curve"/>
			<point x="49" y="342"/>
			<point x="49" y="334"/>
			<point x="49" y="326" type="curve" smooth="yes"/>
			<point x="49" y="281"/>
			<point x="62" y="212"/>
		</contour>
		<contour>
			<point x="321" y="-56" type="curve" smooth="yes"/>
			<point x="391" y="-56"/>
			<point x="431" y="-12"/>
			<point x="431" y="32" type="curve" smooth="yes"/>
			<point x="431" y="89"/>
			<point x="404" y="152"/>
			<point x="351" y="152" type="curve" smooth="yes"/>
			<point x="298" y="152"/>
			<point x="240" y="118"/>
			<point x="240" y="61" type="curve" smooth="yes"/>
			<point x="240" y="3"/>
			<point x="268" y="-56"/>
		</contour>
		<contour>
			<point x="371" y="402" type="curve" smooth="yes"/>
			<point x="441" y="402"/>
			<point x="481" y="447"/>
			<point x="481" y="491" type="curve" smooth="yes"/>
			<point x="481" y="548"/>
			<point x="454" y="610"/>
			<point x="401" y="610" type="curve" smooth="yes"/>
			<point x="348" y="610"/>
			<point x="290" y="577"/>
			<point x="290" y="519" type="curve" smooth="yes"/>
			<point x="290" y="462"/>
			<point x="318" y="402"/>
		</contour>
	</outline>
</glyph>
<glyph name="oslash" format="2">
	<advance width="478"/>
	<unicode hex="00F8"/>
	<outline>
		<contour>
			<point x="94" y="-60" type="curve"/>
			<point x="237" y="109"/>
			<point x="359" y="304"/>
			<point x="469" y="500" type="curve"/>
			<point x="446" y="521"/>
			<point x="417" y="536"/>
			<point x="380" y="549" type="curve"/>
			<point x="242" y="368"/>
			<point x="129" y="192"/>
			<point x="4" y="-13" type="curve"/>
			<point x="29" y="-37"/>
			<point x="64" y="-52"/>
		</contour>
		<contour>
			<point x="-2" y="55"/>
			<point x="99" y="-19"/>
			<point x="209" y="-19" type="curve" smooth="yes"/>
			<point x="338" y="-19"/>
			<point x="478" y="83"/>
			<point x="478" y="273" type="curve" smooth="yes"/>
			<point x="478" y="442"/>
			<point x="375" y="522"/>
			<point x="264" y="522" type="curve" smooth="yes"/>
			<point x="136" y="522"/>
			<point x="-2" y="415"/>
			<point x="-2" y="211" type="curve" smooth="yes"/>
		</contour>
		<contour>
			<point x="371" y="185"/>
			<point x="304" y="108"/>
			<point x="247" y="108" type="curve" smooth="yes"/>
			<point x="206" y="108"/>
			<point x="171" y="148"/>
			<point x="171" y="240" type="curve" smooth="yes"/>
			<point x="171" y="368"/>
			<point x="238" y="445"/>
			<point x="294" y="445" type="curve" smooth="yes"/>
			<point x="335" y="445"/>
			<point x="371" y="404"/>
			<point x="371" y="313" type="curve" smooth="yes"/>
		</contour>
	</outline>
</glyph>
<glyph name="thorn" format="2">
	<advance width="636"/>
	<unicode hex="00FE"/>
	<outline>
		<contour>
			<point x="229" y="-267" type="curve"/>
			<point x="228" y="-23"/>
			<point x="292" y="499"/>
			<point x="327" y="725" type="curve"/>
			<point x="269" y="750"/>
			<point x="167" y="775"/>
			<point x="113" y="773" type="curve"/>
			<point x="61" y="555"/>
			<point x="16" y="22"/>
			<point x="12" y="-208" type="curve"/>
			<point x="62" y="-253"/>
			<point x="175" y="-267"/>
		</contour>
		<contour>
			<point x="181" y="78" type="curve"/>
			<point x="325" y="-113"/>
			<point x="590" y="-8"/>
			<point x="596" y="259" type="curve" smooth="yes"/>
			<point x="604" y="597"/>
			<point x="284" y="606"/>
			<point x="239" y="322" type="curve" smooth="yes"/>
			<point x="219" y="197"/>
			<point x="268" y="153"/>
			<point x="271" y="207" type="curve" smooth="yes"/>
			<point x="280" y="342"/>
			<point x="407" y="361"/>
			<point x="396" y="227" type="curve" smooth="yes"/>
			<point x="387" y="110"/>
			<point x="264" y="92"/>
			<point x="271" y="204" type="curve" smooth="yes"/>
			<point x="275" y="271"/>
			<point x="214" y="89"/>
		</contour>
	</outline>
</glyph>
<glyph name="idotless" format="2">
	<advance width="318"/>
	<unicode hex="0131"/>
	<anchor x="187" y="523" name="top"/>
	<outline>
		<contour>
			<point x="250" y="-18" type="curve"/>
			<point x="252" y="153"/>
			<point x="269" y="329"/>
			<point x="297" y="468" type="curve"/>
			<point x="257" y="499"/>
			<point x="132" y="523"/>
			<point x="79" y="522" type="curve"/>
			<point x="48" y="379"/>
			<point x="33" y="203"/>
			<point x="33" y="41" type="curve"/>
			<point x="84" y="-4"/>
			<point x="197" y="-18"/>
		</contour>
	</outline>
</glyph>
<glyph name="Lslash" format="2">
	<advance width="685"/>
	<unicode hex="0141"/>
	<outline>
		<contour>
			<point x="84" y="270" type="curve"/>
			<point x="224" y="300"/>
			<point x="354" y="337"/>
			<point x="489" y="387" type="curve"/>
			<point x="490" y="400"/>
			<point x="491" y="413"/>
			<point x="491" y="426" type="curve" smooth="yes"/>
			<point x="491" y="456"/>
			<point x="487" y="487"/>
			<point x="477" y="515" type="curve"/>
			<point x="331" y="500"/>
			<point x="196" y="472"/>
			<point x="59" y="428" type="curve"/>
			<point x="55" y="375"/>
			<point x="67" y="321"/>
		</contour>
		<component base="L" xOffset="69"/>
	</outline>
</glyph>
<glyph name="lslash" format="2">
	<advance width="501"/>
	<unicode hex="0142"/>
	<outline>
		<contour>
			<point x="66" y="231" type="curve"/>
			<point x="200" y="256"/>
			<point x="338" y="288"/>
			<point x="469" y="329" type="curve"/>
			<point x="467" y="378"/>
			<point x="460" y="414"/>
			<point x="446" y="462" type="curve"/>
			<point x="301" y="428"/>
			<point x="176" y="390"/>
			<point x="50" y="348" type="curve"/>
			<point x="50" y="306"/>
			<point x="55" y="270"/>
		</contour>
		<component base="l" xOffset="78"/>
	</outline>
</glyph>
<glyph name="florin" format="2">
	<advance width="568"/>
	<unicode hex="0192"/>
	<outline>
		<contour>
			<point x="568" y="706" type="curve"/>
			<point x="520" y="725"/>
			<point x="471" y="734"/>
			<point x="426" y="734" type="curve" smooth="yes"/>
			<point x="328" y="734"/>
			<point x="248" y="690"/>
			<point x="228" y="604" type="curve" smooth="yes"/>
			<point x="196" y="467"/>
			<point x="206" y="287"/>
			<point x="178" y="174" type="curve" smooth="yes"/>
			<point x="166" y="125"/>
			<point x="143" y="103"/>
			<point x="109" y="103" type="curve" smooth="yes"/>
			<point x="101" y="103"/>
			<point x="93" y="104"/>
			<point x="85" y="106" type="curve"/>
			<point x="78" y="82"/>
			<point x="74" y="41"/>
			<point x="74" y="8" type="curve" smooth="yes"/>
			<point x="74" y="-1"/>
			<point x="74" y="-10"/>
			<point x="75" y="-18" type="curve"/>
			<point x="108" y="-23"/>
			<point x="140" y="-25"/>
			<point x="168" y="-25" type="curve" smooth="yes"/>
			<point x="296" y="-25"/>
			<point x="376" y="23"/>
			<point x="400" y="130" type="curve" smooth="yes"/>
			<point x="432" y="275"/>
			<point x="430" y="478"/>
			<point x="459" y="554" type="curve" smooth="yes"/>
			<point x="471" y="586"/>
			<point x="490" y="601"/>
			<point x="512" y="601" type="curve" smooth="yes"/>
			<point x="519" y="601"/>
			<point x="526" y="600"/>
			<point x="533" y="597" type="curve"/>
			<point x="546" y="618"/>
			<point x="562" y="671"/>
		</contour>
		<contour>
			<point x="533" y="302" type="curve"/>
			<point x="534" y="310"/>
			<point x="535" y="318"/>
			<point x="535" y="326" type="curve" smooth="yes"/>
			<point x="535" y="354"/>
			<point x="528" y="385"/>
			<point x="517" y="413" type="curve"/>
			<point x="411" y="426"/>
			<point x="293" y="431"/>
			<point x="186" y="431" type="curve" smooth="yes"/>
			<point x="141" y="431"/>
			<point x="99" y="430"/>
			<point x="60" y="429" type="curve"/>
			<point x="58" y="422"/>
			<point x="56" y="412"/>
			<point x="56" y="401" type="curve" smooth="yes"/>
			<point x="56" y="374"/>
			<point x="63" y="340"/>
			<point x="75" y="324" type="curve"/>
			<point x="226" y="321"/>
			<point x="373" y="320"/>
		</contour>
	</outline>
</glyph>
<glyph name="jdotless" format="2">
	<advance width="324"/>
	<unicode hex="0237"/>
	<anchor x="180" y="517" name="top"/>
	<outline>
		<contour>
			<point x="54" y="517" type="curve"/>
			<point x="54" y="483"/>
			<point x="55" y="449"/>
			<point x="55" y="414" type="curve" smooth="yes"/>
			<point x="55" y="162"/>
			<point x="40" y="-93"/>
			<point x="-63" y="-119" type="curve"/>
			<point x="-59" y="-162"/>
			<point x="-50" y="-210"/>
			<point x="-29" y="-242" type="curve"/>
			<point x="189" y="-214"/>
			<point x="260" y="-83"/>
			<point x="305" y="468" type="curve"/>
			<point x="240" y="504"/>
			<point x="117" y="517"/>
		</contour>
	</outline>
</glyph>
<glyph name="circumflex" format="2">
	<advance width="496"/>
	<unicode hex="02C6"/>
	<anchor x="284" y="500" name="_top"/>
	<outline>
		<contour>
			<point x="79" y="624" type="curve"/>
			<point x="119" y="585"/>
			<point x="170" y="542"/>
			<point x="207" y="518" type="curve"/>
			<point x="277" y="584"/>
			<point x="317" y="646"/>
			<point x="355" y="714" type="curve"/>
			<point x="326" y="734"/>
			<point x="311" y="772"/>
			<point x="308" y="787" type="curve"/>
			<point x="217" y="733"/>
			<point x="157" y="682"/>
		</contour>
		<contour>
			<point x="246" y="723" type="curve"/>
			<point x="290" y="638"/>
			<point x="311" y="597"/>
			<point x="355" y="518" type="curve"/>
			<point x="392" y="537"/>
			<point x="465" y="590"/>
			<point x="495" y="622" type="curve"/>
			<point x="438" y="679"/>
			<point x="391" y="723"/>
			<point x="308" y="787" type="curve"/>
			<point x="298" y="776"/>
			<point x="275" y="740"/>
		</contour>
	</outline>
</glyph>
<glyph name="caron" format="2">
	<advance width="499"/>
	<unicode hex="02C7"/>
	<anchor x="272" y="500" name="_top"/>
	<outline>
		<contour>
			<point x="505" y="687" type="curve"/>
			<point x="473" y="717"/>
			<point x="417" y="762"/>
			<point x="376" y="789" type="curve"/>
			<point x="308" y="717"/>
			<point x="250" y="646"/>
			<point x="206" y="577" type="curve"/>
			<point x="224" y="559"/>
			<point x="290" y="525"/>
			<point x="321" y="513" type="curve"/>
			<point x="373" y="571"/>
			<point x="428" y="625"/>
		</contour>
		<contour>
			<point x="355" y="559" type="curve"/>
			<point x="298" y="659"/>
			<point x="274" y="700"/>
			<point x="228" y="790" type="curve"/>
			<point x="176" y="762"/>
			<point x="119" y="719"/>
			<point x="86" y="684" type="curve"/>
			<point x="144" y="613"/>
			<point x="186" y="571"/>
			<point x="247" y="516" type="curve"/>
			<point x="283" y="521"/>
			<point x="326" y="542"/>
		</contour>
	</outline>
</glyph>
<glyph name="breve" format="2">
	<advance width="548"/>
	<unicode hex="02D8"/>
	<anchor x="295" y="500" name="_top"/>
	<outline>
		<contour>
			<point x="81" y="642" type="curve"/>
			<point x="119" y="571"/>
			<point x="203" y="530"/>
			<point x="293" y="530" type="curve" smooth="yes"/>
			<point x="399" y="530"/>
			<point x="488" y="578"/>
			<point x="552" y="665" type="curve"/>
			<point x="534" y="687"/>
			<point x="510" y="707"/>
			<point x="482" y="723" type="curve"/>
			<point x="430" y="694"/>
			<point x="373" y="680"/>
			<point x="314" y="680" type="curve" smooth="yes"/>
			<point x="257" y="680"/>
			<point x="196" y="693"/>
			<point x="135" y="718" type="curve"/>
			<point x="113" y="696"/>
			<point x="95" y="668"/>
		</contour>
	</outline>
</glyph>
<glyph name="dotaccent" format="2">
	<advance width="290"/>
	<unicode hex="02D9"/>
	<anchor x="175" y="500" name="_top"/>
	<outline>
		<contour>
			<point x="173" y="539" type="curve" smooth="yes"/>
			<point x="248" y="539"/>
			<point x="290" y="586"/>
			<point x="290" y="635" type="curve" smooth="yes"/>
			<point x="290" y="696"/>
			<point x="262" y="763"/>
			<point x="204" y="763" type="curve" smooth="yes"/>
			<point x="147" y="763"/>
			<point x="84" y="727"/>
			<point x="84" y="665" type="curve" smooth="yes"/>
			<point x="84" y="602"/>
			<point x="115" y="539"/>
		</contour>
	</outline>
</glyph>
<glyph name="ring" format="2">
	<advance width="335"/>
	<unicode hex="02DA"/>
	<anchor x="184" y="500" name="_top"/>
	<outline>
		<contour>
			<point x="194" y="550" type="curve" smooth="yes"/>
			<point x="284" y="550"/>
			<point x="337" y="596"/>
			<point x="337" y="688" type="curve" smooth="yes"/>
			<point x="337" y="746"/>
			<point x="295" y="794"/>
			<point x="232" y="794" type="curve" smooth="yes"/>
			<point x="132" y="794"/>
			<point x="86" y="733"/>
			<point x="86" y="647" type="curve" smooth="yes"/>
			<point x="86" y="584"/>
			<point x="131" y="550"/>
		</contour>
		<contour>
			<point x="193" y="668" type="curve" smooth="yes"/>
			<point x="193" y="701"/>
			<point x="213" y="720"/>
			<point x="240" y="720" type="curve" smooth="yes"/>
			<point x="259" y="720"/>
			<point x="270" y="704"/>
			<point x="270" y="689" type="curve" smooth="yes"/>
			<point x="270" y="649"/>
			<point x="248" y="634"/>
			<point x="226" y="634" type="curve" smooth="yes"/>
			<point x="204" y="634"/>
			<point x="193" y="650"/>
		</contour>
	</outline>
</glyph>
<glyph name="ogonek" format="2">
	<advance width="316"/>
	<unicode hex="02DB"/>
	<anchor x="120" y="0" name="_ogonek"/>
	<outline>
		<contour>
			<point x="227" y="-215" type="curve"/>
			<point x="191" y="-122" type="line"/>
			<point x="140" y="-135"/>
			<point x="136" y="-66"/>
			<point x="170" y="6" type="curve"/>
			<point x="144" y="11"/>
			<point x="115" y="12"/>
			<point x="85" y="6" type="curve"/>
			<point x="-77" y="-109"/>
			<point x="4" y="-321"/>
		</contour>
	</outline>
</glyph>
<glyph name="tilde" format="2">
	<advance width="537"/>
	<unicode hex="02DC"/>
	<anchor x="272" y="500" name="_top"/>
	<outline>
		<contour>
			<point x="159" y="572" type="curve"/>
			<point x="182" y="590"/>
			<point x="208" y="599"/>
			<point x="234" y="599" type="curve" smooth="yes"/>
			<point x="256" y="599"/>
			<point x="277" y="594"/>
			<point x="297" y="582" type="curve" smooth="yes"/>
			<point x="324" y="566"/>
			<point x="353" y="558"/>
			<point x="380" y="558" type="curve" smooth="yes"/>
			<point x="446" y="558"/>
			<point x="508" y="606"/>
			<point x="538" y="702" type="curve"/>
			<point x="517" y="718"/>
			<point x="492" y="734"/>
			<point x="462" y="744" type="curve"/>
			<point x="442" y="721"/>
			<point x="422" y="708"/>
			<point x="397" y="708" type="curve" smooth="yes"/>
			<point x="377" y="708"/>
			<point x="354" y="717"/>
			<point x="326" y="734" type="curve" smooth="yes"/>
			<point x="299" y="751"/>
			<point x="270" y="759"/>
			<point x="241" y="759" type="curve" smooth="yes"/>
			<point x="173" y="759"/>
			<point x="109" y="712"/>
			<point x="84" y="619" type="curve"/>
			<point x="110" y="597"/>
			<point x="131" y="584"/>
		</contour>
	</outline>
</glyph>
<glyph name="hungarumlaut" format="2">
	<advance width="479"/>
	<unicode hex="02DD"/>
	<anchor x="197" y="500" name="_top"/>
	<outline>
		<contour>
			<point x="74" y="569" type="curve"/>
			<point x="101" y="561"/>
			<point x="162" y="559"/>
			<point x="192" y="564" type="curve"/>
			<point x="217" y="625"/>
			<point x="247" y="685"/>
			<point x="285" y="743" type="curve"/>
			<point x="259" y="753"/>
			<point x="164" y="772"/>
			<point x="130" y="780" type="curve"/>
			<point x="103" y="706"/>
			<point x="89" y="663"/>
		</contour>
		<contour>
			<point x="232" y="569" type="curve"/>
			<point x="264" y="558"/>
			<point x="309" y="549"/>
			<point x="339" y="542" type="curve"/>
			<point x="379" y="594"/>
			<point x="431" y="649"/>
			<point x="486" y="697" type="curve"/>
			<point x="454" y="717"/>
			<point x="392" y="753"/>
			<point x="345" y="772" type="curve"/>
			<point x="297" y="703"/>
			<point x="269" y="653"/>
		</contour>
	</outline>
</glyph>
<glyph name="Io-cy" format="2">
	<advance width="640"/>
	<unicode hex="0401"/>
	<outline>
		<contour>
			<point x="470" y="763" type="curve" smooth="yes"/>
			<point x="536" y="763"/>
			<point x="573" y="804"/>
			<point x="573" y="845" type="curve" smooth="yes"/>
			<point x="573" y="899"/>
			<point x="547" y="957"/>
			<point x="498" y="957" type="curve" smooth="yes"/>
			<point x="449" y="957"/>
			<point x="394" y="926"/>
			<point x="394" y="872" type="curve" smooth="yes"/>
			<point x="394" y="818"/>
			<point x="421" y="763"/>
		</contour>
		<contour>
			<point x="243" y="775" type="curve" smooth="yes"/>
			<point x="309" y="775"/>
			<point x="346" y="816"/>
			<point x="346" y="858" type="curve" smooth="yes"/>
			<point x="346" y="911"/>
			<point x="320" y="970"/>
			<point x="271" y="970" type="curve" smooth="yes"/>
			<point x="222" y="970"/>
			<point x="167" y="938"/>
			<point x="167" y="884" type="curve" smooth="yes"/>
			<point x="167" y="831"/>
			<point x="194" y="775"/>
		</contour>
		<component base="E"/>
	</outline>
</glyph>
<glyph name="E-cy" format="2">
	<advance width="699"/>
	<unicode hex="0404"/>
	<outline>
		<contour>
			<point x="402" y="272" type="curve"/>
			<point x="417" y="287"/>
			<point x="424" y="340"/>
			<point x="424" y="378" type="curve" smooth="yes"/>
			<point x="424" y="390"/>
			<point x="423" y="400"/>
			<point x="422" y="408" type="curve"/>
			<point x="352" y="415"/>
			<point x="304" y="418"/>
			<point x="265" y="418" type="curve" smooth="yes"/>
			<point x="251" y="418"/>
			<point x="239" y="418"/>
			<point x="227" y="417" type="curve"/>
			<point x="213" y="379"/>
			<point x="76" y="338"/>
			<point x="80" y="305" type="curve"/>
			<point x="99" y="306"/>
			<point x="117" y="306"/>
			<point x="134" y="306" type="curve" smooth="yes"/>
			<point x="233" y="306"/>
			<point x="309" y="296"/>
		</contour>
		<component base="C"/>
	</outline>
</glyph>
<glyph name="Lje-cy" format="2">
	<advance width="1130"/>
	<unicode hex="0409"/>
	<outline>
		<contour>
			<point x="508" y="47" type="curve"/>
			<point x="538" y="46"/>
			<point x="585" y="43"/>
			<point x="631" y="43" type="curve" smooth="yes"/>
			<point x="682" y="43"/>
			<point x="733" y="46"/>
			<point x="760" y="60" type="curve"/>
			<point x="743" y="292"/>
			<point x="713" y="517"/>
			<point x="675" y="723" type="curve"/>
			<point x="656" y="724"/>
			<point x="635" y="725"/>
			<point x="613" y="725" type="curve" smooth="yes"/>
			<point x="539" y="725"/>
			<point x="451" y="717"/>
			<point x="396" y="697" type="curve"/>
			<point x="456" y="511"/>
			<point x="493" y="284"/>
		</contour>
		<contour>
			<point x="263" y="-18" type="curve"/>
			<point x="380" y="181"/>
			<point x="435" y="356"/>
			<point x="500" y="543" type="curve"/>
			<point x="462" y="574"/>
			<point x="420" y="592"/>
			<point x="364" y="603" type="curve"/>
			<point x="288" y="445"/>
			<point x="180" y="283"/>
			<point x="26" y="114" type="curve"/>
			<point x="81" y="52"/>
			<point x="207" y="-1"/>
		</contour>
		<contour>
			<point x="508" y="47" type="curve"/>
			<point x="564" y="3"/>
			<point x="654" y="-20"/>
			<point x="746" y="-20" type="curve" smooth="yes"/>
			<point x="934" y="-20"/>
			<point x="1085" y="56"/>
			<point x="1085" y="219" type="curve" smooth="yes"/>
			<point x="1085" y="352"/>
			<point x="987" y="432"/>
			<point x="848" y="432" type="curve" smooth="yes"/>
			<point x="723" y="432"/>
			<point x="648" y="388"/>
			<point x="648" y="350" type="curve" smooth="yes"/>
			<point x="648" y="315"/>
			<point x="698" y="282"/>
			<point x="738" y="282" type="curve" smooth="yes"/>
			<point x="812" y="282"/>
			<point x="845" y="241"/>
			<point x="845" y="199" type="curve" smooth="yes"/>
			<point x="845" y="158"/>
			<point x="812" y="116"/>
			<point x="755" y="116" type="curve" smooth="yes"/>
			<point x="675" y="116"/>
			<point x="549" y="63"/>
		</contour>
	</outline>
</glyph>
